999
DXF file: S:\Scientific_Service_Unit\Machine Shops\Research Groups\Miba Machine Shop\Emergency Ventilator\DXF\drive_gear_-_thickness_assumed.dxf
999
Pro/ENGINEER 2019224 by Parametric Technology Corporation
  0
SECTION
  2
HEADER
  9
$ACADVER
  1
AC1032
  9
$DWGCODEPAGE
  3
ANSI_1252
  9
$EXTMAX
 10
420.0
 20
297.0
 30
0.0
  9
$EXTMIN
 10
0.0
 20
0.0
 30
0.0
  9
$LIMMIN
 10
0.0
 20
0.0
  9
$LIMMAX
 10
420.0
 20
297.0
  9
$VIEWCTR
 10
210.0
 20
148.5
  9
$VIEWSIZE
 40
297.0
  9
$CLAYER
  8
0
  9
$LTSCALE
 40
23.1
  9
$CELTYPE
  6
BYLAYER
  9
$DIMSCALE
 40
1.0
  9
$DIMASZ
 40
3.5
  9
$DIMEXO
 40
1.5
  9
$DIMDLI
 40
15.96
  9
$DIMEXE
 40
1.5
  9
$DIMCEN
 40
3.78
  9
$DIMLFAC
 40
1.0
  9
$DIMBLK
  1
_FILLED
  9
$DIMALT
 70
0
  9
$DIMALTF
 40
0.0393700787
  9
$DIMTXT
 40
3.5
  9
$DIMTOL
 70
1
  9
$DIMLIM
 70
0
  9
$DIMTFAC
 40
1.0
  9
$DIMTP
 40
0.005
  9
$DIMTM
 40
0.005
  9
$DIMGAP
 40
0.625
  9
$DIMDSEP
 70
46
  9
$AUNITS
 70
0
  9
$PDMODE
 70
3
  9
$PDSIZE
 40
0.3125
  9
$HANDSEED
  5
33C
  9
$TILEMODE
 70
1
  9
$MEASUREMENT
 70
1
  9
$INSUNITS
 70
4
  0
ENDSEC
  0
SECTION
  2
CLASSES
  0
CLASS
  1
ACDBDICTIONARYWDFLT
  2
AcDbDictionaryWithDefault
  3
AutoCAD 2000
 90
0
 91
1
280
0
281
0
  0
CLASS
  1
ACDBPLACEHOLDER
  2
AcDbPlaceHolder
  3
AutoCAD 2000
 90
0
 91
1
280
0
281
0
  0
CLASS
  1
LAYOUT
  2
AcDbLayout
  3
AutoCAD 2000
 90
0
 91
0
280
0
281
0
  0
ENDSEC
  0
SECTION
  2
TABLES
  0
TABLE
  2
VPORT
  5
8
100
AcDbSymbolTable
 70
2
  0
VPORT
  5
1F4
100
AcDbSymbolTableRecord
100
AcDbViewportTableRecord
  2
*ACTIVE
 70
0
 10
0.0
 20
0.0
 11
1.0
 21
1.0
 12
210.0
 22
148.5
 13
0.0
 23
0.0
 14
1.0
 24
1.0
 15
0.0
 25
0.0
 16
0.0
 26
0.0
 36
1.0
 17
0.0
 27
0.0
 37
0.0
 40
297.0
 41
1.4141414141
 42
50.0
 43
0.0
 44
0.0
 50
0.0
 51
0.0
 71
0
 72
100
 73
1
 74
1
 75
0
 76
0
 77
0
 78
0
  0
ENDTAB
  0
TABLE
  2
LTYPE
  5
5
100
AcDbSymbolTable
 70
6
  0
LTYPE
  5
14
100
AcDbSymbolTableRecord
100
AcDbLinetypeTableRecord
  2
BYBLOCK
 70
0
  3

 72
65
 73
0
 40
0.0
  0
LTYPE
  5
15
100
AcDbSymbolTableRecord
100
AcDbLinetypeTableRecord
  2
BYLAYER
 70
0
  3

 72
65
 73
0
 40
0.0
  0
LTYPE
  5
16
100
AcDbSymbolTableRecord
100
AcDbLinetypeTableRecord
  2
CONTINUOUS
 70
64
  3
Solid line
 72
65
 73
0
 40
0.0
  0
LTYPE
  5
1F5
100
AcDbSymbolTableRecord
100
AcDbLinetypeTableRecord
  2
CENTER
 70
64
  3
____ _ ____ _ ____ _ ____ _ ____ _ ____ _ ____
 72
65
 73
4
 40
0.6
 49
0.375
 74
0
 49
-0.075
 74
0
 49
0.075
 74
0
 49
-0.075
 74
0
  0
LTYPE
  5
1F6
100
AcDbSymbolTableRecord
100
AcDbLinetypeTableRecord
  2
HIDDEN
 70
64
  3
- - - - - - - - - - - - - - - - - - - -
 72
65
 73
2
 40
0.2
 49
0.1
 74
0
 49
-0.1
 74
0
  0
LTYPE
  5
1F7
100
AcDbSymbolTableRecord
100
AcDbLinetypeTableRecord
  2
PHANTOM
 70
64
  3
_____ _ _ _____ _ _ _____ _ _ _____
 72
65
 73
6
 40
0.8
 49
0.45
 74
0
 49
-0.05
 74
0
 49
0.1
 74
0
 49
-0.05
 74
0
 49
0.1
 74
0
 49
-0.05
 74
0
  0
LTYPE
  5
1F8
100
AcDbSymbolTableRecord
100
AcDbLinetypeTableRecord
  2
DOT
 70
64
  3
. . . . . . . . . . . . . . . . . . . .
 72
65
 73
2
 40
0.2
 49
0.1
 74
0
 49
-0.1
 74
0
  0
LTYPE
  5
1F9
100
AcDbSymbolTableRecord
100
AcDbLinetypeTableRecord
  2
DASHED
 70
64
  3
- - - - - - - - - - - - - - - - - - - -
 72
65
 73
2
 40
0.2
 49
0.1
 74
0
 49
-0.1
 74
0
  0
ENDTAB
  0
TABLE
  2
LAYER
  5
2
100
AcDbSymbolTable
 70
36
  0
LAYER
  5
10
100
AcDbSymbolTableRecord
100
AcDbLayerTableRecord
  2
0
 70
0
 62
7
  6
CONTINUOUS
370
-3
390
F
  0
LAYER
  5
1FA
100
AcDbSymbolTableRecord
100
AcDbLayerTableRecord
  2
DEFAULT_1
 70
0
 62
7
  6
CENTER
370
-3
390
F
  0
LAYER
  5
1FB
100
AcDbSymbolTableRecord
100
AcDbLayerTableRecord
  2
DEFAULT_2
 70
0
 62
8
  6
HIDDEN
370
-3
390
F
  0
LAYER
  5
1FC
100
AcDbSymbolTableRecord
100
AcDbLayerTableRecord
  2
DEFAULT_3
 70
0
 62
7
  6
PHANTOM
370
-3
390
F
  0
LAYER
  5
1FD
100
AcDbSymbolTableRecord
100
AcDbLayerTableRecord
  2
BEZUGSACHSEN
 70
0
 62
7
  6
CONTINUOUS
370
-3
390
F
  0
LAYER
  5
1FE
100
AcDbSymbolTableRecord
100
AcDbLayerTableRecord
  2
BEZUGSEBENEN
 70
0
 62
7
  6
CONTINUOUS
370
-3
390
F
  0
LAYER
  5
1FF
100
AcDbSymbolTableRecord
100
AcDbLayerTableRecord
  2
BOHRUNGEN
 70
0
 62
7
  6
CONTINUOUS
370
-3
390
F
  0
LAYER
  5
200
100
AcDbSymbolTableRecord
100
AcDbLayerTableRecord
  2
GEWINDE
 70
0
 62
7
  6
CONTINUOUS
370
-3
390
F
  0
LAYER
  5
201
100
AcDbSymbolTableRecord
100
AcDbLayerTableRecord
  2
KOORDSYS
 70
0
 62
7
  6
CONTINUOUS
370
-3
390
F
  0
LAYER
  5
202
100
AcDbSymbolTableRecord
100
AcDbLayerTableRecord
  2
NONE
 70
0
 62
7
  6
CONTINUOUS
370
-3
390
F
  0
ENDTAB
  0
TABLE
  2
STYLE
  5
3
100
AcDbSymbolTable
 70
1
  0
STYLE
  5
11
100
AcDbSymbolTableRecord
100
AcDbTextStyleTableRecord
  2
STANDARD
 70
0
 40
0.0
 41
0.7
 50
0.0
 71
0
 42
0.2
  3
txt
  4

  0
STYLE
  5
203
100
AcDbSymbolTableRecord
100
AcDbTextStyleTableRecord
  2
TEXTSTYLE_1
 70
0
 40
0.0
 41
0.8
 50
0.0
 71
0
 42
0.2
  3
gdt
  4

  0
ENDTAB
  0
TABLE
  2
VIEW
  5
6
100
AcDbSymbolTable
 70
0
  0
ENDTAB
  0
TABLE
  2
UCS
  5
7
100
AcDbSymbolTable
 70
0
  0
ENDTAB
  0
TABLE
  2
APPID
  5
9
100
AcDbSymbolTable
 70
1
  0
APPID
  5
204
100
AcDbSymbolTableRecord
100
AcDbRegAppTableRecord
  2
ACAD
 70
0
  0
ENDTAB
  0
TABLE
  2
BLOCK_RECORD
  5
1
100
AcDbSymbolTable
 70
0
  0
BLOCK_RECORD
  5
205
100
AcDbSymbolTableRecord
100
AcDbBlockTableRecord
  2
*Model_Space
  0
BLOCK_RECORD
  5
206
100
AcDbSymbolTableRecord
100
AcDbBlockTableRecord
  2
*Paper_Space
  0
BLOCK_RECORD
  5
207
100
AcDbSymbolTableRecord
100
AcDbBlockTableRecord
  2
_FILLED
  0
ENDTAB
  0
TABLE
  2
DIMSTYLE
  5
A
100
AcDbSymbolTable
 70
1
100
AcDbDimStyleTable
 71
0
  0
DIMSTYLE
105
208
100
AcDbSymbolTableRecord
100
AcDbDimStyleTableRecord
  2
STANDARD
 70
0
  3

  4

 40
1.0
 41
3.5
 42
1.5
 43
0.38
 44
1.5
 45
0.0
 46
0.0
 47
0.005
 48
0.005
140
3.5
141
0.09
142
0.0
143
25.4
144
1.0
145
0.0
146
1.0
147
0.625
 71
1.0
 72
0.0
 73
0
 74
0
 75
0
 76
0
 77
1
 78
8
 79
2
170
0
171
2
172
0
173
0
174
0
175
0
176
0
177
0
178
5
270
2
179
3
271
3
272
3
273
2
274
2
275
0
280
0
281
0
282
0
283
1
284
8
285
0
286
0
287
3
288
0
340
11
278
46
341
207
342
207
343
207
344
207
  0
ENDTAB
  0
ENDSEC
  0
SECTION
  2
BLOCKS
  0
BLOCK
  5
20
100
AcDbEntity
  8
0
100
AcDbBlockBegin
  2
*Model_Space
 70
0
 10
0.0
 20
0.0
 30
0.0
  3
*Model_Space
  1

  0
ENDBLK
  5
21
100
AcDbEntity
  8
0
100
AcDbBlockEnd
  0
BLOCK
  5
1C
100
AcDbEntity
  8
0
100
AcDbBlockBegin
  2
*Paper_Space
 70
0
 10
0.0
 20
0.0
 30
0.0
  3
*Paper_Space
  1

  0
ENDBLK
  5
1D
100
AcDbEntity
  8
0
100
AcDbBlockEnd
  0
BLOCK
  5
209
100
AcDbEntity
  8
0
100
AcDbBlockBegin
  2
_FILLED
 70
64
 10
0.0
 20
0.0
  3
_FILLED
  1

  0
SOLID
  5
20A
100
AcDbEntity
  8
0
  6
BYBLOCK
 62
0
100
AcDbTrace
 10
0.0
 20
0.0
 11
-1.0
 21
0.125
 12
-1.0
 22
-0.125
 13
-1.0
 23
-0.125
  0
ENDBLK
  5
20B
100
AcDbEntity
  8
0
  6
BYBLOCK
 62
0
100
AcDbBlockEnd
  0
ENDSEC
  0
SECTION
  2
ENTITIES
  0
LINE
  5
20C
100
AcDbEntity
  8
0
100
AcDbLine
 62
7
  6
CONTINUOUS
 10
151.2073727537
 20
106.2543510112
 11
151.2417768308
 21
105.519994201
  0
LINE
  5
20D
100
AcDbEntity
  8
0
100
AcDbLine
 62
7
  6
CONTINUOUS
 10
149.118420056
 20
151.0597637504
 11
149.0840159789
 21
151.7941205606
  0
LINE
  5
20E
100
AcDbEntity
  8
0
100
AcDbLine
 62
7
  6
CONTINUOUS
 10
151.2417766929
 20
151.7941205606
 11
151.2073726157
 21
151.0597637504
  0
LINE
  5
20F
100
AcDbEntity
  8
0
100
AcDbLine
 62
7
  6
CONTINUOUS
 10
149.0840161169
 20
105.519994201
 11
149.118420194
 21
106.2543510112
  0
LINE
  5
210
100
AcDbEntity
  8
0
100
AcDbLine
 62
7
  6
CONTINUOUS
 10
146.5267638794
 20
106.5267450519
 11
146.4077347788
 21
105.80128269
  0
LINE
  5
211
100
AcDbEntity
  8
0
100
AcDbLine
 62
7
  6
CONTINUOUS
 10
153.7990289304
 20
150.7873697099
 11
153.918058031
 21
151.5128320717
  0
LINE
  5
212
100
AcDbEntity
  8
0
100
AcDbLine
 62
7
  6
CONTINUOUS
 10
156.0286664963
 20
151.0642083933
 11
155.8423328648
 21
150.3530520511
  0
LINE
  5
213
100
AcDbEntity
  8
0
100
AcDbLine
 62
7
  6
CONTINUOUS
 10
144.2971263135
 20
106.2499063684
 11
144.4834599451
 21
106.9610627106
  0
LINE
  5
214
100
AcDbEntity
  8
0
100
AcDbLine
 62
7
  6
CONTINUOUS
 10
142.0050714446
 20
107.7663399342
 11
141.7378113092
 21
107.0814782072
  0
LINE
  5
215
100
AcDbEntity
  8
0
100
AcDbLine
 62
7
  6
CONTINUOUS
 10
158.3207213654
 20
149.5477748275
 11
158.5879815008
 21
150.2326365546
  0
LINE
  5
216
100
AcDbEntity
  8
0
100
AcDbLine
 62
7
  6
CONTINUOUS
 10
160.5591939997
 20
149.3549962053
 11
160.2299078202
 21
148.6997794491
  0
LINE
  5
217
100
AcDbEntity
  8
0
100
AcDbLine
 62
7
  6
CONTINUOUS
 10
139.7665988103
 20
107.9591185565
 11
140.0967183225
 21
108.6159934859
  0
LINE
  5
218
100
AcDbEntity
  8
0
100
AcDbLine
 62
7
  6
CONTINUOUS
 10
137.8399151063
 20
109.9189594138
 11
137.4361044864
 21
109.3046300653
  0
LINE
  5
219
100
AcDbEntity
  8
0
100
AcDbLine
 62
7
  6
CONTINUOUS
 10
162.4858777039
 20
147.395155348
 11
162.8896883238
 21
148.0094846965
  0
LINE
  5
21A
100
AcDbEntity
  8
0
100
AcDbLine
 62
7
  6
CONTINUOUS
 10
164.6353534112
 20
146.7411847709
 11
164.1758758252
 21
146.1672998407
  0
LINE
  5
21B
100
AcDbEntity
  8
0
100
AcDbLine
 62
7
  6
CONTINUOUS
 10
135.690439399
 20
110.5729299909
 11
136.149916985
 21
111.1468149211
  0
LINE
  5
21C
100
AcDbEntity
  8
0
100
AcDbLine
 62
7
  6
CONTINUOUS
 10
134.2133321829
 20
112.8905236898
 11
133.6906195404
 21
112.3735758603
  0
LINE
  5
21D
100
AcDbEntity
  8
0
100
AcDbLine
 62
7
  6
CONTINUOUS
 10
166.1124606275
 20
144.4235910719
 11
166.6351732701
 21
144.9405389015
  0
LINE
  5
21E
100
AcDbEntity
  8
0
100
AcDbLine
 62
7
  6
CONTINUOUS
 10
168.078997005
 20
143.3370101923
 11
167.5102427204
 21
142.8711967865
  0
LINE
  5
21F
100
AcDbEntity
  8
0
100
AcDbLine
 62
7
  6
CONTINUOUS
 10
132.2467958055
 20
113.9771045694
 11
132.81555009
 21
114.4429179752
  0
LINE
  5
220
100
AcDbEntity
  8
0
100
AcDbLine
 62
7
  6
CONTINUOUS
 10
131.2838217504
 20
116.5511611443
 11
130.6650521359
 21
116.1541879344
  0
LINE
  5
221
100
AcDbEntity
  8
0
100
AcDbLine
 62
7
  6
CONTINUOUS
 10
169.0419710601
 20
140.7629536173
 11
169.6607406746
 21
141.1599268272
  0
LINE
  5
222
100
AcDbEntity
  8
0
100
AcDbLine
 62
7
  6
CONTINUOUS
 10
170.7396210315
 20
139.2912512336
 11
170.0864473399
 21
138.9538676333
  0
LINE
  5
223
100
AcDbEntity
  8
0
100
AcDbLine
 62
7
  6
CONTINUOUS
 10
129.5861717789
 20
118.022863528
 11
130.2393454706
 21
118.3602471283
  0
LINE
  5
224
100
AcDbEntity
  8
0
100
AcDbLine
 62
7
  6
CONTINUOUS
 10
129.1794174719
 20
120.7408843548
 11
128.4916340868
 21
120.4812353988
  0
LINE
  5
225
100
AcDbEntity
  8
0
100
AcDbLine
 62
7
  6
CONTINUOUS
 10
171.1463753383
 20
136.5732304066
 11
171.8341587234
 21
136.8328793627
  0
LINE
  5
226
100
AcDbEntity
  8
0
100
AcDbLine
 62
7
  6
CONTINUOUS
 10
127.8248493564
 20
122.5333877864
 11
128.5338956305
 21
122.727596299
  0
LINE
  5
227
100
AcDbEntity
  8
0
100
AcDbLine
 62
7
  6
CONTINUOUS
 10
172.5009434538
 20
134.7807269751
 11
171.7918971797
 21
134.5865184625
  0
LINE
  5
228
100
AcDbEntity
  8
0
100
AcDbLine
 62
7
  6
CONTINUOUS
 10
172.3337008973
 20
132.0375324487
 11
173.0604386187
 21
132.1485092456
  0
LINE
  5
229
100
AcDbEntity
  8
0
100
AcDbLine
 62
7
  6
CONTINUOUS
 10
127.9920919125
 20
125.2765823128
 11
127.265354191
 21
125.165605516
  0
LINE
  5
22A
100
AcDbEntity
  8
0
100
AcDbLine
 62
7
  6
CONTINUOUS
 10
127.0398067795
 20
127.311545791
 11
127.7737369115
 21
127.3540913718
  0
LINE
  5
22B
100
AcDbEntity
  8
0
100
AcDbLine
 62
7
  6
CONTINUOUS
 10
173.2859860303
 20
130.0025689706
 11
172.5520558982
 21
129.9600233897
  0
LINE
  5
22C
100
AcDbEntity
  8
0
100
AcDbLine
 62
7
  6
CONTINUOUS
 10
172.5520559126
 20
127.354091509
 11
173.2859860447
 21
127.3115459282
  0
LINE
  5
22D
100
AcDbEntity
  8
0
100
AcDbLine
 62
7
  6
CONTINUOUS
 10
127.7737368971
 20
129.9600232525
 11
127.0398067651
 21
130.0025688334
  0
LINE
  5
22E
100
AcDbEntity
  8
0
100
AcDbLine
 62
7
  6
CONTINUOUS
 10
127.2653541766
 20
132.1485091084
 11
127.992091898
 21
132.0375323115
  0
LINE
  5
22F
100
AcDbEntity
  8
0
100
AcDbLine
 62
7
  6
CONTINUOUS
 10
173.0604386331
 20
125.1656056532
 11
172.3337009117
 21
125.27658245
  0
LINE
  5
230
100
AcDbEntity
  8
0
100
AcDbLine
 62
7
  6
CONTINUOUS
 10
171.7918972223
 20
122.7275964302
 11
172.5009434965
 21
122.5333879177
  0
LINE
  5
231
100
AcDbEntity
  8
0
100
AcDbLine
 62
7
  6
CONTINUOUS
 10
128.5338955874
 20
134.5865183313
 11
127.8248493133
 21
134.7807268439
  0
LINE
  5
232
100
AcDbEntity
  8
0
100
AcDbLine
 62
7
  6
CONTINUOUS
 10
128.4916340437
 20
136.8328792315
 11
129.1794174288
 21
136.5732302754
  0
LINE
  5
233
100
AcDbEntity
  8
0
100
AcDbLine
 62
7
  6
CONTINUOUS
 10
171.8341587661
 20
120.4812355301
 11
171.146375381
 21
120.7408844861
  0
LINE
  5
234
100
AcDbEntity
  8
0
100
AcDbLine
 62
7
  6
CONTINUOUS
 10
170.0864474089
 20
118.3602472477
 11
170.7396211005
 21
118.0228636474
  0
LINE
  5
235
100
AcDbEntity
  8
0
100
AcDbLine
 62
7
  6
CONTINUOUS
 10
130.2393454009
 20
138.9538675138
 11
129.5861717092
 21
139.2912511142
  0
LINE
  5
236
100
AcDbEntity
  8
0
100
AcDbLine
 62
7
  6
CONTINUOUS
 10
130.6650520662
 20
141.1599267077
 11
131.2838216807
 21
140.7629534978
  0
LINE
  5
237
100
AcDbEntity
  8
0
100
AcDbLine
 62
7
  6
CONTINUOUS
 10
169.6607407435
 20
116.1541880538
 11
169.041971129
 21
116.5511612637
  0
LINE
  5
238
100
AcDbEntity
  8
0
100
AcDbLine
 62
7
  6
CONTINUOUS
 10
167.5102428128
 20
114.4429180776
 11
168.0789970973
 21
113.9771046718
  0
LINE
  5
239
100
AcDbEntity
  8
0
100
AcDbLine
 62
7
  6
CONTINUOUS
 10
132.815549997
 20
142.871196684
 11
132.2467957125
 21
143.3370100898
  0
LINE
  5
23A
100
AcDbEntity
  8
0
100
AcDbLine
 62
7
  6
CONTINUOUS
 10
133.6906194474
 20
144.940538799
 11
134.2133320899
 21
144.4235909694
  0
LINE
  5
23B
100
AcDbEntity
  8
0
100
AcDbLine
 62
7
  6
CONTINUOUS
 10
166.6351733624
 20
112.3735759626
 11
166.1124607198
 21
112.8905237922
  0
LINE
  5
23C
100
AcDbEntity
  8
0
100
AcDbLine
 62
7
  6
CONTINUOUS
 10
164.1758759368
 20
111.146815002
 11
164.6353535228
 21
110.5729300718
  0
LINE
  5
23D
100
AcDbEntity
  8
0
100
AcDbLine
 62
7
  6
CONTINUOUS
 10
136.149916873
 20
146.1672997596
 11
135.6904392869
 21
146.7411846898
  0
LINE
  5
23E
100
AcDbEntity
  8
0
100
AcDbLine
 62
7
  6
CONTINUOUS
 10
137.4361043743
 20
148.0094846154
 11
137.8399149942
 21
147.3951552669
  0
LINE
  5
23F
100
AcDbEntity
  8
0
100
AcDbLine
 62
7
  6
CONTINUOUS
 10
162.8896884354
 20
109.3046301461
 11
162.4858778155
 21
109.9189594947
  0
LINE
  5
240
100
AcDbEntity
  8
0
100
AcDbLine
 62
7
  6
CONTINUOUS
 10
160.2290746135
 20
108.6159935418
 11
160.5591941257
 21
107.9591186124
  0
LINE
  5
241
100
AcDbEntity
  8
0
100
AcDbLine
 62
7
  6
CONTINUOUS
 10
140.0958848623
 20
148.6997793955
 11
139.766598684
 21
149.3549961491
  0
LINE
  5
242
100
AcDbEntity
  8
0
100
AcDbLine
 62
7
  6
CONTINUOUS
 10
141.7378111829
 20
150.2326364985
 11
142.0050713183
 21
149.5477747714
  0
LINE
  5
243
100
AcDbEntity
  8
0
100
AcDbLine
 62
7
  6
CONTINUOUS
 10
158.5879816268
 20
107.0814782631
 11
158.3207214914
 21
107.7663399901
  0
LINE
  5
244
100
AcDbEntity
  8
0
100
AcDbLine
 62
7
  6
CONTINUOUS
 10
155.8423329997
 20
106.9610627391
 11
156.0286666313
 21
106.249906397
  0
LINE
  5
245
100
AcDbEntity
  8
0
100
AcDbLine
 62
7
  6
CONTINUOUS
 10
144.48345981
 20
150.3530520225
 11
144.2971261785
 21
151.0642083646
  0
LINE
  5
246
100
AcDbEntity
  8
0
100
AcDbLine
 62
7
  6
CONTINUOUS
 10
146.4077346438
 20
151.512832043
 11
146.5267637444
 21
150.7873696812
  0
LINE
  5
247
100
AcDbEntity
  8
0
100
AcDbLine
 62
7
  6
CONTINUOUS
 10
153.918058166
 20
105.8012827186
 11
153.7990290654
 21
106.5267450804
  0
LINE
  5
248
100
AcDbEntity
  8
0
100
AcDbLine
 62
7
  6
CONTINUOUS
 10
153.3628964738
 20
124.706876821
 11
153.3628964738
 21
132.3906259059
  0
ARC
  5
249
100
AcDbEntity
  8
0
100
AcDbCircle
 62
7
  6
CONTINUOUS
 10
150.1403783853
 20
128.5511180956
 40
21.828125
100
AcDbArc
 50
256.5914190112
 51
259.4085045986
  0
ARC
  5
24A
100
AcDbEntity
  8
0
100
AcDbCircle
 62
7
  6
CONTINUOUS
 10
125.2730365228
 20
128.2223534234
 40
0.508
100
AcDbArc
 50
180.7513161
 51
249.3699989947
  0
ARC
  5
24B
100
AcDbEntity
  8
0
100
AcDbCircle
 62
7
  6
CONTINUOUS
 10
125.7095200418
 20
123.8964352657
 40
0.508
100
AcDbArc
 50
122.7414659296
 51
190.7719297793
  0
ARC
  5
24C
100
AcDbEntity
  8
0
100
AcDbCircle
 62
7
  6
CONTINUOUS
 10
125.8834401395
 20
123.0606128714
 40
0.508
100
AcDbArc
 50
192.7371100502
 51
261.2386410812
  0
ARC
  5
24D
100
AcDbEntity
  8
0
100
AcDbCircle
 62
7
  6
CONTINUOUS
 10
127.2170833171
 20
118.8998487016
 40
0.508
100
AcDbArc
 50
134.8548326373
 51
202.8071528913
  0
ARC
  5
24E
100
AcDbEntity
  8
0
100
AcDbCircle
 62
7
  6
CONTINUOUS
 10
127.5545520002
 20
118.1336457874
 40
0.508
100
AcDbArc
 50
204.7343559184
 51
273.1286404499
  0
ARC
  5
24F
100
AcDbEntity
  8
0
100
AcDbCircle
 62
7
  6
CONTINUOUS
 10
129.7354539849
 20
114.3244321403
 40
0.508
100
AcDbArc
 50
146.9524591549
 51
214.8507998701
  0
ARC
  5
250
100
AcDbEntity
  8
0
100
AcDbCircle
 62
7
  6
CONTINUOUS
 10
130.2163207504
 20
113.6576204156
 40
0.508
100
AcDbArc
 50
216.7432062998
 51
285.0333195312
  0
ARC
  5
251
100
AcDbEntity
  8
0
100
AcDbCircle
 62
7
  6
CONTINUOUS
 10
133.1551386311
 20
110.3732778576
 40
0.508
100
AcDbArc
 50
159.038132258
 51
226.9009233617
  0
ARC
  5
252
100
AcDbEntity
  8
0
100
AcDbCircle
 62
7
  6
CONTINUOUS
 10
133.7548080901
 20
109.8301429859
 40
0.508
100
AcDbArc
 50
228.7633090621
 51
296.9497084582
  0
ARC
  5
253
100
AcDbEntity
  8
0
100
AcDbCircle
 62
7
  6
CONTINUOUS
 10
147.9417079421
 20
103.7560511171
 40
0.508
100
AcDbArc
 50
264.8805147026
 51
332.8023018541
  0
ARC
  5
254
100
AcDbEntity
  8
0
100
AcDbCircle
 62
7
  6
CONTINUOUS
 10
147.1582350115
 20
103.8387599936
 40
0.508
100
AcDbArc
 50
195.1955141341
 51
263.0670397691
  0
ARC
  5
255
100
AcDbEntity
  8
0
100
AcDbCircle
 62
7
  6
CONTINUOUS
 10
142.8160186386
 20
104.7656680883
 40
0.508
100
AcDbArc
 50
252.8334580352
 51
320.8285786781
  0
ARC
  5
256
100
AcDbEntity
  8
0
100
AcDbCircle
 62
7
  6
CONTINUOUS
 10
142.0635757427
 20
105.0112776738
 40
0.508
100
AcDbArc
 50
183.1651515906
 51
251.0114942681
  0
ARC
  5
257
100
AcDbEntity
  8
0
100
AcDbCircle
 62
7
  6
CONTINUOUS
 10
138.0167517527
 20
106.8212841293
 40
0.508
100
AcDbArc
 50
240.7938240574
 51
308.8796869258
  0
ARC
  5
258
100
AcDbEntity
  8
0
100
AcDbCircle
 62
7
  6
CONTINUOUS
 10
137.3259240072
 20
107.2221529031
 40
0.508
100
AcDbArc
 50
171.1106846697
 51
238.955292975
  0
ARC
  5
259
100
AcDbEntity
  8
0
100
AcDbCircle
 62
7
  6
CONTINUOUS
 10
127.8024557592
 20
126.8586785185
 40
0.4962445641
100
AcDbArc
 50
4.5914190112
 51
93.3176960915
  0
ARC
  5
25A
100
AcDbEntity
  8
0
100
AcDbCircle
 62
7
  6
CONTINUOUS
 10
127.9171810604
 20
125.7671401908
 40
0.4962445641
100
AcDbArc
 50
278.6823039085
 51
7.4085809888
  0
ARC
  5
25B
100
AcDbEntity
  8
0
100
AcDbCircle
 62
7
  6
CONTINUOUS
 10
128.6649890264
 20
122.2489803893
 40
0.4962445641
100
AcDbArc
 50
16.5914190112
 51
105.3176960915
  0
ARC
  5
25C
100
AcDbEntity
  8
0
100
AcDbCircle
 62
7
  6
CONTINUOUS
 10
129.0041508838
 20
121.2051475243
 40
0.4962445641
100
AcDbArc
 50
290.6823039085
 51
19.4085809888
  0
ARC
  5
25D
100
AcDbEntity
  8
0
100
AcDbCircle
 62
7
  6
CONTINUOUS
 10
130.4670840042
 20
117.9193459742
 40
0.4962445641
100
AcDbArc
 50
28.5914190112
 51
117.3176960915
  0
ARC
  5
25E
100
AcDbEntity
  8
0
100
AcDbCircle
 62
7
  6
CONTINUOUS
 10
131.0158594172
 20
116.9688390769
 40
0.4962445641
100
AcDbArc
 50
302.6823039085
 51
31.4085809888
  0
ARC
  5
25F
100
AcDbEntity
  8
0
100
AcDbCircle
 62
7
  6
CONTINUOUS
 10
133.1299804947
 20
114.0590010728
 40
0.4962445641
100
AcDbArc
 50
40.5914190112
 51
129.3176960915
  0
ARC
  5
260
100
AcDbEntity
  8
0
100
AcDbCircle
 62
7
  6
CONTINUOUS
 10
133.8643853445
 20
113.2433618557
 40
0.4962445641
100
AcDbArc
 50
314.6823039085
 51
43.4085809888
  0
ARC
  5
261
100
AcDbEntity
  8
0
100
AcDbCircle
 62
7
  6
CONTINUOUS
 10
136.5372971434
 20
110.8366612812
 40
0.4962445641
100
AcDbArc
 50
52.5914190112
 51
141.3176960915
  0
ARC
  5
262
100
AcDbEntity
  8
0
100
AcDbCircle
 62
7
  6
CONTINUOUS
 10
149.6141210608
 20
106.2311277897
 40
0.4962445641
100
AcDbArc
 50
88.5914190111
 51
177.3176960915
  0
ARC
  5
263
100
AcDbEntity
  8
0
100
AcDbCircle
 62
7
  6
CONTINUOUS
 10
146.0370668866
 20
106.6070913188
 40
0.4962445641
100
AcDbArc
 50
350.6823039085
 51
79.4119411329
  0
ARC
  5
264
100
AcDbEntity
  8
0
100
AcDbCircle
 62
7
  6
CONTINUOUS
 10
144.9635001794
 20
106.8352849668
 40
0.4962445641
100
AcDbArc
 50
76.5914190112
 51
165.3176960915
  0
ARC
  5
265
100
AcDbEntity
  8
0
100
AcDbCircle
 62
7
  6
CONTINUOUS
 10
141.5427804342
 20
107.9467441723
 40
0.4962445641
100
AcDbArc
 50
338.6823039085
 51
67.4085809888
  0
ARC
  5
266
100
AcDbEntity
  8
0
100
AcDbCircle
 62
7
  6
CONTINUOUS
 10
140.5401178626
 20
108.3931583109
 40
0.4962445641
100
AcDbArc
 50
64.5914190113
 51
153.3176960915
  0
ARC
  5
267
100
AcDbEntity
  8
0
100
AcDbCircle
 62
7
  6
CONTINUOUS
 10
137.4252344138
 20
110.191537092
 40
0.4962445641
100
AcDbArc
 50
326.6823039085
 51
55.4085809888
  0
ARC
  5
268
100
AcDbEntity
  8
0
100
AcDbCircle
 62
7
  6
CONTINUOUS
 10
127.6528494539
 20
139.1746370752
 40
0.508
100
AcDbArc
 50
86.2878953523
 51
154.7303092029
  0
ARC
  5
269
100
AcDbEntity
  8
0
100
AcDbCircle
 62
7
  6
CONTINUOUS
 10
127.2818893674
 20
138.3503419382
 40
0.508
100
AcDbArc
 50
156.811047034
 51
225.6837644425
  0
ARC
  5
26A
100
AcDbEntity
  8
0
100
AcDbCircle
 62
7
  6
CONTINUOUS
 10
125.9352708715
 20
134.261353369
 40
0.508
100
AcDbArc
 50
98.4510889537
 51
166.7326284018
  0
ARC
  5
26B
100
AcDbEntity
  8
0
100
AcDbCircle
 62
7
  6
CONTINUOUS
 10
125.7469604115
 20
133.39372094
 40
0.508
100
AcDbArc
 50
168.776327665
 51
237.5216420184
  0
ARC
  5
26C
100
AcDbEntity
  8
0
100
AcDbCircle
 62
7
  6
CONTINUOUS
 10
125.2768513172
 20
129.0931964582
 40
0.508
100
AcDbArc
 50
110.6058237546
 51
178.746710033
  0
ARC
  5
26D
100
AcDbEntity
  8
0
100
AcDbCircle
 62
7
  6
CONTINUOUS
 10
131.0158593475
 20
140.3452755652
 40
0.4962445641
100
AcDbArc
 50
328.5914190112
 51
57.3176960915
  0
ARC
  5
26E
100
AcDbEntity
  8
0
100
AcDbCircle
 62
7
  6
CONTINUOUS
 10
130.4670839345
 20
139.394768668
 40
0.4962445641
100
AcDbArc
 50
242.6823039085
 51
331.4085809888
  0
ARC
  5
26F
100
AcDbEntity
  8
0
100
AcDbCircle
 62
7
  6
CONTINUOUS
 10
129.0041508407
 20
136.108967106
 40
0.4962445641
100
AcDbArc
 50
340.5914190112
 51
69.3176960915
  0
ARC
  5
270
100
AcDbEntity
  8
0
100
AcDbCircle
 62
7
  6
CONTINUOUS
 10
128.6649889833
 20
135.065134241
 40
0.4962445641
100
AcDbArc
 50
254.6823039085
 51
343.4085809888
  0
ARC
  5
271
100
AcDbEntity
  8
0
100
AcDbCircle
 62
7
  6
CONTINUOUS
 10
127.9171810459
 20
131.5469744336
 40
0.4962445641
100
AcDbArc
 50
352.5914190112
 51
81.3176960915
  0
ARC
  5
272
100
AcDbEntity
  8
0
100
AcDbCircle
 62
7
  6
CONTINUOUS
 10
127.8024557447
 20
130.4554361058
 40
0.4962445641
100
AcDbArc
 50
266.6823039085
 51
355.4085809888
  0
ARC
  5
273
100
AcDbEntity
  8
0
100
AcDbCircle
 62
7
  6
CONTINUOUS
 10
137.3586198273
 20
149.8949960814
 40
0.508
100
AcDbArc
 50
120.9569072362
 51
190.0109540109
  0
ARC
  5
274
100
AcDbEntity
  8
0
100
AcDbCircle
 62
7
  6
CONTINUOUS
 10
133.9108681439
 20
147.4030145196
 40
0.508
100
AcDbArc
 50
61.9906982481
 51
130.7607341828
  0
ARC
  5
275
100
AcDbEntity
  8
0
100
AcDbCircle
 62
7
  6
CONTINUOUS
 10
133.2173432305
 20
146.7822340061
 40
0.508
100
AcDbArc
 50
132.9032973979
 51
201.986355295
  0
ARC
  5
276
100
AcDbEntity
  8
0
100
AcDbCircle
 62
7
  6
CONTINUOUS
 10
130.3514886346
 20
143.6192451651
 40
0.508
100
AcDbArc
 50
74.1298020672
 51
142.7398326334
  0
ARC
  5
277
100
AcDbEntity
  8
0
100
AcDbCircle
 62
7
  6
CONTINUOUS
 10
129.8090165774
 20
142.8781350614
 40
0.508
100
AcDbArc
 50
144.8539797281
 51
213.8433162279
  0
ARC
  5
278
100
AcDbEntity
  8
0
100
AcDbCircle
 62
7
  6
CONTINUOUS
 10
137.4252343017
 20
147.1225775887
 40
0.4962445641
100
AcDbArc
 50
304.5914190112
 51
33.3176960915
  0
ARC
  5
279
100
AcDbEntity
  8
0
100
AcDbCircle
 62
7
  6
CONTINUOUS
 10
136.5372970313
 20
146.4774533995
 40
0.4962445641
100
AcDbArc
 50
218.6823039085
 51
307.4085809888
  0
ARC
  5
27A
100
AcDbEntity
  8
0
100
AcDbCircle
 62
7
  6
CONTINUOUS
 10
133.8643852514
 20
144.0707528035
 40
0.4962445641
100
AcDbArc
 50
316.5914190112
 51
45.3176960915
  0
ARC
  5
27B
100
AcDbEntity
  8
0
100
AcDbCircle
 62
7
  6
CONTINUOUS
 10
133.1299804017
 20
143.2551135864
 40
0.4962445641
100
AcDbArc
 50
230.6823039085
 51
319.4085809888
  0
ARC
  5
27C
100
AcDbEntity
  8
0
100
AcDbCircle
 62
7
  6
CONTINUOUS
 10
150.1628963359
 20
128.7653633981
 40
21.828125
100
AcDbArc
 50
88.5914190112
 51
91.4085809888
  0
ARC
  5
27D
100
AcDbEntity
  8
0
100
AcDbCircle
 62
7
  6
CONTINUOUS
 10
150.1403782502
 20
128.7629966374
 40
21.828125
100
AcDbArc
 50
100.5914190112
 51
103.4085809888
  0
ARC
  5
27E
100
AcDbEntity
  8
0
100
AcDbCircle
 62
7
  6
CONTINUOUS
 10
150.1188443159
 20
128.7559998229
 40
21.828125
100
AcDbArc
 50
112.5914190112
 51
115.4085809888
  0
ARC
  5
27F
100
AcDbEntity
  8
0
100
AcDbCircle
 62
7
  6
CONTINUOUS
 10
150.0992356694
 20
128.7446787488
 40
21.828125
100
AcDbArc
 50
124.5914190112
 51
127.4085809888
  0
ARC
  5
280
100
AcDbEntity
  8
0
100
AcDbCircle
 62
7
  6
CONTINUOUS
 10
150.0824093024
 20
128.7295282006
 40
21.828125
100
AcDbArc
 50
136.5914190112
 51
139.4085809888
  0
ARC
  5
281
100
AcDbEntity
  8
0
100
AcDbCircle
 62
7
  6
CONTINUOUS
 10
150.069100608
 20
128.7112103297
 40
21.828125
100
AcDbArc
 50
148.5914190112
 51
151.4085809888
  0
ARC
  5
282
100
AcDbEntity
  8
0
100
AcDbCircle
 62
7
  6
CONTINUOUS
 10
150.05989124
 20
128.6905257151
 40
21.828125
100
AcDbArc
 50
160.5914190112
 51
163.4085809888
  0
ARC
  5
283
100
AcDbEntity
  8
0
100
AcDbCircle
 62
7
  6
CONTINUOUS
 10
150.055183692
 20
128.6683783737
 40
21.828125
100
AcDbArc
 50
172.5914190112
 51
175.4085809888
  0
ARC
  5
284
100
AcDbEntity
  8
0
100
AcDbCircle
 62
7
  6
CONTINUOUS
 10
150.0551837065
 20
128.6457362506
 40
21.828125
100
AcDbArc
 50
184.5914190112
 51
187.4085809888
  0
ARC
  5
285
100
AcDbEntity
  8
0
100
AcDbCircle
 62
7
  6
CONTINUOUS
 10
150.0598912831
 20
128.6235889152
 40
21.828125
100
AcDbArc
 50
196.5914190112
 51
199.4085809888
  0
ARC
  5
286
100
AcDbEntity
  8
0
100
AcDbCircle
 62
7
  6
CONTINUOUS
 10
150.0691006777
 20
128.6029043124
 40
21.828125
100
AcDbArc
 50
208.5914190112
 51
211.4085809888
  0
ARC
  5
287
100
AcDbEntity
  8
0
100
AcDbCircle
 62
7
  6
CONTINUOUS
 10
150.0824093954
 20
128.5845864587
 40
21.828125
100
AcDbArc
 50
220.5914190112
 51
223.4085809888
  0
ARC
  5
288
100
AcDbEntity
  8
0
100
AcDbCircle
 62
7
  6
CONTINUOUS
 10
150.1188444422
 20
128.5581148828
 40
21.828125
100
AcDbArc
 50
244.5914190112
 51
247.4085809888
  0
ARC
  5
289
100
AcDbEntity
  8
0
100
AcDbCircle
 62
7
  6
CONTINUOUS
 10
150.0992357815
 20
128.5694359319
 40
21.828125
100
AcDbArc
 50
232.5914190112
 51
235.4085809888
  0
ARC
  5
28A
100
AcDbEntity
  8
0
100
AcDbCircle
 62
7
  6
CONTINUOUS
 10
148.0454698703
 20
153.3505288921
 40
0.508
100
AcDbArc
 50
25.7736976849
 51
94.8797363515
  0
ARC
  5
28B
100
AcDbEntity
  8
0
100
AcDbCircle
 62
7
  6
CONTINUOUS
 10
147.1001007104
 20
153.2516043589
 40
0.508
100
AcDbArc
 50
97.0677773264
 51
166.2227950806
  0
ARC
  5
28C
100
AcDbEntity
  8
0
100
AcDbCircle
 62
7
  6
CONTINUOUS
 10
142.9548814261
 20
152.3742877283
 40
0.508
100
AcDbArc
 50
37.808532335
 51
106.8323071497
  0
ARC
  5
28D
100
AcDbEntity
  8
0
100
AcDbCircle
 62
7
  6
CONTINUOUS
 10
142.0537078156
 20
152.0828271538
 40
0.508
100
AcDbArc
 50
109.0125283017
 51
178.1809785481
  0
ARC
  5
28E
100
AcDbEntity
  8
0
100
AcDbCircle
 62
7
  6
CONTINUOUS
 10
138.174115961
 20
150.3634437935
 40
0.508
100
AcDbArc
 50
49.9837786754
 51
118.7920363686
  0
ARC
  5
28F
100
AcDbEntity
  8
0
100
AcDbCircle
 62
7
  6
CONTINUOUS
 10
149.6141209229
 20
151.0829869719
 40
0.4962445641
100
AcDbArc
 50
182.6823039085
 51
271.4085809888
  0
ARC
  5
290
100
AcDbEntity
  8
0
100
AcDbCircle
 62
7
  6
CONTINUOUS
 10
146.0370667515
 20
150.7070234142
 40
0.4962445641
100
AcDbArc
 50
280.5914190112
 51
9.3176960915
  0
ARC
  5
291
100
AcDbEntity
  8
0
100
AcDbCircle
 62
7
  6
CONTINUOUS
 10
144.9635000444
 20
150.4788297662
 40
0.4962445641
100
AcDbArc
 50
194.6823039085
 51
283.4085809888
  0
ARC
  5
292
100
AcDbEntity
  8
0
100
AcDbCircle
 62
7
  6
CONTINUOUS
 10
141.5427803079
 20
149.3673705334
 40
0.4962445641
100
AcDbArc
 50
292.5914190112
 51
21.3176960915
  0
ARC
  5
293
100
AcDbEntity
  8
0
100
AcDbCircle
 62
7
  6
CONTINUOUS
 10
140.5401177363
 20
148.9209563948
 40
0.4962445641
100
AcDbArc
 50
206.6823039085
 51
295.4085809888
  0
ARC
  5
294
100
AcDbEntity
  8
0
100
AcDbCircle
 62
7
  6
CONTINUOUS
 10
153.1675579252
 20
103.8387599923
 40
0.508
100
AcDbArc
 50
276.9329601859
 51
344.8044857267
  0
ARC
  5
295
100
AcDbEntity
  8
0
100
AcDbCircle
 62
7
  6
CONTINUOUS
 10
157.5097743254
 20
104.7656680933
 40
0.508
100
AcDbArc
 50
219.1714215725
 51
287.166542004
  0
ARC
  5
296
100
AcDbEntity
  8
0
100
AcDbCircle
 62
7
  6
CONTINUOUS
 10
158.26221719
 20
105.0112776686
 40
0.508
100
AcDbArc
 50
288.9885056623
 51
356.834848104
  0
ARC
  5
297
100
AcDbEntity
  8
0
100
AcDbCircle
 62
7
  6
CONTINUOUS
 10
162.309041229
 20
106.8212841483
 40
0.508
100
AcDbArc
 50
231.1203134798
 51
299.2061760324
  0
ARC
  5
298
100
AcDbEntity
  8
0
100
AcDbCircle
 62
7
  6
CONTINUOUS
 10
152.3840850056
 20
103.7560511171
 40
0.508
100
AcDbArc
 50
207.1976982015
 51
275.1194852973
  0
ARC
  5
299
100
AcDbEntity
  8
0
100
AcDbCircle
 62
7
  6
CONTINUOUS
 10
154.2887260582
 20
106.6070913474
 40
0.4962445641
100
AcDbArc
 50
100.5880588445
 51
189.3176960915
  0
ARC
  5
29A
100
AcDbEntity
  8
0
100
AcDbCircle
 62
7
  6
CONTINUOUS
 10
155.3622927654
 20
106.8352849954
 40
0.4962445641
100
AcDbArc
 50
14.6823039085
 51
103.4085809888
  0
ARC
  5
29B
100
AcDbEntity
  8
0
100
AcDbCircle
 62
7
  6
CONTINUOUS
 10
158.7830125018
 20
107.9467442282
 40
0.4962445641
100
AcDbArc
 50
112.5914190112
 51
201.3176960915
  0
ARC
  5
29C
100
AcDbEntity
  8
0
100
AcDbCircle
 62
7
  6
CONTINUOUS
 10
159.7856750734
 20
108.3931583668
 40
0.4962445641
100
AcDbArc
 50
26.6823039085
 51
115.4085809888
  0
ARC
  5
29D
100
AcDbEntity
  8
0
100
AcDbCircle
 62
7
  6
CONTINUOUS
 10
150.7116718869
 20
106.2311277897
 40
0.4962445641
100
AcDbArc
 50
2.6823039085
 51
91.4085809888
  0
ARC
  5
29E
100
AcDbEntity
  8
0
100
AcDbCircle
 62
7
  6
CONTINUOUS
 10
150.1628964738
 20
128.5487513635
 40
25.4
100
AcDbArc
 50
275.1194852973
 51
276.9329601859
  0
ARC
  5
29F
100
AcDbEntity
  8
0
100
AcDbCircle
 62
7
  6
CONTINUOUS
 10
150.1628964738
 20
128.5487513635
 40
25.4
100
AcDbArc
 50
287.166542004
 51
288.9885056623
  0
ARC
  5
2A0
100
AcDbEntity
  8
0
100
AcDbCircle
 62
7
  6
CONTINUOUS
 10
150.1628964738
 20
128.5487513635
 40
25.4
100
AcDbArc
 50
299.2061760324
 51
301.0447069377
  0
ARC
  5
2A1
100
AcDbEntity
  8
0
100
AcDbCircle
 62
7
  6
CONTINUOUS
 10
150.1628964738
 20
128.5487513635
 40
25.4
100
AcDbArc
 50
311.2366910877
 51
313.0990765511
  0
ARC
  5
2A2
100
AcDbEntity
  8
0
100
AcDbCircle
 62
7
  6
CONTINUOUS
 10
150.1628964738
 20
128.5487513635
 40
25.4
100
AcDbArc
 50
323.2567939164
 51
325.1492000746
  0
ARC
  5
2A3
100
AcDbEntity
  8
0
100
AcDbCircle
 62
7
  6
CONTINUOUS
 10
150.1628964738
 20
128.5487513635
 40
25.4
100
AcDbArc
 50
335.2656443678
 51
337.1928471266
  0
ARC
  5
2A4
100
AcDbEntity
  8
0
100
AcDbCircle
 62
7
  6
CONTINUOUS
 10
150.1628964738
 20
128.5487513635
 40
25.4
100
AcDbArc
 50
347.2628903065
 51
349.2280703413
  0
ARC
  5
2A5
100
AcDbEntity
  8
0
100
AcDbCircle
 62
7
  6
CONTINUOUS
 10
150.1628964738
 20
128.5487513635
 40
25.4
100
AcDbArc
 50
359.248684325
 51
1.2532901525
  0
ARC
  5
2A6
100
AcDbEntity
  8
0
100
AcDbCircle
 62
7
  6
CONTINUOUS
 10
150.1628964738
 20
128.5487513635
 40
25.4
100
AcDbArc
 50
11.2236728229
 51
13.267371854
  0
ARC
  5
2A7
100
AcDbEntity
  8
0
100
AcDbCircle
 62
7
  6
CONTINUOUS
 10
150.1628964738
 20
128.5487513635
 40
25.4
100
AcDbArc
 50
23.188953509
 51
25.2696911253
  0
ARC
  5
2A8
100
AcDbEntity
  8
0
100
AcDbCircle
 62
7
  6
CONTINUOUS
 10
150.1628964738
 20
128.5487513635
 40
25.4
100
AcDbArc
 50
35.1460208598
 51
37.260167766
  0
ARC
  5
2A9
100
AcDbEntity
  8
0
100
AcDbCircle
 62
7
  6
CONTINUOUS
 10
150.1628964738
 20
128.5487513635
 40
25.4
100
AcDbArc
 50
47.0967032228
 51
49.2392662834
  0
ARC
  5
2AA
100
AcDbEntity
  8
0
100
AcDbCircle
 62
7
  6
CONTINUOUS
 10
150.1628964738
 20
128.5487513635
 40
25.4
100
AcDbArc
 50
59.043093404
 51
61.2146443967
  0
ARC
  5
2AB
100
AcDbEntity
  8
0
100
AcDbCircle
 62
7
  6
CONTINUOUS
 10
150.1628964738
 20
128.5487513635
 40
25.4
100
AcDbArc
 50
70.9874723437
 51
73.1676934252
  0
ARC
  5
2AC
100
AcDbEntity
  8
0
100
AcDbCircle
 62
7
  6
CONTINUOUS
 10
150.1628964738
 20
128.5487513635
 40
25.4
100
AcDbArc
 50
82.9322233096
 51
85.1202642607
  0
ARC
  5
2AD
100
AcDbEntity
  8
0
100
AcDbCircle
 62
7
  6
CONTINUOUS
 10
150.1628964738
 20
128.5487513635
 40
25.4
100
AcDbArc
 50
94.8797363515
 51
97.0677773264
  0
ARC
  5
2AE
100
AcDbEntity
  8
0
100
AcDbCircle
 62
7
  6
CONTINUOUS
 10
150.1628964738
 20
128.5487513635
 40
25.4
100
AcDbArc
 50
106.8323071497
 51
109.0125283017
  0
ARC
  5
2AF
100
AcDbEntity
  8
0
100
AcDbCircle
 62
7
  6
CONTINUOUS
 10
150.1628964738
 20
128.5487513635
 40
25.4
100
AcDbArc
 50
118.7853561196
 51
120.9569072362
  0
ARC
  5
2B0
100
AcDbEntity
  8
0
100
AcDbCircle
 62
7
  6
CONTINUOUS
 10
150.1628964738
 20
128.5487513635
 40
25.4
100
AcDbArc
 50
130.7607341828
 51
132.9032973979
  0
ARC
  5
2B1
100
AcDbEntity
  8
0
100
AcDbCircle
 62
7
  6
CONTINUOUS
 10
150.1628964738
 20
128.5487513635
 40
25.4
100
AcDbArc
 50
142.7398326334
 51
144.8539797281
  0
ARC
  5
2B2
100
AcDbEntity
  8
0
100
AcDbCircle
 62
7
  6
CONTINUOUS
 10
150.1628964738
 20
128.5487513635
 40
25.4
100
AcDbArc
 50
154.7303092029
 51
156.811047034
  0
ARC
  5
2B3
100
AcDbEntity
  8
0
100
AcDbCircle
 62
7
  6
CONTINUOUS
 10
150.1628964738
 20
128.5487513635
 40
25.4
100
AcDbArc
 50
166.7326284018
 51
168.776327665
  0
ARC
  5
2B4
100
AcDbEntity
  8
0
100
AcDbCircle
 62
7
  6
CONTINUOUS
 10
150.1628964738
 20
128.5487513635
 40
25.4
100
AcDbArc
 50
178.746710033
 51
180.7513161
  0
ARC
  5
2B5
100
AcDbEntity
  8
0
100
AcDbCircle
 62
7
  6
CONTINUOUS
 10
150.1628964738
 20
128.5487513635
 40
25.4
100
AcDbArc
 50
190.7719297793
 51
192.7371100502
  0
ARC
  5
2B6
100
AcDbEntity
  8
0
100
AcDbCircle
 62
7
  6
CONTINUOUS
 10
150.1628964738
 20
128.5487513635
 40
25.4
100
AcDbArc
 50
202.8071529374
 51
204.7343559183
  0
ARC
  5
2B7
100
AcDbEntity
  8
0
100
AcDbCircle
 62
7
  6
CONTINUOUS
 10
150.1628964738
 20
128.5487513635
 40
25.4
100
AcDbArc
 50
214.8507999436
 51
216.7432062996
  0
ARC
  5
2B8
100
AcDbEntity
  8
0
100
AcDbCircle
 62
7
  6
CONTINUOUS
 10
150.1628964738
 20
128.5487513635
 40
25.4
100
AcDbArc
 50
226.9009234342
 51
228.763309062
  0
ARC
  5
2B9
100
AcDbEntity
  8
0
100
AcDbCircle
 62
7
  6
CONTINUOUS
 10
150.1628964738
 20
128.5487513635
 40
25.4
100
AcDbArc
 50
263.0670397882
 51
264.8805147026
  0
ARC
  5
2BA
100
AcDbEntity
  8
0
100
AcDbCircle
 62
7
  6
CONTINUOUS
 10
150.1628964738
 20
128.5487513635
 40
25.4
100
AcDbArc
 50
251.0114943004
 51
252.8334580351
  0
ARC
  5
2BB
100
AcDbEntity
  8
0
100
AcDbCircle
 62
7
  6
CONTINUOUS
 10
150.1628964738
 20
128.5487513635
 40
25.4
100
AcDbArc
 50
238.9552930288
 51
240.7938240574
  0
ARC
  5
2BC
100
AcDbEntity
  8
0
100
AcDbCircle
 62
7
  6
CONTINUOUS
 10
150.1854145595
 20
128.5511181241
 40
21.828125
100
AcDbArc
 50
280.5914954019
 51
283.4085809888
  0
ARC
  5
2BD
100
AcDbEntity
  8
0
100
AcDbCircle
 62
7
  6
CONTINUOUS
 10
150.1628964738
 20
128.5487513635
 40
21.828125
100
AcDbArc
 50
268.5914190112
 51
271.4085809888
  0
ARC
  5
2BE
100
AcDbEntity
  8
0
100
AcDbCircle
 62
7
  6
CONTINUOUS
 10
150.1628964738
 20
128.5487513635
 40
5.0
100
AcDbArc
 50
50.2081805004
 51
309.7918194996
  0
ARC
  5
2BF
100
AcDbEntity
  8
0
100
AcDbCircle
 62
7
  6
CONTINUOUS
 10
162.9998689285
 20
107.2221528958
 40
0.508
100
AcDbArc
 50
301.0447069376
 51
8.889314878
  0
ARC
  5
2C0
100
AcDbEntity
  8
0
100
AcDbCircle
 62
7
  6
CONTINUOUS
 10
166.5709849064
 20
109.8301430287
 40
0.508
100
AcDbArc
 50
243.050292051
 51
311.2366910876
  0
ARC
  5
2C1
100
AcDbEntity
  8
0
100
AcDbCircle
 62
7
  6
CONTINUOUS
 10
167.1706543123
 20
110.3732778536
 40
0.508
100
AcDbArc
 50
313.0990765511
 51
20.9618671564
  0
ARC
  5
2C2
100
AcDbEntity
  8
0
100
AcDbCircle
 62
7
  6
CONTINUOUS
 10
170.1094722534
 20
113.6576204907
 40
0.508
100
AcDbArc
 50
254.9666810261
 51
323.2567939163
  0
ARC
  5
2C3
100
AcDbEntity
  8
0
100
AcDbCircle
 62
7
  6
CONTINUOUS
 10
170.5903389677
 20
114.3244321474
 40
0.508
100
AcDbArc
 50
325.1492000745
 51
33.0475401384
  0
ARC
  5
2C4
100
AcDbEntity
  8
0
100
AcDbCircle
 62
7
  6
CONTINUOUS
 10
162.9005585081
 20
110.1915371729
 40
0.4962445641
100
AcDbArc
 50
124.5914190112
 51
213.3176960915
  0
ARC
  5
2C5
100
AcDbEntity
  8
0
100
AcDbCircle
 62
7
  6
CONTINUOUS
 10
163.7884957785
 20
110.8366613621
 40
0.4962445641
100
AcDbArc
 50
38.6823039085
 51
127.4085809888
  0
ARC
  5
2C6
100
AcDbEntity
  8
0
100
AcDbCircle
 62
7
  6
CONTINUOUS
 10
166.4614075583
 20
113.2433619581
 40
0.4962445641
100
AcDbArc
 50
136.5914190112
 51
225.3176960915
  0
ARC
  5
2C7
100
AcDbEntity
  8
0
100
AcDbCircle
 62
7
  6
CONTINUOUS
 10
167.195812408
 20
114.0590011751
 40
0.4962445641
100
AcDbArc
 50
50.6823039085
 51
139.4085809888
  0
ARC
  5
2C8
100
AcDbEntity
  8
0
100
AcDbCircle
 62
7
  6
CONTINUOUS
 10
172.7712409995
 20
118.1336459002
 40
0.508
100
AcDbArc
 50
266.8713601381
 51
335.2656443677
  0
ARC
  5
2C9
100
AcDbEntity
  8
0
100
AcDbCircle
 62
7
  6
CONTINUOUS
 10
173.1087096415
 20
118.8998487277
 40
0.508
100
AcDbArc
 50
337.1928471267
 51
45.1451665644
  0
ARC
  5
2CA
100
AcDbEntity
  8
0
100
AcDbCircle
 62
7
  6
CONTINUOUS
 10
174.4423528424
 20
123.0606130225
 40
0.508
100
AcDbArc
 50
278.7613595816
 51
347.2628903065
  0
ARC
  5
2CB
100
AcDbEntity
  8
0
100
AcDbCircle
 62
7
  6
CONTINUOUS
 10
174.6162729157
 20
123.8964353172
 40
0.508
100
AcDbArc
 50
349.2280703413
 51
57.2585332544
  0
ARC
  5
2CC
100
AcDbEntity
  8
0
100
AcDbCircle
 62
7
  6
CONTINUOUS
 10
175.0527564274
 20
128.222353608
 40
0.508
100
AcDbArc
 50
290.6300017942
 51
359.248684325
  0
ARC
  5
2CD
100
AcDbEntity
  8
BEZUGSACHSEN
100
AcDbCircle
 62
7
  6
CONTINUOUS
 10
172.523337065
 20
126.8586786557
 40
0.4962445641
100
AcDbArc
 50
86.6823039086
 51
175.4085809888
  0
ARC
  5
2CE
100
AcDbEntity
  8
0
100
AcDbCircle
 62
7
  6
CONTINUOUS
 10
169.3099334622
 20
116.9688391963
 40
0.4962445641
100
AcDbArc
 50
148.5914190112
 51
237.3176960915
  0
ARC
  5
2CF
100
AcDbEntity
  8
0
100
AcDbCircle
 62
7
  6
CONTINUOUS
 10
169.8587088752
 20
117.9193460936
 40
0.4962445641
100
AcDbArc
 50
62.6823039085
 51
151.4085809888
  0
ARC
  5
2D0
100
AcDbEntity
  8
0
100
AcDbCircle
 62
7
  6
CONTINUOUS
 10
171.3216419691
 20
121.2051476556
 40
0.4962445641
100
AcDbArc
 50
160.5914190112
 51
249.3176960915
  0
ARC
  5
2D1
100
AcDbEntity
  8
0
100
AcDbCircle
 62
7
  6
CONTINUOUS
 10
171.6608038265
 20
122.2489805206
 40
0.4962445641
100
AcDbArc
 50
74.6823039085
 51
163.4085809888
  0
ARC
  5
2D2
100
AcDbEntity
  8
0
100
AcDbCircle
 62
7
  6
CONTINUOUS
 10
172.4086117638
 20
125.767140328
 40
0.4962445641
100
AcDbArc
 50
172.5914190112
 51
261.3176960915
  0
ARC
  5
2D3
100
AcDbEntity
  8
0
100
AcDbCircle
 62
7
  6
CONTINUOUS
 10
150.2069484938
 20
128.5581149387
 40
21.828125
100
AcDbArc
 50
292.5914190112
 51
295.4085809888
  0
ARC
  5
2D4
100
AcDbEntity
  8
0
100
AcDbCircle
 62
7
  6
CONTINUOUS
 10
150.2265571404
 20
128.5694360127
 40
21.828125
100
AcDbArc
 50
304.5914190112
 51
307.4085809888
  0
ARC
  5
2D5
100
AcDbEntity
  8
0
100
AcDbCircle
 62
7
  6
CONTINUOUS
 10
150.2433835074
 20
128.584586561
 40
21.828125
100
AcDbArc
 50
316.5914190112
 51
319.4085809888
  0
ARC
  5
2D6
100
AcDbEntity
  8
0
100
AcDbCircle
 62
7
  6
CONTINUOUS
 10
150.2566922017
 20
128.6029044319
 40
21.828125
100
AcDbArc
 50
328.5914190112
 51
331.4085809888
  0
ARC
  5
2D7
100
AcDbEntity
  8
0
100
AcDbCircle
 62
7
  6
CONTINUOUS
 10
150.2659015697
 20
128.6235890464
 40
21.828125
100
AcDbArc
 50
340.5914190112
 51
343.4085809888
  0
ARC
  5
2D8
100
AcDbEntity
  8
0
100
AcDbCircle
 62
7
  6
CONTINUOUS
 10
150.2706091177
 20
128.6457363878
 40
21.828125
100
AcDbArc
 50
352.5914190112
 51
355.4085809888
  0
ARC
  5
2D9
100
AcDbEntity
  8
0
100
AcDbCircle
 62
7
  6
CONTINUOUS
 10
150.2706091033
 20
128.6683785109
 40
21.828125
100
AcDbArc
 50
4.5914190112
 51
7.4085809888
  0
ARC
  5
2DA
100
AcDbEntity
  8
0
100
AcDbCircle
 62
7
  6
CONTINUOUS
 10
150.2659015271
 20
128.6905258463
 40
21.828125
100
AcDbArc
 50
16.5914190112
 51
19.4085809888
  0
ARC
  5
2DB
100
AcDbEntity
  8
0
100
AcDbCircle
 62
7
  6
CONTINUOUS
 10
150.2566921328
 20
128.7112104492
 40
21.828125
100
AcDbArc
 50
28.5914190112
 51
31.4085809888
  0
ARC
  5
2DC
100
AcDbEntity
  8
0
100
AcDbCircle
 62
7
  6
CONTINUOUS
 10
150.243383415
 20
128.7295283031
 40
21.828125
100
AcDbArc
 50
40.5914190112
 51
43.4085809888
  0
ARC
  5
2DD
100
AcDbEntity
  8
0
100
AcDbCircle
 62
7
  6
CONTINUOUS
 10
150.2265570288
 20
128.7446788299
 40
21.828125
100
AcDbArc
 50
52.5914190112
 51
55.4085809888
  0
ARC
  5
2DE
100
AcDbEntity
  8
0
100
AcDbCircle
 62
7
  6
CONTINUOUS
 10
150.2069483678
 20
128.755999879
 40
21.828125
100
AcDbArc
 50
64.5914190112
 51
67.4085809888
  0
ARC
  5
2DF
100
AcDbEntity
  8
0
100
AcDbCircle
 62
7
  6
CONTINUOUS
 10
150.1854144246
 20
128.7629966661
 40
21.828125
100
AcDbArc
 50
76.5914190112
 51
79.4085809888
  0
ARC
  5
2E0
100
AcDbEntity
  8
0
100
AcDbCircle
 62
7
  6
CONTINUOUS
 10
162.1516767866
 20
150.3634439034
 40
0.508
100
AcDbArc
 50
61.2079641569
 51
130.0162231424
  0
ARC
  5
2E1
100
AcDbEntity
  8
0
100
AcDbCircle
 62
7
  6
CONTINUOUS
 10
158.272084867
 20
152.0828272451
 40
0.508
100
AcDbArc
 50
1.8190217237
 51
70.9874723437
  0
ARC
  5
2E2
100
AcDbEntity
  8
0
100
AcDbCircle
 62
7
  6
CONTINUOUS
 10
157.3709112826
 20
152.3742878006
 40
0.508
100
AcDbArc
 50
73.1676934252
 51
142.1914672408
  0
ARC
  5
2E3
100
AcDbEntity
  8
0
100
AcDbCircle
 62
7
  6
CONTINUOUS
 10
153.2256919631
 20
153.2516043928
 40
0.508
100
AcDbArc
 50
13.777204961
 51
82.9322233096
  0
ARC
  5
2E4
100
AcDbEntity
  8
0
100
AcDbCircle
 62
7
  6
CONTINUOUS
 10
152.2803228124
 20
153.3505289147
 40
0.508
100
AcDbArc
 50
85.1202642607
 51
154.2263021248
  0
ARC
  5
2E5
100
AcDbEntity
  8
0
100
AcDbCircle
 62
7
  6
CONTINUOUS
 10
159.7856749474
 20
148.9209564509
 40
0.4962445641
100
AcDbArc
 50
244.5914190112
 51
333.3176960915
  0
ARC
  5
2E6
100
AcDbEntity
  8
0
100
AcDbCircle
 62
7
  6
CONTINUOUS
 10
158.7830123758
 20
149.3673705895
 40
0.4962445641
100
AcDbArc
 50
158.6823039085
 51
247.4085809887
  0
ARC
  5
2E7
100
AcDbEntity
  8
0
100
AcDbCircle
 62
7
  6
CONTINUOUS
 10
155.3622926304
 20
150.4788297949
 40
0.4962445641
100
AcDbArc
 50
256.5914190112
 51
345.3176960915
  0
ARC
  5
2E8
100
AcDbEntity
  8
0
100
AcDbCircle
 62
7
  6
CONTINUOUS
 10
154.2887259233
 20
150.7070234429
 40
0.4962445641
100
AcDbArc
 50
170.6823039085
 51
259.4085809888
  0
ARC
  5
2E9
100
AcDbEntity
  8
0
100
AcDbCircle
 62
7
  6
CONTINUOUS
 10
150.7116717489
 20
151.0829869719
 40
0.4962445641
100
AcDbArc
 50
268.5914190112
 51
357.3176960915
  0
ARC
  5
2EA
100
AcDbEntity
  8
0
100
AcDbCircle
 62
7
  6
CONTINUOUS
 10
175.0489416287
 20
129.0931965388
 40
0.508
100
AcDbArc
 50
1.2532901525
 51
69.3941752797
  0
ARC
  5
2EB
100
AcDbEntity
  8
0
100
AcDbCircle
 62
7
  6
CONTINUOUS
 10
174.578832495
 20
133.3937211479
 40
0.508
100
AcDbArc
 50
302.478358858
 51
11.2236728229
  0
ARC
  5
2EC
100
AcDbEntity
  8
0
100
AcDbCircle
 62
7
  6
CONTINUOUS
 10
174.3905220507
 20
134.2613534771
 40
0.508
100
AcDbArc
 50
13.267371854
 51
81.5489099839
  0
ARC
  5
2ED
100
AcDbEntity
  8
0
100
AcDbCircle
 62
7
  6
CONTINUOUS
 10
173.0439034874
 20
138.3503421551
 40
0.508
100
AcDbArc
 50
314.3162364523
 51
23.188953509
  0
ARC
  5
2EE
100
AcDbEntity
  8
0
100
AcDbCircle
 62
7
  6
CONTINUOUS
 10
172.6729434329
 20
139.1746372042
 40
0.508
100
AcDbArc
 50
25.2696911253
 51
93.7121035658
  0
ARC
  5
2EF
100
AcDbEntity
  8
0
100
AcDbCircle
 62
7
  6
CONTINUOUS
 10
172.5233370506
 20
130.455436243
 40
0.4962445641
100
AcDbArc
 50
184.5914190112
 51
273.3176960915
  0
ARC
  5
2F0
100
AcDbEntity
  8
0
100
AcDbCircle
 62
7
  6
CONTINUOUS
 10
172.4086117494
 20
131.5469745708
 40
0.4962445641
100
AcDbArc
 50
98.6823039085
 51
187.4085809888
  0
ARC
  5
2F1
100
AcDbEntity
  8
0
100
AcDbCircle
 62
7
  6
CONTINUOUS
 10
171.6608037839
 20
135.0651343722
 40
0.4962445641
100
AcDbArc
 50
196.5914190112
 51
285.3176960915
  0
ARC
  5
2F2
100
AcDbEntity
  8
0
100
AcDbCircle
 62
7
  6
CONTINUOUS
 10
171.3216419264
 20
136.1089672372
 40
0.4962445641
100
AcDbArc
 50
110.6823039085
 51
199.4085809888
  0
ARC
  5
2F3
100
AcDbEntity
  8
0
100
AcDbCircle
 62
7
  6
CONTINUOUS
 10
169.8587088063
 20
139.3947687874
 40
0.4962445641
100
AcDbArc
 50
208.5914190112
 51
297.3176960915
  0
ARC
  5
2F4
100
AcDbEntity
  8
0
100
AcDbCircle
 62
7
  6
CONTINUOUS
 10
169.3099333932
 20
140.3452756847
 40
0.4962445641
100
AcDbArc
 50
122.6823039085
 51
211.4085809888
  0
ARC
  5
2F5
100
AcDbEntity
  8
0
100
AcDbCircle
 62
7
  6
CONTINUOUS
 10
170.5167762233
 20
142.8781352702
 40
0.508
100
AcDbArc
 50
326.1566846034
 51
35.1460208598
  0
ARC
  5
2F6
100
AcDbEntity
  8
0
100
AcDbCircle
 62
7
  6
CONTINUOUS
 10
169.9743042081
 20
143.6192453032
 40
0.508
100
AcDbArc
 50
37.2601677661
 51
105.8701969206
  0
ARC
  5
2F7
100
AcDbEntity
  8
0
100
AcDbCircle
 62
7
  6
CONTINUOUS
 10
167.1084495196
 20
146.7822341896
 40
0.508
100
AcDbArc
 50
338.0136453955
 51
47.0967032228
  0
ARC
  5
2F8
100
AcDbEntity
  8
0
100
AcDbCircle
 62
7
  6
CONTINUOUS
 10
166.4149246504
 20
147.4030146519
 40
0.508
100
AcDbArc
 50
49.2392662833
 51
118.0093008911
  0
ARC
  5
2F9
100
AcDbEntity
  8
0
100
AcDbCircle
 62
7
  6
CONTINUOUS
 10
162.9671728818
 20
149.8949962245
 40
0.508
100
AcDbArc
 50
349.9890473839
 51
59.043093404
  0
ARC
  5
2FA
100
AcDbEntity
  8
0
100
AcDbCircle
 62
7
  6
CONTINUOUS
 10
167.1958123157
 20
143.255113689
 40
0.4962445641
100
AcDbArc
 50
220.5914190112
 51
309.3176960915
  0
ARC
  5
2FB
100
AcDbEntity
  8
0
100
AcDbCircle
 62
7
  6
CONTINUOUS
 10
166.461407466
 20
144.070752906
 40
0.4962445641
100
AcDbArc
 50
134.6823039085
 51
223.4085809888
  0
ARC
  5
2FC
100
AcDbEntity
  8
0
100
AcDbCircle
 62
7
  6
CONTINUOUS
 10
163.7884956669
 20
146.4774534806
 40
0.4962445641
100
AcDbArc
 50
232.5914190112
 51
321.3176960915
  0
ARC
  5
2FD
100
AcDbEntity
  8
0
100
AcDbCircle
 62
7
  6
CONTINUOUS
 10
162.9005583964
 20
147.1225776698
 40
0.4962445641
100
AcDbArc
 50
146.6823039085
 51
235.4085809888
  0
SPLINE
  5
2FE
100
AcDbEntity
  8
0
100
AcDbSpline
 62
7
  6
CONTINUOUS
 70
0
 71
3
 72
13
 73
9
 74
0
 42
0.0000001
 43
0.0000001
 44
0.0000000001
 40
0.0
 40
0.0
 40
0.0
 40
0.0
 40
0.231438816
 40
0.347158224
 40
0.462877632
 40
0.597158224
 40
0.731438816
 40
1.0
 40
1.0
 40
1.0
 40
1.0
 10
153.6577967306
 20
103.7056062703
 30
0.0
 10
153.6848401455
 20
103.8051733813
 30
0.0
 10
153.7427390829
 20
104.0255177528
 30
0.0
 10
153.8232035363
 20
104.4107040497
 30
0.0
 10
153.8821617364
 20
104.7634890479
 30
0.0
 10
153.9219274065
 20
105.1207437908
 30
0.0
 10
153.9423715906
 20
105.5211648868
 30
0.0
 10
153.9303156987
 20
105.7217103967
 30
0.0
 10
153.918058166
 20
105.8012827186
 30
0.0
  0
SPLINE
  5
2FF
100
AcDbEntity
  8
0
100
AcDbSpline
 62
7
  6
CONTINUOUS
 70
0
 71
3
 72
13
 73
9
 74
0
 42
0.0000001
 43
0.0000001
 44
0.0000000001
 40
0.0
 40
0.0
 40
0.0
 40
0.0
 40
0.2677770455
 40
0.4016655683
 40
0.535554091
 40
0.6516655683
 40
0.7677770455
 40
1.0
 40
1.0
 40
1.0
 40
1.0
 10
156.0286666313
 20
106.249906397
 30
0.0
 10
156.0497714913
 20
106.1724565234
 30
0.0
 10
156.1201009368
 20
105.9848350285
 30
0.0
 10
156.3011334411
 20
105.6281099117
 30
0.0
 10
156.4827158685
 20
105.3177882251
 30
0.0
 10
156.6803707902
 20
105.0188900283
 30
0.0
 10
156.9108028781
 20
104.6993305716
 30
0.0
 10
157.0523480503
 20
104.5228474729
 30
0.0
 10
157.1159424279
 20
104.4447936061
 30
0.0
  0
SPLINE
  5
300
100
AcDbEntity
  8
0
100
AcDbSpline
 62
7
  6
CONTINUOUS
 70
0
 71
3
 72
13
 73
9
 74
0
 42
0.0000001
 43
0.0000001
 44
0.0000000001
 40
0.0
 40
0.0
 40
0.0
 40
0.0
 40
0.2324170076
 40
0.3486255113
 40
0.4648340151
 40
0.5986255113
 40
0.7324170076
 40
1.0
 40
1.0
 40
1.0
 40
1.0
 10
158.7694422517
 20
104.9832288403
 30
0.0
 10
158.7749668955
 20
105.0831345404
 30
0.0
 10
158.7857327001
 20
105.3087064358
 30
0.0
 10
158.7843135732
 20
105.7027836587
 30
0.0
 10
158.7685042038
 20
106.0609293548
 30
0.0
 10
158.7329747274
 20
106.4187238304
 30
0.0
 10
158.6697646414
 20
106.8134867708
 30
0.0
 10
158.6164089907
 20
107.0064738145
 30
0.0
 10
158.5879816268
 20
107.0814782631
 30
0.0
  0
SPLINE
  5
301
100
AcDbEntity
  8
0
100
AcDbSpline
 62
7
  6
CONTINUOUS
 70
0
 71
3
 72
13
 73
9
 74
0
 42
0.0000001
 43
0.0000001
 44
0.0000000001
 40
0.0
 40
0.0
 40
0.0
 40
0.0
 40
0.2663570367
 40
0.399535555
 40
0.5327140733
 40
0.649535555
 40
0.7663570367
 40
1.0
 40
1.0
 40
1.0
 40
1.0
 10
160.5591941257
 20
107.9591186124
 30
0.0
 10
160.5956982477
 20
107.8882197126
 30
0.0
 10
160.7027787363
 20
107.72028246
 30
0.0
 10
160.9525784474
 20
107.410395524
 30
0.0
 10
161.1944695988
 20
107.1445105238
 30
0.0
 10
161.4505075775
 20
106.892423296
 30
0.0
 10
161.7426629378
 20
106.6273099692
 30
0.0
 10
161.9154120595
 20
106.4861068437
 30
0.0
 10
161.9901761812
 20
106.4258235545
 30
0.0
  0
SPLINE
  5
302
100
AcDbEntity
  8
0
100
AcDbSpline
 62
7
  6
CONTINUOUS
 70
0
 71
3
 72
13
 73
9
 74
0
 42
0.0000001
 43
0.0000001
 44
0.0000000001
 40
0.0
 40
0.0
 40
0.0
 40
0.0
 40
0.233862262
 40
0.350793393
 40
0.467724524
 40
0.600793393
 40
0.733862262
 40
1.0
 40
1.0
 40
1.0
 40
1.0
 10
163.5017671884
 20
107.3006521742
 30
0.0
 10
163.4870413836
 20
107.3948040684
 30
0.0
 10
163.4512130746
 20
107.6144853261
 30
0.0
 10
163.3676620521
 20
108.0000600823
 30
0.0
 10
163.2773027388
 20
108.3479223889
 30
0.0
 10
163.1679607422
 20
108.6902681463
 30
0.0
 10
163.0245861125
 20
109.0611670571
 30
0.0
 10
162.9327806694
 20
109.2376541647
 30
0.0
 10
162.8896884354
 20
109.3046301461
 30
0.0
  0
SPLINE
  5
303
100
AcDbEntity
  8
0
100
AcDbSpline
 62
7
  6
CONTINUOUS
 70
0
 71
3
 72
11
 73
7
 74
0
 42
0.0000001
 43
0.0000001
 44
0.0000000001
 40
0.0
 40
0.0
 40
0.0
 40
0.0
 40
0.2365500468
 40
0.4731000935
 40
0.7365500468
 40
1.0
 40
1.0
 40
1.0
 40
1.0
 10
164.6353535228
 20
110.5729300718
 30
0.0
 10
164.7107457675
 20
110.4806310311
 30
0.0
 10
164.9400496747
 20
110.2626055668
 30
0.0
 10
165.4558105148
 20
109.8800620482
 30
0.0
 10
165.9896452417
 20
109.5577502025
 30
0.0
 10
166.2506441361
 20
109.4231237088
 30
0.0
 10
166.3407551239
 20
109.3773094531
 30
0.0
  0
SPLINE
  5
304
100
AcDbEntity
  8
0
100
AcDbSpline
 62
7
  6
CONTINUOUS
 70
0
 71
3
 72
11
 73
7
 74
0
 42
0.0000001
 43
0.0000001
 44
0.0000000001
 40
0.0
 40
0.0
 40
0.0
 40
0.0
 40
0.2634359844
 40
0.5268719687
 40
0.7634359844
 40
1.0
 40
1.0
 40
1.0
 40
1.0
 10
167.6450342268
 20
110.5550130917
 30
0.0
 10
167.6089368395
 20
110.6492373909
 30
0.0
 10
167.5024457189
 20
110.9224111432
 30
0.0
 10
167.2378057331
 20
111.4864443365
 30
0.0
 10
166.9115167693
 20
112.0387120433
 30
0.0
 10
166.718946814
 20
112.2890893634
 30
0.0
 10
166.6351733624
 20
112.3735759626
 30
0.0
  0
SPLINE
  5
305
100
AcDbEntity
  8
0
100
AcDbSpline
 62
7
  6
CONTINUOUS
 70
0
 71
3
 72
13
 73
9
 74
0
 42
0.0000001
 43
0.0000001
 44
0.0000000001
 40
0.0
 40
0.0
 40
0.0
 40
0.0
 40
0.2527325483
 40
0.3790988225
 40
0.5054650967
 40
0.6290988225
 40
0.7527325483
 40
1.0
 40
1.0
 40
1.0
 40
1.0
 10
168.0789970973
 20
113.9771046718
 30
0.0
 10
168.1614900794
 20
113.9108801008
 30
0.0
 10
168.3453784355
 20
113.7942084708
 30
0.0
 10
168.6852519653
 20
113.62473181
 30
0.0
 10
168.9894717062
 20
113.4925184113
 30
0.0
 10
169.2999407381
 20
113.3748406927
 30
0.0
 10
169.6605344749
 20
113.2542196956
 30
0.0
 10
169.8742783118
 20
113.1947847816
 30
0.0
 10
169.9777068517
 20
113.167006713
 30
0.0
  0
SPLINE
  5
306
100
AcDbEntity
  8
0
100
AcDbSpline
 62
7
  6
CONTINUOUS
 70
0
 71
3
 72
13
 73
9
 74
0
 42
0.0000001
 43
0.0000001
 44
0.0000000001
 40
0.0
 40
0.0
 40
0.0
 40
0.0
 40
0.2470588489
 40
0.3705882734
 40
0.4941176978
 40
0.6205882734
 40
0.7470588489
 40
1.0
 40
1.0
 40
1.0
 40
1.0
 10
171.0161539021
 20
114.6014621847
 30
0.0
 10
170.957568316
 20
114.6915124106
 30
0.0
 10
170.8349577028
 20
114.8762990546
 30
0.0
 10
170.6092164103
 20
115.1811823393
 30
0.0
 10
170.4017788883
 20
115.4394062255
 30
0.0
 10
170.1824241214
 20
115.6873199617
 30
0.0
 10
169.9165838043
 20
115.95771416
 30
0.0
 10
169.7490664889
 20
116.0962949408
 30
0.0
 10
169.6607407435
 20
116.1541880538
 30
0.0
  0
SPLINE
  5
307
100
AcDbEntity
  8
0
100
AcDbSpline
 62
7
  6
CONTINUOUS
 70
0
 71
3
 72
13
 73
9
 74
0
 42
0.0000001
 43
0.0000001
 44
0.0000000001
 40
0.0
 40
0.0
 40
0.0
 40
0.0
 40
0.2521050021
 40
0.3781575031
 40
0.5042100041
 40
0.6281575031
 40
0.7521050021
 40
1.0
 40
1.0
 40
1.0
 40
1.0
 10
170.7396211005
 20
118.0228636474
 30
0.0
 10
170.8330665925
 20
117.9757485948
 30
0.0
 10
171.0349430361
 20
117.9005423891
 30
0.0
 10
171.3986154011
 20
117.8060007913
 30
0.0
 10
171.7208451732
 20
117.740018286
 30
0.0
 10
172.0464509433
 20
117.6892970159
 30
0.0
 10
172.4209149076
 20
117.6459777623
 30
0.0
 10
172.6391108922
 20
117.6321097559
 30
0.0
 10
172.7435154087
 20
117.6264030672
 30
0.0
  0
SPLINE
  5
308
100
AcDbEntity
  8
0
100
AcDbSpline
 62
7
  6
CONTINUOUS
 70
0
 71
3
 72
13
 73
9
 74
0
 42
0.0000001
 43
0.0000001
 44
0.0000000001
 40
0.0
 40
0.0
 40
0.0
 40
0.0
 40
0.25100116
 40
0.3765017399
 40
0.5020023199
 40
0.6265017399
 40
0.75100116
 40
1.0
 40
1.0
 40
1.0
 40
1.0
 10
173.4670086269
 20
119.2599679261
 30
0.0
 10
173.3997085565
 20
119.3269278298
 30
0.0
 10
173.2453605507
 20
119.4780264536
 30
0.0
 10
172.9584408327
 20
119.7313998819
 30
0.0
 10
172.7016274667
 20
119.9408109234
 30
0.0
 10
172.4378064538
 20
120.1355546725
 30
0.0
 10
172.1248005625
 20
120.3423429769
 30
0.0
 10
171.9325895519
 20
120.4429720528
 30
0.0
 10
171.8341587661
 20
120.4812355301
 30
0.0
  0
SPLINE
  5
309
100
AcDbEntity
  8
0
100
AcDbSpline
 62
7
  6
CONTINUOUS
 70
0
 71
3
 72
11
 73
7
 74
0
 42
0.0000001
 43
0.0000001
 44
0.0000000001
 40
0.0
 40
0.0
 40
0.0
 40
0.0
 40
0.2843430906
 40
0.5686861812
 40
0.7843430906
 40
1.0
 40
1.0
 40
1.0
 40
1.0
 10
172.5009434965
 20
122.5333879177
 30
0.0
 10
172.6014422636
 20
122.5069153687
 30
0.0
 10
172.8798739739
 20
122.4650250753
 30
0.0
 10
173.4468414496
 20
122.4531266315
 30
0.0
 10
174.0233678913
 20
122.4907910585
 30
0.0
 10
174.3568673028
 20
122.5334405202
 30
0.0
 10
174.519731066
 20
122.5585407065
 30
0.0
  0
SPLINE
  5
30A
100
AcDbEntity
  8
0
100
AcDbSpline
 62
7
  6
CONTINUOUS
 70
0
 71
3
 72
11
 73
7
 74
0
 42
0.0000001
 43
0.0000001
 44
0.0000000001
 40
0.0
 40
0.0
 40
0.0
 40
0.0
 40
0.2156409581
 40
0.4312819161
 40
0.7156409581
 40
1.0
 40
1.0
 40
1.0
 40
1.0
 10
174.8910243126
 20
124.3237240602
 30
0.0
 10
174.7530293125
 20
124.4124563745
 30
0.0
 10
174.4662297001
 20
124.5865957712
 30
0.0
 10
173.9553545723
 20
124.8550511369
 30
0.0
 10
173.4336595455
 20
125.0741473047
 30
0.0
 10
173.1627990089
 20
125.1489483398
 30
0.0
 10
173.0604386331
 20
125.1656056532
 30
0.0
  0
SPLINE
  5
30B
100
AcDbEntity
  8
0
100
AcDbSpline
 62
7
  6
CONTINUOUS
 70
0
 71
3
 72
12
 73
8
 74
0
 42
0.0000001
 43
0.0000001
 44
0.0000000001
 40
0.0
 40
0.0
 40
0.0
 40
0.0
 40
0.2689752902
 40
0.4034629353
 40
0.5379505805
 40
0.7689752902
 40
1.0
 40
1.0
 40
1.0
 40
1.0
 10
173.2859860447
 20
127.3115459282
 30
0.0
 10
173.3884772419
 20
127.3066100836
 30
0.0
 10
173.5990837958
 20
127.3195297259
 30
0.0
 10
173.9611419597
 20
127.3787594366
 30
0.0
 10
174.3509373925
 20
127.4633154417
 30
0.0
 10
174.813454502
 20
127.5956393321
 30
0.0
 10
175.1045065377
 20
127.6990286952
 30
0.0
 10
175.2317409559
 20
127.7469290204
 30
0.0
  0
SPLINE
  5
30C
100
AcDbEntity
  8
0
100
AcDbSpline
 62
7
  6
CONTINUOUS
 70
0
 71
3
 72
12
 73
8
 74
0
 42
0.0000001
 43
0.0000001
 44
0.0000000001
 40
0.0
 40
0.0
 40
0.0
 40
0.0
 40
0.2310344365
 40
0.462068873
 40
0.5965516548
 40
0.7310344365
 40
1.0
 40
1.0
 40
1.0
 40
1.0
 10
175.2277255266
 20
129.5686966101
 30
0.0
 10
175.1009277747
 20
129.6163714638
 30
0.0
 10
174.8104997461
 20
129.7194011125
 30
0.0
 10
174.3487475845
 20
129.8513396914
 30
0.0
 10
173.9597472172
 20
129.9356050975
 30
0.0
 10
173.5984294592
 20
129.9946290665
 30
0.0
 10
173.3882649952
 20
130.0074945943
 30
0.0
 10
173.2859860303
 20
130.0025689706
 30
0.0
  0
SPLINE
  5
30D
100
AcDbEntity
  8
0
100
AcDbSpline
 62
7
  6
CONTINUOUS
 70
0
 71
3
 72
12
 73
8
 74
0
 42
0.0000001
 43
0.0000001
 44
0.0000000001
 40
0.0
 40
0.0
 40
0.0
 40
0.0
 40
0.2689394274
 40
0.4034091411
 40
0.5378788549
 40
0.7689394274
 40
1.0
 40
1.0
 40
1.0
 40
1.0
 10
173.0604386187
 20
132.1485092456
 30
0.0
 10
173.1605059952
 20
132.1647934145
 30
0.0
 10
173.3613798503
 20
132.2203856946
 30
0.0
 10
173.6991384585
 20
132.3514858795
 30
0.0
 10
174.0584419952
 20
132.5125233563
 30
0.0
 10
174.4789055291
 20
132.734671877
 30
0.0
 10
174.7390142855
 20
132.8934979891
 30
0.0
 10
174.8516188498
 20
132.965175229
 30
0.0
  0
SPLINE
  5
30E
100
AcDbEntity
  8
0
100
AcDbSpline
 62
7
  6
CONTINUOUS
 70
0
 71
3
 72
12
 73
8
 74
0
 42
0.0000001
 43
0.0000001
 44
0.0000000001
 40
0.0
 40
0.0
 40
0.0
 40
0.0
 40
0.2310605216
 40
0.4621210433
 40
0.5965907824
 40
0.7310605216
 40
1.0
 40
1.0
 40
1.0
 40
1.0
 10
174.4651803182
 20
134.7638374501
 30
0.0
 10
174.3334528593
 20
134.7834093059
 30
0.0
 10
174.0318713053
 20
134.8224878741
 30
0.0
 10
173.5584465995
 20
134.8541744946
 30
0.0
 10
173.1655974809
 20
134.8550347594
 30
0.0
 10
172.8044916085
 20
134.8373781605
 30
0.0
 10
172.5987911017
 20
134.8065011883
 30
0.0
 10
172.5009434538
 20
134.7807269751
 30
0.0
  0
SPLINE
  5
30F
100
AcDbEntity
  8
0
100
AcDbSpline
 62
7
  6
CONTINUOUS
 70
0
 71
3
 72
13
 73
9
 74
0
 42
0.0000001
 43
0.0000001
 44
0.0000000001
 40
0.0
 40
0.0
 40
0.0
 40
0.0
 40
0.2562362474
 40
0.384354371
 40
0.5124724947
 40
0.634354371
 40
0.7562362474
 40
1.0
 40
1.0
 40
1.0
 40
1.0
 10
171.8341587234
 20
136.8328793627
 30
0.0
 10
171.9279601746
 20
136.8693432562
 30
0.0
 10
172.1112986155
 20
136.9646080943
 30
0.0
 10
172.4110805556
 20
137.1604233021
 30
0.0
 10
172.6591842864
 20
137.3410676156
 30
0.0
 10
172.8986128967
 20
137.5328017635
 30
0.0
 10
173.1683331527
 20
137.7657133414
 30
0.0
 10
173.3233766922
 20
137.9132251081
 30
0.0
 10
173.398801467
 20
137.9868708026
 30
0.0
  0
SPLINE
  5
310
100
AcDbEntity
  8
0
100
AcDbSpline
 62
7
  6
CONTINUOUS
 70
0
 71
3
 72
13
 73
9
 74
0
 42
0.0000001
 43
0.0000001
 44
0.0000000001
 40
0.0
 40
0.0
 40
0.0
 40
0.0
 40
0.2440346248
 40
0.3660519372
 40
0.4880692496
 40
0.6160519372
 40
0.7440346248
 40
1.0
 40
1.0
 40
1.0
 40
1.0
 10
172.6400539312
 20
139.6815714018
 30
0.0
 10
172.5359016223
 20
139.6748140799
 30
0.0
 10
172.3232653576
 20
139.6582907618
 30
0.0
 10
171.9699429059
 20
139.6136421736
 30
0.0
 10
171.6675653547
 20
139.5639853288
 30
0.0
 10
171.3678475168
 20
139.5005128371
 30
0.0
 10
171.0224714001
 20
139.4088781826
 30
0.0
 10
170.8293384075
 20
139.3364865767
 30
0.0
 10
170.7396210315
 20
139.2912512336
 30
0.0
  0
SPLINE
  5
311
100
AcDbEntity
  8
0
100
AcDbSpline
 62
7
  6
CONTINUOUS
 70
0
 71
3
 72
13
 73
9
 74
0
 42
0.0000001
 43
0.0000001
 44
0.0000000001
 40
0.0
 40
0.0
 40
0.0
 40
0.0
 40
0.2556055532
 40
0.3834083298
 40
0.5112111064
 40
0.6334083298
 40
0.7556055532
 40
1.0
 40
1.0
 40
1.0
 40
1.0
 10
169.6607406746
 20
141.1599268272
 30
0.0
 10
169.7441306027
 20
141.2145847586
 30
0.0
 10
169.9021508602
 20
141.3445275399
 30
0.0
 10
170.1520662445
 20
141.5952069032
 30
0.0
 10
170.3551327155
 20
141.8205195954
 30
0.0
 10
170.5479389194
 20
142.0552475445
 30
0.0
 10
170.7621450978
 20
142.3365840811
 30
0.0
 10
170.8818204273
 20
142.5103873133
 30
0.0
 10
170.9387025699
 20
142.5952180419
 30
0.0
  0
SPLINE
  5
312
100
AcDbEntity
  8
0
100
AcDbSpline
 62
7
  6
CONTINUOUS
 70
0
 71
3
 72
13
 73
9
 74
0
 42
0.0000001
 43
0.0000001
 44
0.0000000001
 40
0.0
 40
0.0
 40
0.0
 40
0.0
 40
0.2444754982
 40
0.3667132474
 40
0.4889509965
 40
0.6167132474
 40
0.7444754982
 40
1.0
 40
1.0
 40
1.0
 40
1.0
 10
169.8353870764
 20
144.107882214
 30
0.0
 10
169.7372262102
 20
144.0799755502
 30
0.0
 10
169.535414739
 20
144.0199249702
 30
0.0
 10
169.2024414942
 20
143.9032907526
 30
0.0
 10
168.9202323549
 20
143.7925991266
 30
0.0
 10
168.6437338931
 20
143.6692587075
 30
0.0
 10
168.3287384124
 20
143.509287461
 30
0.0
 10
168.1566225137
 20
143.3993272026
 30
0.0
 10
168.078997005
 20
143.3370101923
 30
0.0
  0
SPLINE
  5
313
100
AcDbEntity
  8
0
100
AcDbSpline
 62
7
  6
CONTINUOUS
 70
0
 71
3
 72
11
 73
7
 74
0
 42
0.0000001
 43
0.0000001
 44
0.0000000001
 40
0.0
 40
0.0
 40
0.0
 40
0.0
 40
0.2844503375
 40
0.5689006749
 40
0.7844503375
 40
1.0
 40
1.0
 40
1.0
 40
1.0
 10
166.6351732701
 20
144.9405389015
 30
0.0
 10
166.7044624509
 20
145.010417928
 30
0.0
 10
166.8710540518
 20
145.2181151428
 30
0.0
 10
167.1508201404
 20
145.6730485599
 30
0.0
 10
167.3949983437
 20
146.1559131086
 30
0.0
 10
167.520799836
 20
146.4466480694
 30
0.0
 10
167.5795042257
 20
146.5920462198
 30
0.0
  0
SPLINE
  5
314
100
AcDbEntity
  8
0
100
AcDbSpline
 62
7
  6
CONTINUOUS
 70
0
 71
3
 72
11
 73
7
 74
0
 42
0.0000001
 43
0.0000001
 44
0.0000000001
 40
0.0
 40
0.0
 40
0.0
 40
0.0
 40
0.2155467029
 40
0.4310934058
 40
0.7155467029
 40
1.0
 40
1.0
 40
1.0
 40
1.0
 10
166.1763602881
 20
147.8515133085
 30
0.0
 10
166.0377602763
 20
147.7777895126
 30
0.0
 10
165.7622578123
 20
147.6224435938
 30
0.0
 10
165.3088942084
 20
147.3297832476
 30
0.0
 10
164.8863433702
 20
147.0044026814
 30
0.0
 10
164.6975187825
 20
146.8172907968
 30
0.0
 10
164.6353534112
 20
146.7411847709
 30
0.0
  0
SPLINE
  5
315
100
AcDbEntity
  8
0
100
AcDbSpline
 62
7
  6
CONTINUOUS
 70
0
 71
3
 72
11
 73
7
 74
0
 42
0.0000001
 43
0.0000001
 44
0.0000000001
 40
0.0
 40
0.0
 40
0.0
 40
0.0
 40
0.2843224767
 40
0.5686449534
 40
0.784139536
 40
1.0
 40
1.0
 40
1.0
 40
1.0
 10
162.8896883238
 20
148.0094846965
 30
0.0
 10
162.9424951042
 20
148.0915594839
 30
0.0
 10
163.0613345453
 20
148.3271149479
 30
0.0
 10
163.2396169075
 20
148.8268048187
 30
0.0
 10
163.3772710564
 20
149.343681282
 30
0.0
 10
163.4398330873
 20
149.6516550728
 30
0.0
 10
163.4674389413
 20
149.8066872352
 30
0.0
  0
SPLINE
  5
316
100
AcDbEntity
  8
0
100
AcDbSpline
 62
7
  6
CONTINUOUS
 70
0
 71
3
 72
11
 73
7
 74
0
 42
0.0000001
 43
0.0000001
 44
0.0000000001
 40
0.0
 40
0.0
 40
0.0
 40
0.0
 40
0.2159260692
 40
0.4314370647
 40
0.7157185324
 40
1.0
 40
1.0
 40
1.0
 40
1.0
 10
161.8250300349
 20
150.7525026118
 30
0.0
 10
161.7048292757
 20
150.6512370312
 30
0.0
 10
161.4697802335
 20
150.4433317605
 30
0.0
 10
161.0913056871
 20
150.0658880641
 30
0.0
 10
160.748113041
 20
149.6619792096
 30
0.0
 10
160.6037975385
 20
149.4416259245
 30
0.0
 10
160.5591939997
 20
149.3549962053
 30
0.0
  0
SPLINE
  5
317
100
AcDbEntity
  8
0
100
AcDbSpline
 62
7
  6
CONTINUOUS
 70
0
 71
3
 72
11
 73
7
 74
0
 42
0.0000001
 43
0.0000001
 44
0.0000000001
 40
0.0
 40
0.0
 40
0.0
 40
0.0
 40
0.2843073644
 40
0.5686147287
 40
0.7843073644
 40
1.0
 40
1.0
 40
1.0
 40
1.0
 10
158.5879815008
 20
150.2326365546
 30
0.0
 10
158.6223108801
 20
150.3232132318
 30
0.0
 10
158.6892091194
 20
150.5763571543
 30
0.0
 10
158.7598239256
 20
151.0997143147
 30
0.0
 10
158.7872891001
 20
151.6316362544
 30
0.0
 10
158.7847708779
 20
151.9433409165
 30
0.0
 10
158.7798288742
 20
152.0989524784
 30
0.0
  0
SPLINE
  5
318
100
AcDbEntity
  8
0
100
AcDbSpline
 62
7
  6
CONTINUOUS
 70
0
 71
3
 72
11
 73
7
 74
0
 42
0.0000001
 43
0.0000001
 44
0.0000000001
 40
0.0
 40
0.0
 40
0.0
 40
0.0
 40
0.2157069747
 40
0.4314139494
 40
0.7157069747
 40
1.0
 40
1.0
 40
1.0
 40
1.0
 10
156.9695589095
 20
152.6857043586
 30
0.0
 10
156.8742345692
 20
152.5628507428
 30
0.0
 10
156.689190446
 20
152.3123755158
 30
0.0
 10
156.3989513696
 20
151.8661006692
 30
0.0
 10
156.1486665271
 20
151.4014514166
 30
0.0
 10
156.0541076796
 20
151.1575715535
 30
0.0
 10
156.0286664963
 20
151.0642083933
 30
0.0
  0
SPLINE
  5
319
100
AcDbEntity
  8
0
100
AcDbSpline
 62
7
  6
CONTINUOUS
 70
0
 71
3
 72
11
 73
7
 74
0
 42
0.0000001
 43
0.0000001
 44
0.0000000001
 40
0.0
 40
0.0
 40
0.0
 40
0.0
 40
0.2842524631
 40
0.5685049261
 40
0.7842524631
 40
1.0
 40
1.0
 40
1.0
 40
1.0
 10
153.918058031
 20
151.5128320717
 30
0.0
 10
153.9327465789
 20
151.6081858341
 30
0.0
 10
153.9455762175
 20
151.8686485122
 30
0.0
 10
153.9061703186
 20
152.3939433674
 30
0.0
 10
153.8228389888
 20
152.9188675348
 30
0.0
 10
153.7559742248
 20
153.2221034405
 30
0.0
 10
153.7190763475
 20
153.3725831066
 30
0.0
  0
SPLINE
  5
31A
100
AcDbEntity
  8
0
100
AcDbSpline
 62
7
  6
CONTINUOUS
 70
0
 71
3
 72
11
 73
7
 74
0
 42
0.0000001
 43
0.0000001
 44
0.0000000001
 40
0.0
 40
0.0
 40
0.0
 40
0.0
 40
0.2157518514
 40
0.4315037028
 40
0.7157518514
 40
1.0
 40
1.0
 40
1.0
 40
1.0
 10
151.822859428
 20
153.5714163339
 30
0.0
 10
151.7555167434
 20
153.4319479452
 30
0.0
 10
151.6271199507
 20
153.1493260945
 30
0.0
 10
151.4365248556
 20
152.6532835669
 30
0.0
 10
151.2888159223
 20
152.1477640541
 30
0.0
 10
151.2472324553
 20
151.8904122078
 30
0.0
 10
151.2417766929
 20
151.7941205606
 30
0.0
  0
SPLINE
  5
31B
100
AcDbEntity
  8
0
100
AcDbSpline
 62
7
  6
CONTINUOUS
 70
0
 71
3
 72
11
 73
7
 74
0
 42
0.0000001
 43
0.0000001
 44
0.0000000001
 40
0.0
 40
0.0
 40
0.0
 40
0.0
 40
0.2842481484
 40
0.5684962968
 40
0.7842481484
 40
1.0
 40
1.0
 40
1.0
 40
1.0
 10
149.0840159789
 20
151.7941205606
 30
0.0
 10
149.0785602166
 20
151.890412206
 30
0.0
 10
149.0369767507
 20
152.1477640477
 30
0.0
 10
148.8892678201
 20
152.6532835548
 30
0.0
 10
148.6986727279
 20
153.1493260778
 30
0.0
 10
148.5702759382
 20
153.4319479239
 30
0.0
 10
148.5029332554
 20
153.5714163098
 30
0.0
  0
SPLINE
  5
31C
100
AcDbEntity
  8
0
100
AcDbSpline
 62
7
  6
CONTINUOUS
 70
0
 71
3
 72
11
 73
7
 74
0
 42
0.0000001
 43
0.0000001
 44
0.0000000001
 40
0.0
 40
0.0
 40
0.0
 40
0.0
 40
0.215747537
 40
0.431495074
 40
0.715747537
 40
1.0
 40
1.0
 40
1.0
 40
1.0
 10
146.6067163259
 20
153.3725830723
 30
0.0
 10
146.5698184489
 20
153.2221034068
 30
0.0
 10
146.5029536853
 20
152.9188675022
 30
0.0
 10
146.4196223559
 20
152.393943336
 30
0.0
 10
146.3802164574
 20
151.8686484821
 30
0.0
 10
146.3930460959
 20
151.608185805
 30
0.0
 10
146.4077346438
 20
151.512832043
 30
0.0
  0
SPLINE
  5
31D
100
AcDbEntity
  8
0
100
AcDbSpline
 62
7
  6
CONTINUOUS
 70
0
 71
3
 72
11
 73
7
 74
0
 42
0.0000001
 43
0.0000001
 44
0.0000000001
 40
0.0
 40
0.0
 40
0.0
 40
0.0
 40
0.2842930247
 40
0.5685860495
 40
0.7842930247
 40
1.0
 40
1.0
 40
1.0
 40
1.0
 10
144.2971261785
 20
151.0642083646
 30
0.0
 10
144.2716849962
 20
151.1575715211
 30
0.0
 10
144.1771261534
 20
151.4014513744
 30
0.0
 10
143.9268413193
 20
151.8661006164
 30
0.0
 10
143.6366022509
 20
152.3123754548
 30
0.0
 10
143.4515581361
 20
152.5628506729
 30
0.0
 10
143.3562338015
 20
152.6857042833
 30
0.0
  0
SPLINE
  5
31E
100
AcDbEntity
  8
0
100
AcDbSpline
 62
7
  6
CONTINUOUS
 70
0
 71
3
 72
11
 73
7
 74
0
 42
0.0000001
 43
0.0000001
 44
0.0000000001
 40
0.0
 40
0.0
 40
0.0
 40
0.0
 40
0.215692636
 40
0.431385272
 40
0.715692636
 40
1.0
 40
1.0
 40
1.0
 40
1.0
 10
141.5459638083
 20
152.0989523847
 30
0.0
 10
141.5410218055
 20
151.9433408278
 30
0.0
 10
141.5385035844
 20
151.6316361734
 30
0.0
 10
141.5659687598
 20
151.0997142409
 30
0.0
 10
141.6365835664
 20
150.5763570891
 30
0.0
 10
141.7034818045
 20
150.3232131734
 30
0.0
 10
141.7378111829
 20
150.2326364985
 30
0.0
  0
SPLINE
  5
31F
100
AcDbEntity
  8
0
100
AcDbSpline
 62
7
  6
CONTINUOUS
 70
0
 71
3
 72
11
 73
7
 74
0
 42
0.0000001
 43
0.0000001
 44
0.0000000001
 40
0.0
 40
0.0
 40
0.0
 40
0.0
 40
0.2842814638
 40
0.5685629275
 40
0.7840739219
 40
1.0
 40
1.0
 40
1.0
 40
1.0
 10
139.766598684
 20
149.3549961491
 30
0.0
 10
139.7219951479
 20
149.4416258631
 30
0.0
 10
139.5776796554
 20
149.6619791351
 30
0.0
 10
139.234487025
 20
150.0658879769
 30
0.0
 10
138.8560124868
 20
150.4433316697
 30
0.0
 10
138.6209634546
 20
150.651236934
 30
0.0
 10
138.5007627004
 20
150.7525025122
 30
0.0
  0
SPLINE
  5
320
100
AcDbEntity
  8
0
100
AcDbSpline
 62
7
  6
CONTINUOUS
 70
0
 71
3
 72
11
 73
7
 74
0
 42
0.0000001
 43
0.0000001
 44
0.0000000001
 40
0.0
 40
0.0
 40
0.0
 40
0.0
 40
0.215860462
 40
0.4313550461
 40
0.7156775231
 40
1.0
 40
1.0
 40
1.0
 40
1.0
 10
136.85835377
 20
149.80668708
 30
0.0
 10
136.8859596234
 20
149.65165493
 30
0.0
 10
136.9485216527
 20
149.3436811561
 30
0.0
 10
137.0861758003
 20
148.8268047074
 30
0.0
 10
137.26445816
 20
148.3271148516
 30
0.0
 10
137.3832975964
 20
148.091559399
 30
0.0
 10
137.4361043743
 20
148.0094846154
 30
0.0
  0
SPLINE
  5
321
100
AcDbEntity
  8
0
100
AcDbSpline
 62
7
  6
CONTINUOUS
 70
0
 71
3
 72
11
 73
7
 74
0
 42
0.0000001
 43
0.0000001
 44
0.0000000001
 40
0.0
 40
0.0
 40
0.0
 40
0.0
 40
0.2844532972
 40
0.5689065945
 40
0.7844532972
 40
1.0
 40
1.0
 40
1.0
 40
1.0
 10
135.6904392869
 20
146.7411846898
 30
0.0
 10
135.6282739189
 20
146.8172907117
 30
0.0
 10
135.4394493434
 20
147.0044025858
 30
0.0
 10
135.0168985293
 20
147.3297831368
 30
0.0
 10
134.5635349757
 20
147.6224434583
 30
0.0
 10
134.2880325301
 20
147.7777893713
 30
0.0
 10
134.149432513
 20
147.8515131727
 30
0.0
  0
SPLINE
  5
322
100
AcDbEntity
  8
0
100
AcDbSpline
 62
7
  6
CONTINUOUS
 70
0
 71
3
 72
11
 73
7
 74
0
 42
0.0000001
 43
0.0000001
 44
0.0000000001
 40
0.0
 40
0.0
 40
0.0
 40
0.0
 40
0.2155496624
 40
0.4310993249
 40
0.7155496624
 40
1.0
 40
1.0
 40
1.0
 40
1.0
 10
132.7462885267
 20
146.5920460305
 30
0.0
 10
132.8049929202
 20
146.4466478759
 30
0.0
 10
132.9307944094
 20
146.1559129302
 30
0.0
 10
133.1749725974
 20
145.6730484232
 30
0.0
 10
133.4547386759
 20
145.2181150269
 30
0.0
 10
133.6213302695
 20
145.0104178225
 30
0.0
 10
133.6906194474
 20
144.940538799
 30
0.0
  0
SPLINE
  5
323
100
AcDbEntity
  8
0
100
AcDbSpline
 62
7
  6
CONTINUOUS
 70
0
 71
3
 72
13
 73
9
 74
0
 42
0.0000001
 43
0.0000001
 44
0.0000000001
 40
0.0
 40
0.0
 40
0.0
 40
0.0
 40
0.2555245034
 40
0.3832867551
 40
0.5110490068
 40
0.6332867551
 40
0.7555245034
 40
1.0
 40
1.0
 40
1.0
 40
1.0
 10
132.2467957125
 20
143.3370100898
 30
0.0
 10
132.1691702085
 20
143.3993270962
 30
0.0
 10
131.9970543212
 20
143.5092873481
 30
0.0
 10
131.6820588643
 20
143.6692585854
 30
0.0
 10
131.4055604271
 20
143.7925989966
 30
0.0
 10
131.1233513138
 20
143.903290616
 30
0.0
 10
130.7903780972
 20
144.0199248286
 30
0.0
 10
130.5885666385
 20
144.0799754085
 30
0.0
 10
130.4904057748
 20
144.1078820734
 30
0.0
  0
SPLINE
  5
324
100
AcDbEntity
  8
0
100
AcDbSpline
 62
7
  6
CONTINUOUS
 70
0
 71
3
 72
13
 73
9
 74
0
 42
0.0000001
 43
0.0000001
 44
0.0000000001
 40
0.0
 40
0.0
 40
0.0
 40
0.0
 40
0.2443944466
 40
0.3665916699
 40
0.4887888931
 40
0.6165916699
 40
0.7443944466
 40
1.0
 40
1.0
 40
1.0
 40
1.0
 10
129.3870902349
 20
142.595217827
 30
0.0
 10
129.4439723757
 20
142.5103871038
 30
0.0
 10
129.563647701
 20
142.3365838823
 30
0.0
 10
129.7778538696
 20
142.0552473646
 30
0.0
 10
129.9706600626
 20
141.820519433
 30
0.0
 10
130.1737265217
 20
141.5952067575
 30
0.0
 10
130.4236418926
 20
141.3445274105
 30
0.0
 10
130.5816621423
 20
141.2145846364
 30
0.0
 10
130.6650520662
 20
141.1599267077
 30
0.0
  0
SPLINE
  5
325
100
AcDbEntity
  8
0
100
AcDbSpline
 62
7
  6
CONTINUOUS
 70
0
 71
3
 72
13
 73
9
 74
0
 42
0.0000001
 43
0.0000001
 44
0.0000000001
 40
0.0
 40
0.0
 40
0.0
 40
0.0
 40
0.2559653708
 40
0.3839480562
 40
0.5119307416
 40
0.6339480562
 40
0.7559653708
 40
1.0
 40
1.0
 40
1.0
 40
1.0
 10
129.5861717092
 20
139.2912511142
 30
0.0
 10
129.4964543389
 20
139.3364864544
 30
0.0
 10
129.3033213592
 20
139.4088780561
 30
0.0
 10
128.9579452704
 20
139.500512706
 30
0.0
 10
128.6582274579
 20
139.5639851956
 30
0.0
 10
128.355849927
 20
139.6136420402
 30
0.0
 10
128.0025274929
 20
139.6582906302
 30
0.0
 10
127.7898912489
 20
139.67481395
 30
0.0
 10
127.6857389652
 20
139.6815712722
 30
0.0
  0
SPLINE
  5
326
100
AcDbEntity
  8
0
100
AcDbSpline
 62
7
  6
CONTINUOUS
 70
0
 71
3
 72
13
 73
9
 74
0
 42
0.0000001
 43
0.0000001
 44
0.0000000001
 40
0.0
 40
0.0
 40
0.0
 40
0.0
 40
0.2437637571
 40
0.3656456356
 40
0.4875275142
 40
0.6156456356
 40
0.7437637571
 40
1.0
 40
1.0
 40
1.0
 40
1.0
 10
126.9269913935
 20
137.9868705802
 30
0.0
 10
127.0024161523
 20
137.9132249036
 30
0.0
 10
127.1574596805
 20
137.7657131513
 30
0.0
 10
127.4271799292
 20
137.532801584
 30
0.0
 10
127.6666085289
 20
137.3410674478
 30
0.0
 10
127.9147122445
 20
137.1604231486
 30
0.0
 10
128.2144941662
 20
136.9646079556
 30
0.0
 10
128.3978325973
 20
136.8693431231
 30
0.0
 10
128.4916340437
 20
136.8328792315
 30
0.0
  0
SPLINE
  5
327
100
AcDbEntity
  8
0
100
AcDbSpline
 62
7
  6
CONTINUOUS
 70
0
 71
3
 72
12
 73
8
 74
0
 42
0.0000001
 43
0.0000001
 44
0.0000000001
 40
0.0
 40
0.0
 40
0.0
 40
0.0
 40
0.2689394784
 40
0.4034092176
 40
0.5378789568
 40
0.7689394784
 40
1.0
 40
1.0
 40
1.0
 40
1.0
 10
127.8248493133
 20
134.7807268439
 30
0.0
 10
127.7270016728
 20
134.8065010552
 30
0.0
 10
127.5213011821
 20
134.8373780259
 30
0.0
 10
127.1601953396
 20
134.8550346264
 30
0.0
 10
126.7673462556
 20
134.8541743659
 30
0.0
 10
126.2939215908
 20
134.8224877547
 30
0.0
 10
125.9923400614
 20
134.783409195
 30
0.0
 10
125.8606126133
 20
134.7638373433
 30
0.0
  0
SPLINE
  5
328
100
AcDbEntity
  8
0
100
AcDbSpline
 62
7
  6
CONTINUOUS
 70
0
 71
3
 72
12
 73
8
 74
0
 42
0.0000001
 43
0.0000001
 44
0.0000000001
 40
0.0
 40
0.0
 40
0.0
 40
0.0
 40
0.2310605726
 40
0.4621211452
 40
0.5965908589
 40
0.7310605726
 40
1.0
 40
1.0
 40
1.0
 40
1.0
 10
125.4741740632
 20
132.9651750169
 30
0.0
 10
125.5867786197
 20
132.8934977844
 30
0.0
 10
125.84688736
 20
132.7346716873
 30
0.0
 10
126.2673508666
 20
132.5125231871
 30
0.0
 10
126.6266543785
 20
132.3514857254
 30
0.0
 10
126.9644129643
 20
132.220385552
 30
0.0
 10
127.1652868065
 20
132.1647932763
 30
0.0
 10
127.2653541766
 20
132.1485091084
 30
0.0
  0
SPLINE
  5
329
100
AcDbEntity
  8
0
100
AcDbSpline
 62
7
  6
CONTINUOUS
 70
0
 71
3
 72
12
 73
8
 74
0
 42
0.0000001
 43
0.0000001
 44
0.0000000001
 40
0.0
 40
0.0
 40
0.0
 40
0.0
 40
0.2689655631
 40
0.4034483447
 40
0.5379311262
 40
0.7689655631
 40
1.0
 40
1.0
 40
1.0
 40
1.0
 10
127.0398067651
 20
130.0025688334
 30
0.0
 10
126.9375278085
 20
130.0074944567
 30
0.0
 10
126.7273633618
 20
129.994628931
 30
0.0
 10
126.3660456331
 20
129.9356049701
 30
0.0
 10
125.9770452973
 20
129.8513395756
 30
0.0
 10
125.5152931666
 20
129.719401012
 30
0.0
 10
125.2248651625
 20
129.6163713775
 30
0.0
 10
125.0980674273
 20
129.5686965326
 30
0.0
  0
SPLINE
  5
32A
100
AcDbEntity
  8
0
100
AcDbSpline
 62
7
  6
CONTINUOUS
 70
0
 71
3
 72
12
 73
8
 74
0
 42
0.0000001
 43
0.0000001
 44
0.0000000001
 40
0.0
 40
0.0
 40
0.0
 40
0.0
 40
0.2310247101
 40
0.4620494202
 40
0.5965370652
 40
0.7310247101
 40
1.0
 40
1.0
 40
1.0
 40
1.0
 10
125.0940520008
 20
127.7469288333
 30
0.0
 10
125.2212864041
 20
127.6990285157
 30
0.0
 10
125.5123384191
 20
127.5956391645
 30
0.0
 10
125.9748555039
 20
127.4633152867
 30
0.0
 10
126.3646509106
 20
127.3787592912
 30
0.0
 10
126.7267090501
 20
127.3195295872
 30
0.0
 10
126.9373155893
 20
127.3066099468
 30
0.0
 10
127.0398067795
 20
127.311545791
 30
0.0
  0
SPLINE
  5
32B
100
AcDbEntity
  8
0
100
AcDbSpline
 62
7
  6
CONTINUOUS
 70
0
 71
3
 72
11
 73
7
 74
0
 42
0.0000001
 43
0.0000001
 44
0.0000000001
 40
0.0
 40
0.0
 40
0.0
 40
0.0
 40
0.2843590426
 40
0.5687180852
 40
0.7843590426
 40
1.0
 40
1.0
 40
1.0
 40
1.0
 10
127.265354191
 20
125.165605516
 30
0.0
 10
127.162993824
 20
125.148948204
 30
0.0
 10
126.8921333091
 20
125.0741471761
 30
0.0
 10
126.3704383266
 20
124.8550510341
 30
0.0
 10
125.8595632194
 20
124.586595687
 30
0.0
 10
125.5727636281
 20
124.4124563094
 30
0.0
 10
125.434768651
 20
124.3237240126
 30
0.0
  0
SPLINE
  5
32C
100
AcDbEntity
  8
0
100
AcDbSpline
 62
7
  6
CONTINUOUS
 70
0
 71
3
 72
11
 73
7
 74
0
 42
0.0000001
 43
0.0000001
 44
0.0000000001
 40
0.0
 40
0.0
 40
0.0
 40
0.0
 40
0.2156569089
 40
0.4313138178
 40
0.7156569089
 40
1.0
 40
1.0
 40
1.0
 40
1.0
 10
125.8060619217
 20
122.5585405545
 30
0.0
 10
125.9689256609
 20
122.5334403738
 30
0.0
 10
126.3024250502
 20
122.4907909193
 30
0.0
 10
126.8789514715
 20
122.4531264993
 30
0.0
 10
127.4459189049
 20
122.4650249478
 30
0.0
 10
127.7243505964
 20
122.5069152393
 30
0.0
 10
127.8248493564
 20
122.5333877864
 30
0.0
  0
SPLINE
  5
32D
100
AcDbEntity
  8
0
100
AcDbSpline
 62
7
  6
CONTINUOUS
 70
0
 71
3
 72
13
 73
9
 74
0
 42
0.0000001
 43
0.0000001
 44
0.0000000001
 40
0.0
 40
0.0
 40
0.0
 40
0.0
 40
0.2489988473
 40
0.3734982709
 40
0.4979976946
 40
0.6234982709
 40
0.7489988473
 40
1.0
 40
1.0
 40
1.0
 40
1.0
 10
128.4916340868
 20
120.4812353988
 30
0.0
 10
128.3932033063
 20
120.4429719236
 30
0.0
 10
128.2009923069
 20
120.3423428542
 30
0.0
 10
127.8879864375
 20
120.1355545675
 30
0.0
 10
127.624165453
 20
119.9408108433
 30
0.0
 10
127.3673521159
 20
119.7313998308
 30
0.0
 10
127.0804324204
 20
119.4780264313
 30
0.0
 10
126.9260844138
 20
119.3269278138
 30
0.0
 10
126.8587843368
 20
119.259967905
 30
0.0
  0
SPLINE
  5
32E
100
AcDbEntity
  8
0
100
AcDbSpline
 62
7
  6
CONTINUOUS
 70
0
 71
3
 72
13
 73
9
 74
0
 42
0.0000001
 43
0.0000001
 44
0.0000000001
 40
0.0
 40
0.0
 40
0.0
 40
0.0
 40
0.2478949675
 40
0.3718424512
 40
0.4957899349
 40
0.6218424512
 40
0.7478949675
 40
1.0
 40
1.0
 40
1.0
 40
1.0
 10
127.5822775962
 20
117.6264029547
 30
0.0
 10
127.6866821784
 20
117.6321096479
 30
0.0
 10
127.9048781894
 20
117.6459776635
 30
0.0
 10
128.279342091
 20
117.6892969185
 30
0.0
 10
128.6049477954
 20
117.7400181835
 30
0.0
 10
128.9271775184
 20
117.8060006817
 30
0.0
 10
129.2908498613
 20
117.9005422763
 30
0.0
 10
129.4927262924
 20
117.9757484781
 30
0.0
 10
129.5861717789
 20
118.022863528
 30
0.0
  0
SPLINE
  5
32F
100
AcDbEntity
  8
0
100
AcDbSpline
 62
7
  6
CONTINUOUS
 70
0
 71
3
 72
13
 73
9
 74
0
 42
0.0000001
 43
0.0000001
 44
0.0000000001
 40
0.0
 40
0.0
 40
0.0
 40
0.0
 40
0.2529411608
 40
0.3794117413
 40
0.5058823217
 40
0.6294117413
 40
0.7529411608
 40
1.0
 40
1.0
 40
1.0
 40
1.0
 10
130.6650521359
 20
116.1541879344
 30
0.0
 10
130.5767263969
 20
116.0962948255
 30
0.0
 10
130.4092090932
 20
115.9577140556
 30
0.0
 10
130.1433687919
 20
115.6873198778
 30
0.0
 10
129.9240140427
 20
115.4394061664
 30
0.0
 10
129.7165765396
 20
115.1811823108
 30
0.0
 10
129.4908352652
 20
114.876299061
 30
0.0
 10
129.3682246499
 20
114.6915124218
 30
0.0
 10
129.3096390539
 20
114.6014621829
 30
0.0
  0
SPLINE
  5
330
100
AcDbEntity
  8
0
100
AcDbSpline
 62
7
  6
CONTINUOUS
 70
0
 71
3
 72
13
 73
9
 74
0
 42
0.0000001
 43
0.0000001
 44
0.0000000001
 40
0.0
 40
0.0
 40
0.0
 40
0.0
 40
0.2472674452
 40
0.3709011678
 40
0.4945348904
 40
0.6209011678
 40
0.7472674452
 40
1.0
 40
1.0
 40
1.0
 40
1.0
 10
130.3480861569
 20
113.1670066391
 30
0.0
 10
130.4515147062
 20
113.1947847112
 30
0.0
 10
130.6652585386
 20
113.2542196273
 30
0.0
 10
131.0258522466
 20
113.3748406198
 30
0.0
 10
131.3363212531
 20
113.4925183323
 30
0.0
 10
131.6405409724
 20
113.6247317244
 30
0.0
 10
131.9804144831
 20
113.7942083783
 30
0.0
 10
132.1643028281
 20
113.9108800023
 30
0.0
 10
132.2467958055
 20
113.9771045694
 30
0.0
  0
SPLINE
  5
331
100
AcDbEntity
  8
0
100
AcDbSpline
 62
7
  6
CONTINUOUS
 70
0
 71
3
 72
11
 73
7
 74
0
 42
0.0000001
 43
0.0000001
 44
0.0000000001
 40
0.0
 40
0.0
 40
0.0
 40
0.0
 40
0.2365640168
 40
0.4731280336
 40
0.7365640168
 40
1.0
 40
1.0
 40
1.0
 40
1.0
 10
133.6906195404
 20
112.3735758603
 30
0.0
 10
133.606846095
 20
112.2890892673
 30
0.0
 10
133.4142761527
 20
112.0387119677
 30
0.0
 10
133.0879872008
 20
111.4864442916
 30
0.0
 10
132.8233472203
 20
110.9224111256
 30
0.0
 10
132.7168561044
 20
110.6492373931
 30
0.0
 10
132.6807587185
 20
110.5550131005
 30
0.0
  0
SPLINE
  5
332
100
AcDbEntity
  8
0
100
AcDbSpline
 62
7
  6
CONTINUOUS
 70
0
 71
3
 72
11
 73
7
 74
0
 42
0.0000001
 43
0.0000001
 44
0.0000000001
 40
0.0
 40
0.0
 40
0.0
 40
0.0
 40
0.2634499532
 40
0.5268999063
 40
0.7634499532
 40
1.0
 40
1.0
 40
1.0
 40
1.0
 10
133.9850378767
 20
109.3773094123
 30
0.0
 10
134.0751488576
 20
109.4231236653
 30
0.0
 10
134.3361477359
 20
109.5577501529
 30
0.0
 10
134.8699824456
 20
109.8800619937
 30
0.0
 10
135.3857432658
 20
110.2626055025
 30
0.0
 10
135.6150471585
 20
110.4806309554
 30
0.0
 10
135.690439399
 20
110.5729299909
 30
0.0
  0
SPLINE
  5
333
100
AcDbEntity
  8
0
100
AcDbSpline
 62
7
  6
CONTINUOUS
 70
0
 71
3
 72
13
 73
9
 74
0
 42
0.0000001
 43
0.0000001
 44
0.0000000001
 40
0.0
 40
0.0
 40
0.0
 40
0.0
 40
0.2686347886
 40
0.4029521829
 40
0.5372695772
 40
0.6529521829
 40
0.7686347886
 40
1.0
 40
1.0
 40
1.0
 40
1.0
 10
151.2417768308
 20
105.519994201
 30
0.0
 10
151.2463323621
 20
105.439591211
 30
0.0
 10
151.2762462878
 20
105.2408747433
 30
0.0
 10
151.3795264022
 20
104.8533781557
 30
0.0
 10
151.492706679
 20
104.5122109704
 30
0.0
 10
151.6237068627
 20
104.1794557076
 30
0.0
 10
151.7824799886
 20
103.8194611033
 30
0.0
 10
151.8849887668
 20
103.6158372267
 30
0.0
 10
151.9322521597
 20
103.5238635219
 30
0.0
  0
SPLINE
  5
334
100
AcDbEntity
  8
0
100
AcDbSpline
 62
7
  6
CONTINUOUS
 70
0
 71
3
 72
13
 73
9
 74
0
 42
0.0000001
 43
0.0000001
 44
0.0000000001
 40
0.0
 40
0.0
 40
0.0
 40
0.0
 40
0.2313652114
 40
0.3470478171
 40
0.4627304228
 40
0.5970478171
 40
0.7313652114
 40
1.0
 40
1.0
 40
1.0
 40
1.0
 10
148.3935407883
 20
103.5238635223
 30
0.0
 10
148.440804181
 20
103.6158372269
 30
0.0
 10
148.5433129591
 20
103.8194611033
 30
0.0
 10
148.702086085
 20
104.1794557075
 30
0.0
 10
148.8330862687
 20
104.5122109704
 30
0.0
 10
148.9462665455
 20
104.8533781558
 30
0.0
 10
149.04954666
 20
105.2408747434
 30
0.0
 10
149.0794605856
 20
105.439591211
 30
0.0
 10
149.0840161169
 20
105.519994201
 30
0.0
  0
SPLINE
  5
335
100
AcDbEntity
  8
0
100
AcDbSpline
 62
7
  6
CONTINUOUS
 70
0
 71
3
 72
13
 73
9
 74
0
 42
0.0000001
 43
0.0000001
 44
0.0000000001
 40
0.0
 40
0.0
 40
0.0
 40
0.0
 40
0.2685611781
 40
0.4028417672
 40
0.5371223562
 40
0.6528417672
 40
0.7685611781
 40
1.0
 40
1.0
 40
1.0
 40
1.0
 10
146.4077347788
 20
105.80128269
 30
0.0
 10
146.3954772464
 20
105.7217103698
 30
0.0
 10
146.3834213544
 20
105.5211648637
 30
0.0
 10
146.4038655374
 20
105.1207437742
 30
0.0
 10
146.4436312067
 20
104.7634890305
 30
0.0
 10
146.5025894072
 20
104.4107040272
 30
0.0
 10
146.5830538612
 20
104.0255177264
 30
0.0
 10
146.640952796
 20
103.8051733662
 30
0.0
 10
146.6679962058
 20
103.7056062728
 30
0.0
  0
SPLINE
  5
336
100
AcDbEntity
  8
0
100
AcDbSpline
 62
7
  6
CONTINUOUS
 70
0
 71
3
 72
13
 73
9
 74
0
 42
0.0000001
 43
0.0000001
 44
0.0000000001
 40
0.0
 40
0.0
 40
0.0
 40
0.0
 40
0.2322229597
 40
0.3483344396
 40
0.4644459195
 40
0.5983344396
 40
0.7322229597
 40
1.0
 40
1.0
 40
1.0
 40
1.0
 10
143.2098505374
 20
104.4447936028
 30
0.0
 10
143.273444904
 20
104.5228474565
 30
0.0
 10
143.4149900695
 20
104.6993305465
 30
0.0
 10
143.6454221588
 20
105.0188900056
 30
0.0
 10
143.8430770824
 20
105.3177882063
 30
0.0
 10
144.0246595093
 20
105.6281098936
 30
0.0
 10
144.20569201
 20
105.984835005
 30
0.0
 10
144.276021454
 20
106.1724564965
 30
0.0
 10
144.2971263135
 20
106.2499063684
 30
0.0
  0
SPLINE
  5
337
100
AcDbEntity
  8
0
100
AcDbSpline
 62
7
  6
CONTINUOUS
 70
0
 71
3
 72
13
 73
9
 74
0
 42
0.0000001
 43
0.0000001
 44
0.0000000001
 40
0.0
 40
0.0
 40
0.0
 40
0.0
 40
0.2675829822
 40
0.4013744733
 40
0.5351659644
 40
0.6513744733
 40
0.7675829822
 40
1.0
 40
1.0
 40
1.0
 40
1.0
 10
141.7378113092
 20
107.0814782072
 30
0.0
 10
141.7093839465
 20
107.0064737618
 30
0.0
 10
141.6560282973
 20
106.8134867256
 30
0.0
 10
141.5928182118
 20
106.4187237981
 30
0.0
 10
141.5572887338
 20
106.0609293223
 30
0.0
 10
141.5414793629
 20
105.7027836183
 30
0.0
 10
141.5400602354
 20
105.30870639
 30
0.0
 10
141.5508260394
 20
105.0831345158
 30
0.0
 10
141.5563506808
 20
104.9832288482
 30
0.0
  0
SPLINE
  5
338
100
AcDbEntity
  8
0
100
AcDbSpline
 62
7
  6
CONTINUOUS
 70
0
 71
3
 72
13
 73
9
 74
0
 42
0.0000001
 43
0.0000001
 44
0.0000000001
 40
0.0
 40
0.0
 40
0.0
 40
0.0
 40
0.2336429705
 40
0.3504644558
 40
0.4672859411
 40
0.6004644558
 40
0.7336429705
 40
1.0
 40
1.0
 40
1.0
 40
1.0
 10
138.3356168034
 20
106.4258235377
 30
0.0
 10
138.4103809057
 20
106.4861068119
 30
0.0
 10
138.5831300138
 20
106.6273099265
 30
0.0
 10
138.875285374
 20
106.8924232545
 30
0.0
 10
139.1313233544
 20
107.1445104857
 30
0.0
 10
139.3732145034
 20
107.4103954855
 30
0.0
 10
139.6230142057
 20
107.7202824129
 30
0.0
 10
139.7300946899
 20
107.8882196596
 30
0.0
 10
139.7665988103
 20
107.9591185565
 30
0.0
  0
SPLINE
  5
339
100
AcDbEntity
  8
0
100
AcDbSpline
 62
7
  6
CONTINUOUS
 70
0
 71
3
 72
13
 73
9
 74
0
 42
0.0000001
 43
0.0000001
 44
0.0000000001
 40
0.0
 40
0.0
 40
0.0
 40
0.0
 40
0.266137728
 40
0.3992065919
 40
0.5322754559
 40
0.6492065919
 40
0.766137728
 40
1.0
 40
1.0
 40
1.0
 40
1.0
 10
137.4361044864
 20
109.3046300653
 30
0.0
 10
137.3930122551
 20
109.237654088
 30
0.0
 10
137.3012068164
 20
109.0611669907
 30
0.0
 10
137.1578321913
 20
108.6902680979
 30
0.0
 10
137.0484901937
 20
108.3479223448
 30
0.0
 10
136.9581308774
 20
108.000060035
 30
0.0
 10
136.8745798533
 20
107.6144852792
 30
0.0
 10
136.8387515481
 20
107.3948040458
 30
0.0
 10
136.8240257479
 20
107.3006521854
 30
0.0
  0
ENDSEC
  0
SECTION
  2
OBJECTS
  0
DICTIONARY
  5
C
100
AcDbDictionary
280
0
281
1
  3
ACAD_GROUP
350
D
  3
ACAD_MLINESTYLE
350
17
  3
ACAD_LAYOUT
350
1A
  3
ACAD_PLOTSETTINGS
350
19
  3
ACAD_PLOTSTYLENAME
350
E
  0
DICTIONARY
  5
D
102
{ACAD_REACTORS
330
C
102
}
100
AcDbDictionary
280
0
281
1
  0
ACDBDICTIONARYWDFLT
  5
E
102
{ACAD_REACTORS
330
C
102
}
100
AcDbDictionary
281
1
  3
Normal
350
F
100
AcDbDictionaryWithDefault
340
F
  0
DICTIONARY
  5
17
102
{ACAD_REACTORS
330
C
102
}
100
AcDbDictionary
280
0
281
1
  3
Standard
350
18
  0
DICTIONARY
  5
19
102
{ACAD_REACTORS
330
C
102
}
100
AcDbDictionary
281
1
  0
DICTIONARY
  5
1A
102
{ACAD_REACTORS
330
C
102
}
100
AcDbDictionary
281
1
  3
Model
350
33A
  3
Layout1
350
33B
  0
ACDBPLACEHOLDER
  5
F
102
{ACAD_REACTORS
330
E
102
}
  0
MLINESTYLE
  5
18
102
{ACAD_REACTORS
330
17
102
}
100
AcDbMlineStyle
  2
STANDARD
 70
0
  3

 62
256
 51
90.0
 52
90.0
 71
2
 49
0.5
 62
256
  6
BYLAYER
 49
-0.5
 62
256
  6
BYLAYER
  0
LAYOUT
  5
33A
102
{ACAD_REACTORS
330
1A
102
}
100
AcDbPlotSettings
  1

  2
none_device
  4
ISO_A3_(420.00_x_297.00_MM)
  6

 40
0.0
 41
0.0
 42
0.0
 43
0.0
 44
420.0
 45
297.0
 46
0.0
 47
0.0
 48
0.0
 49
0.0
140
0.0
141
0.0
142
1.0
143
1.0
 70
1024
 72
1
 73
0
 74
0
  7

 75
0
147
1.0
148
0.0
149
0.0
100
AcDbLayout
  1
Model
 70
0
 71
0
 10
0.0
 20
0.0
 11
420.0
 21
297.0
 12
0.0
 22
0.0
 32
0.0
 14
0.0
 24
0.0
 34
0.0
 15
0.0
 25
0.0
 35
0.0
146
0.0
 13
0.0
 23
0.0
 33
0.0
 16
1.0
 26
0.0
 36
0.0
 17
0.0
 27
1.0
 37
0.0
 76
0
330
205
345
0
346
0
  0
LAYOUT
  5
33B
102
{ACAD_REACTORS
330
1A
102
}
100
AcDbPlotSettings
  1

  2
none_device
  4
ISO_A3_(420.00_x_297.00_MM)
  6

 40
0.0
 41
0.0
 42
0.0
 43
0.0
 44
420.0
 45
297.0
 46
0.0
 47
0.0
 48
0.0
 49
0.0
140
0.0
141
0.0
142
1.0
143
1.0
 70
0
 72
1
 73
0
 74
0
  7

 75
0
147
1.0
148
0.0
149
0.0
100
AcDbLayout
  1
Layout1
 70
0
 71
1
 10
0.0
 20
0.0
 11
420.0
 21
297.0
 12
0.0
 22
0.0
 32
0.0
 14
0.0
 24
0.0
 34
0.0
 15
0.0
 25
0.0
 35
0.0
146
0.0
 13
0.0
 23
0.0
 33
0.0
 16
1.0
 26
0.0
 36
0.0
 17
0.0
 27
1.0
 37
0.0
 76
0
330
206
345
0
346
0
  0
ENDSEC
  0
EOF
