999
DXF file: S:\Scientific_Service_Unit\Machine Shops\Research Groups\Miba Machine Shop\Emergency Ventilator\DXF\finger_-_thickness_assumed.dxf
999
Pro/ENGINEER 2019224 by Parametric Technology Corporation
  0
SECTION
  2
HEADER
  9
$ACADVER
  1
AC1032
  9
$DWGCODEPAGE
  3
ANSI_1252
  9
$EXTMAX
 10
420.0
 20
297.0
 30
0.0
  9
$EXTMIN
 10
0.0
 20
0.0
 30
0.0
  9
$LIMMIN
 10
0.0
 20
0.0
  9
$LIMMAX
 10
420.0
 20
297.0
  9
$VIEWCTR
 10
210.0
 20
148.5
  9
$VIEWSIZE
 40
297.0
  9
$CLAYER
  8
0
  9
$LTSCALE
 40
23.1
  9
$CELTYPE
  6
BYLAYER
  9
$DIMSCALE
 40
1.0
  9
$DIMASZ
 40
3.5
  9
$DIMEXO
 40
1.5
  9
$DIMDLI
 40
15.96
  9
$DIMEXE
 40
1.5
  9
$DIMCEN
 40
3.78
  9
$DIMLFAC
 40
1.0
  9
$DIMBLK
  1
_FILLED
  9
$DIMALT
 70
0
  9
$DIMALTF
 40
0.0393700787
  9
$DIMTXT
 40
3.5
  9
$DIMTOL
 70
1
  9
$DIMLIM
 70
0
  9
$DIMTFAC
 40
1.0
  9
$DIMTP
 40
0.005
  9
$DIMTM
 40
0.005
  9
$DIMGAP
 40
0.625
  9
$DIMDSEP
 70
46
  9
$AUNITS
 70
0
  9
$PDMODE
 70
3
  9
$PDSIZE
 40
0.3125
  9
$HANDSEED
  5
2F6
  9
$TILEMODE
 70
1
  9
$MEASUREMENT
 70
1
  9
$INSUNITS
 70
4
  0
ENDSEC
  0
SECTION
  2
CLASSES
  0
CLASS
  1
ACDBDICTIONARYWDFLT
  2
AcDbDictionaryWithDefault
  3
AutoCAD 2000
 90
0
 91
1
280
0
281
0
  0
CLASS
  1
ACDBPLACEHOLDER
  2
AcDbPlaceHolder
  3
AutoCAD 2000
 90
0
 91
1
280
0
281
0
  0
CLASS
  1
LAYOUT
  2
AcDbLayout
  3
AutoCAD 2000
 90
0
 91
0
280
0
281
0
  0
ENDSEC
  0
SECTION
  2
TABLES
  0
TABLE
  2
VPORT
  5
8
100
AcDbSymbolTable
 70
2
  0
VPORT
  5
1F4
100
AcDbSymbolTableRecord
100
AcDbViewportTableRecord
  2
*ACTIVE
 70
0
 10
0.0
 20
0.0
 11
1.0
 21
1.0
 12
210.0
 22
148.5
 13
0.0
 23
0.0
 14
1.0
 24
1.0
 15
0.0
 25
0.0
 16
0.0
 26
0.0
 36
1.0
 17
0.0
 27
0.0
 37
0.0
 40
297.0
 41
1.4141414141
 42
50.0
 43
0.0
 44
0.0
 50
0.0
 51
0.0
 71
0
 72
100
 73
1
 74
1
 75
0
 76
0
 77
0
 78
0
  0
ENDTAB
  0
TABLE
  2
LTYPE
  5
5
100
AcDbSymbolTable
 70
6
  0
LTYPE
  5
14
100
AcDbSymbolTableRecord
100
AcDbLinetypeTableRecord
  2
BYBLOCK
 70
0
  3

 72
65
 73
0
 40
0.0
  0
LTYPE
  5
15
100
AcDbSymbolTableRecord
100
AcDbLinetypeTableRecord
  2
BYLAYER
 70
0
  3

 72
65
 73
0
 40
0.0
  0
LTYPE
  5
16
100
AcDbSymbolTableRecord
100
AcDbLinetypeTableRecord
  2
CONTINUOUS
 70
64
  3
Solid line
 72
65
 73
0
 40
0.0
  0
LTYPE
  5
1F5
100
AcDbSymbolTableRecord
100
AcDbLinetypeTableRecord
  2
CENTER
 70
64
  3
____ _ ____ _ ____ _ ____ _ ____ _ ____ _ ____
 72
65
 73
4
 40
0.6
 49
0.375
 74
0
 49
-0.075
 74
0
 49
0.075
 74
0
 49
-0.075
 74
0
  0
LTYPE
  5
1F6
100
AcDbSymbolTableRecord
100
AcDbLinetypeTableRecord
  2
HIDDEN
 70
64
  3
- - - - - - - - - - - - - - - - - - - -
 72
65
 73
2
 40
0.2
 49
0.1
 74
0
 49
-0.1
 74
0
  0
LTYPE
  5
1F7
100
AcDbSymbolTableRecord
100
AcDbLinetypeTableRecord
  2
PHANTOM
 70
64
  3
_____ _ _ _____ _ _ _____ _ _ _____
 72
65
 73
6
 40
0.8
 49
0.45
 74
0
 49
-0.05
 74
0
 49
0.1
 74
0
 49
-0.05
 74
0
 49
0.1
 74
0
 49
-0.05
 74
0
  0
LTYPE
  5
1F8
100
AcDbSymbolTableRecord
100
AcDbLinetypeTableRecord
  2
DOT
 70
64
  3
. . . . . . . . . . . . . . . . . . . .
 72
65
 73
2
 40
0.2
 49
0.1
 74
0
 49
-0.1
 74
0
  0
LTYPE
  5
1F9
100
AcDbSymbolTableRecord
100
AcDbLinetypeTableRecord
  2
DASHED
 70
64
  3
- - - - - - - - - - - - - - - - - - - -
 72
65
 73
2
 40
0.2
 49
0.1
 74
0
 49
-0.1
 74
0
  0
ENDTAB
  0
TABLE
  2
LAYER
  5
2
100
AcDbSymbolTable
 70
36
  0
LAYER
  5
10
100
AcDbSymbolTableRecord
100
AcDbLayerTableRecord
  2
0
 70
0
 62
7
  6
CONTINUOUS
370
-3
390
F
  0
LAYER
  5
1FA
100
AcDbSymbolTableRecord
100
AcDbLayerTableRecord
  2
DEFAULT_1
 70
0
 62
7
  6
CENTER
370
-3
390
F
  0
LAYER
  5
1FB
100
AcDbSymbolTableRecord
100
AcDbLayerTableRecord
  2
DEFAULT_2
 70
0
 62
8
  6
HIDDEN
370
-3
390
F
  0
LAYER
  5
1FC
100
AcDbSymbolTableRecord
100
AcDbLayerTableRecord
  2
DEFAULT_3
 70
0
 62
7
  6
PHANTOM
370
-3
390
F
  0
LAYER
  5
1FD
100
AcDbSymbolTableRecord
100
AcDbLayerTableRecord
  2
KOORDSYS
 70
0
 62
7
  6
CONTINUOUS
370
-3
390
F
  0
LAYER
  5
1FE
100
AcDbSymbolTableRecord
100
AcDbLayerTableRecord
  2
NONE
 70
0
 62
7
  6
CONTINUOUS
370
-3
390
F
  0
LAYER
  5
1FF
100
AcDbSymbolTableRecord
100
AcDbLayerTableRecord
  2
RUNDUNGEN
 70
0
 62
7
  6
CONTINUOUS
370
-3
390
F
  0
ENDTAB
  0
TABLE
  2
STYLE
  5
3
100
AcDbSymbolTable
 70
1
  0
STYLE
  5
11
100
AcDbSymbolTableRecord
100
AcDbTextStyleTableRecord
  2
STANDARD
 70
0
 40
0.0
 41
0.7
 50
0.0
 71
0
 42
0.2
  3
txt
  4

  0
STYLE
  5
200
100
AcDbSymbolTableRecord
100
AcDbTextStyleTableRecord
  2
TEXTSTYLE_1
 70
0
 40
0.0
 41
0.8
 50
0.0
 71
0
 42
0.2
  3
gdt
  4

  0
ENDTAB
  0
TABLE
  2
VIEW
  5
6
100
AcDbSymbolTable
 70
0
  0
ENDTAB
  0
TABLE
  2
UCS
  5
7
100
AcDbSymbolTable
 70
0
  0
ENDTAB
  0
TABLE
  2
APPID
  5
9
100
AcDbSymbolTable
 70
1
  0
APPID
  5
201
100
AcDbSymbolTableRecord
100
AcDbRegAppTableRecord
  2
ACAD
 70
0
  0
ENDTAB
  0
TABLE
  2
BLOCK_RECORD
  5
1
100
AcDbSymbolTable
 70
0
  0
BLOCK_RECORD
  5
202
100
AcDbSymbolTableRecord
100
AcDbBlockTableRecord
  2
*Model_Space
  0
BLOCK_RECORD
  5
203
100
AcDbSymbolTableRecord
100
AcDbBlockTableRecord
  2
*Paper_Space
  0
BLOCK_RECORD
  5
204
100
AcDbSymbolTableRecord
100
AcDbBlockTableRecord
  2
_FILLED
  0
ENDTAB
  0
TABLE
  2
DIMSTYLE
  5
A
100
AcDbSymbolTable
 70
1
100
AcDbDimStyleTable
 71
0
  0
DIMSTYLE
105
205
100
AcDbSymbolTableRecord
100
AcDbDimStyleTableRecord
  2
STANDARD
 70
0
  3

  4

 40
1.0
 41
3.5
 42
1.5
 43
0.38
 44
1.5
 45
0.0
 46
0.0
 47
0.005
 48
0.005
140
3.5
141
0.09
142
0.0
143
25.4
144
1.0
145
0.0
146
1.0
147
0.625
 71
1.0
 72
0.0
 73
0
 74
0
 75
0
 76
0
 77
1
 78
8
 79
2
170
0
171
2
172
0
173
0
174
0
175
0
176
0
177
0
178
5
270
2
179
3
271
3
272
3
273
2
274
2
275
0
280
0
281
0
282
0
283
1
284
8
285
0
286
0
287
3
288
0
340
11
278
46
341
204
342
204
343
204
344
204
  0
ENDTAB
  0
ENDSEC
  0
SECTION
  2
BLOCKS
  0
BLOCK
  5
20
100
AcDbEntity
  8
0
100
AcDbBlockBegin
  2
*Model_Space
 70
0
 10
0.0
 20
0.0
 30
0.0
  3
*Model_Space
  1

  0
ENDBLK
  5
21
100
AcDbEntity
  8
0
100
AcDbBlockEnd
  0
BLOCK
  5
1C
100
AcDbEntity
  8
0
100
AcDbBlockBegin
  2
*Paper_Space
 70
0
 10
0.0
 20
0.0
 30
0.0
  3
*Paper_Space
  1

  0
ENDBLK
  5
1D
100
AcDbEntity
  8
0
100
AcDbBlockEnd
  0
BLOCK
  5
206
100
AcDbEntity
  8
0
100
AcDbBlockBegin
  2
_FILLED
 70
64
 10
0.0
 20
0.0
  3
_FILLED
  1

  0
SOLID
  5
207
100
AcDbEntity
  8
0
  6
BYBLOCK
 62
0
100
AcDbTrace
 10
0.0
 20
0.0
 11
-1.0
 21
0.125
 12
-1.0
 22
-0.125
 13
-1.0
 23
-0.125
  0
ENDBLK
  5
208
100
AcDbEntity
  8
0
  6
BYBLOCK
 62
0
100
AcDbBlockEnd
  0
ENDSEC
  0
SECTION
  2
ENTITIES
  0
LINE
  5
209
100
AcDbEntity
  8
0
100
AcDbLine
 62
7
  6
CONTINUOUS
 10
84.6794045567
 20
118.8471850371
 11
84.7068690594
 21
118.5706266281
  0
LINE
  5
20A
100
AcDbEntity
  8
0
100
AcDbLine
 62
7
  6
CONTINUOUS
 10
82.7071300884
 20
118.4267910513
 11
82.6947325115
 21
118.7044331817
  0
LINE
  5
20B
100
AcDbEntity
  8
0
100
AcDbLine
 62
7
  6
CONTINUOUS
 10
79.8844549167
 20
118.6865773532
 11
79.8755863407
 21
118.4088001028
  0
LINE
  5
20C
100
AcDbEntity
  8
0
100
AcDbLine
 62
7
  6
CONTINUOUS
 10
77.8981291598
 20
118.8040984445
 11
77.8741811037
 21
118.5272133725
  0
LINE
  5
20D
100
AcDbEntity
  8
0
100
AcDbLine
 62
7
  6
CONTINUOUS
 10
75.0645133153
 20
118.8789669626
 11
75.1095632261
 21
119.1532102086
  0
LINE
  5
20E
100
AcDbEntity
  8
0
100
AcDbLine
 62
7
  6
CONTINUOUS
 10
73.155570342
 20
119.5289934283
 11
73.0956864107
 21
119.2576029951
  0
LINE
  5
20F
100
AcDbEntity
  8
0
100
AcDbLine
 62
7
  6
CONTINUOUS
 10
70.3559687764
 20
119.9730825222
 11
70.4364292056
 21
120.239099386
  0
LINE
  5
210
100
AcDbEntity
  8
0
100
AcDbLine
 62
7
  6
CONTINUOUS
 10
92.2061017186
 20
120.1119130127
 11
92.1222675078
 21
120.3768859879
  0
LINE
  5
211
100
AcDbEntity
  8
0
100
AcDbLine
 62
7
  6
CONTINUOUS
 10
89.4123692284
 20
119.6322852184
 11
89.4756968846
 21
119.3616776419
  0
LINE
  5
212
100
AcDbEntity
  8
0
100
AcDbLine
 62
7
  6
CONTINUOUS
 10
87.5118402678
 20
118.9580542851
 11
87.4630488005
 21
119.2331711443
  0
LINE
  5
213
100
AcDbEntity
  8
0
100
AcDbLine
 62
7
  6
CONTINUOUS
 10
68.4534073785
 20
120.60546275
 11
68.5482025543
 21
120.8667149789
  0
LINE
  5
214
100
AcDbEntity
  8
0
100
AcDbLine
 62
7
  6
CONTINUOUS
 10
65.945011474
 20
121.9256650203
 11
65.8305172267
 21
121.6724261611
  0
LINE
  5
215
100
AcDbEntity
  8
0
100
AcDbLine
 62
7
  6
CONTINUOUS
 10
64.0267746884
 20
122.5477303831
 11
64.154859137
 21
122.7943743097
  0
LINE
  5
216
100
AcDbEntity
  8
0
100
AcDbLine
 62
7
  6
CONTINUOUS
 10
61.7129458193
 20
124.1853164004
 11
61.5655903967
 21
123.9479216385
  0
LINE
  5
217
100
AcDbEntity
  8
0
100
AcDbLine
 62
7
  6
CONTINUOUS
 10
75.6037604761
 20
158.307593675
 11
77.2663316843
 21
160.2278689098
  0
LINE
  5
218
100
AcDbEntity
  8
0
100
AcDbLine
 62
7
  6
CONTINUOUS
 10
96.7095943259
 20
121.8686243914
 11
96.5918914149
 21
122.1203879257
  0
LINE
  5
219
100
AcDbEntity
  8
0
100
AcDbLine
 62
7
  6
CONTINUOUS
 10
94.0023665941
 20
121.0284446153
 11
94.1004738499
 21
120.768418042
  0
LINE
  5
21A
100
AcDbEntity
  8
0
100
AcDbLine
 62
7
  6
CONTINUOUS
 10
59.891529253
 20
125.0511731568
 11
60.050711414
 21
125.278988635
  0
LINE
  5
21B
100
AcDbEntity
  8
0
100
AcDbLine
 62
7
  6
CONTINUOUS
 10
57.8102983573
 20
126.9756112584
 11
57.6341623671
 21
126.7606345959
  0
LINE
  5
21C
100
AcDbEntity
  8
0
100
AcDbLine
 62
7
  6
CONTINUOUS
 10
56.1184262683
 20
128.0729564711
 11
56.3059824907
 21
128.278045515
  0
LINE
  5
21D
100
AcDbEntity
  8
RUNDUNGEN
100
AcDbLine
 62
7
  6
CONTINUOUS
 10
49.4431135985
 20
187.5061792418
 11
56.7199584019
 21
180.0957474007
  0
LINE
  5
21E
100
AcDbEntity
  8
0
100
AcDbLine
 62
7
  6
CONTINUOUS
 10
54.306190169
 20
130.2525858819
 11
54.1035009614
 21
130.0624387346
  0
LINE
  5
21F
100
AcDbEntity
  8
0
100
AcDbLine
 62
7
  6
CONTINUOUS
 10
52.7720245724
 20
131.5613767757
 11
52.9847457173
 21
131.7402302548
  0
LINE
  5
220
100
AcDbEntity
  8
0
100
AcDbLine
 62
7
  6
CONTINUOUS
 10
52.6870626821
 20
178.5917099571
 11
52.4720860196
 21
178.7678459474
  0
LINE
  5
221
100
AcDbEntity
  8
0
100
AcDbLine
 62
7
  6
CONTINUOUS
 10
76.6924983921
 20
157.3649661392
 11
75.6037604761
 21
158.307593675
  0
LINE
  5
222
100
AcDbEntity
  8
0
100
AcDbLine
 62
7
  6
CONTINUOUS
 10
77.2663316843
 20
160.2278689098
 11
78.3550696004
 21
159.285241374
  0
LINE
  5
223
100
AcDbEntity
  8
0
100
AcDbLine
 62
7
  6
CONTINUOUS
 10
97.8559276461
 20
123.7536809282
 11
106.3008211407
 21
153.7358416215
  0
LINE
  5
224
100
AcDbEntity
  8
0
100
AcDbLine
 62
7
  6
CONTINUOUS
 10
51.2597911316
 20
133.9589034321
 11
51.0340167752
 21
133.7968392706
  0
LINE
  5
225
100
AcDbEntity
  8
0
100
AcDbLine
 62
7
  6
CONTINUOUS
 10
49.9095820262
 20
135.456746232
 11
50.1438283758
 21
135.6063039137
  0
LINE
  5
226
100
AcDbEntity
  8
0
100
AcDbLine
 62
7
  6
CONTINUOUS
 10
48.7232259773
 20
138.0311477883
 11
48.4782295339
 21
137.8999395751
  0
LINE
  5
227
100
AcDbEntity
  8
0
100
AcDbLine
 62
7
  6
CONTINUOUS
 10
49.8955009297
 20
174.6898488805
 11
49.6593730622
 21
174.8364179178
  0
LINE
  5
228
100
AcDbEntity
  8
0
100
AcDbLine
 62
7
  6
CONTINUOUS
 10
50.7626245805
 20
176.5104790614
 11
50.9904400587
 21
176.3512969005
  0
LINE
  5
229
100
AcDbEntity
  8
0
100
AcDbLine
 62
7
  6
CONTINUOUS
 10
47.5800758151
 20
139.6924139886
 11
47.8318393494
 21
139.8101168996
  0
LINE
  5
22A
100
AcDbEntity
  8
0
100
AcDbLine
 62
7
  6
CONTINUOUS
 10
46.7398960391
 20
142.3996417204
 11
46.4798694658
 21
142.3015344646
  0
LINE
  5
22B
100
AcDbEntity
  8
0
100
AcDbLine
 62
7
  6
CONTINUOUS
 10
47.6335952068
 20
170.4585888608
 11
47.3838775848
 21
170.5714910878
  0
LINE
  5
22C
100
AcDbEntity
  8
0
100
AcDbLine
 62
7
  6
CONTINUOUS
 10
48.2591818068
 20
172.3752336261
 11
48.5058257334
 21
172.2471491775
  0
LINE
  5
22D
100
AcDbEntity
  8
0
100
AcDbLine
 62
7
  6
CONTINUOUS
 10
45.8233644364
 20
144.1959065958
 11
46.0943411152
 21
144.2816403051
  0
LINE
  5
22E
100
AcDbEntity
  8
0
100
AcDbLine
 62
7
  6
CONTINUOUS
 10
45.6845339459
 20
166.0460395381
 11
45.9505508097
 21
165.9655791088
  0
LINE
  5
22F
100
AcDbEntity
  8
0
100
AcDbLine
 62
7
  6
CONTINUOUS
 10
46.3169141737
 20
167.948600936
 11
46.5781664026
 21
167.8538057602
  0
LINE
  5
230
100
AcDbEntity
  8
0
100
AcDbLine
 62
7
  6
CONTINUOUS
 10
44.5904183863
 20
161.3374949992
 11
44.8646616323
 21
161.2924450884
  0
LINE
  5
231
100
AcDbEntity
  8
0
100
AcDbLine
 62
7
  6
CONTINUOUS
 10
45.240444852
 20
163.2464379725
 11
44.9690544188
 21
163.3063219038
  0
LINE
  5
232
100
AcDbEntity
  8
0
100
AcDbLine
 62
7
  6
CONTINUOUS
 10
44.3980287769
 20
156.5175533978
 11
44.1202515265
 21
156.5264219737
  0
LINE
  5
233
100
AcDbEntity
  8
0
100
AcDbLine
 62
7
  6
CONTINUOUS
 10
44.5155498682
 20
158.5038791547
 11
44.2386647962
 21
158.5278272108
  0
LINE
  5
234
100
AcDbEntity
  8
0
100
AcDbLine
 62
7
  6
CONTINUOUS
 10
44.5586364608
 20
151.7226037578
 11
44.2820780518
 21
151.695139255
  0
LINE
  5
235
100
AcDbEntity
  8
0
100
AcDbLine
 62
7
  6
CONTINUOUS
 10
44.138242475
 20
153.6948782261
 11
44.4158846054
 21
153.707275803
  0
LINE
  5
236
100
AcDbEntity
  8
0
100
AcDbLine
 62
7
  6
CONTINUOUS
 10
45.3437366421
 20
146.9896390861
 11
45.0731290657
 21
146.9263114299
  0
LINE
  5
237
100
AcDbEntity
  8
0
100
AcDbLine
 62
7
  6
CONTINUOUS
 10
44.6695057088
 20
148.8901680466
 11
44.9431543637
 21
148.9386991307
  0
LINE
  5
238
100
AcDbEntity
  8
0
100
AcDbLine
 62
7
  6
CONTINUOUS
 10
113.9603215398
 20
160.5582203925
 11
156.0226929119
 21
167.3060917247
  0
LINE
  5
239
100
AcDbEntity
  8
RUNDUNGEN
100
AcDbLine
 62
7
  6
CONTINUOUS
 10
105.1319507473
 20
192.5969072328
 11
50.8079270379
 21
190.9065044008
  0
LINE
  5
23A
100
AcDbEntity
  8
0
100
AcDbLine
 62
7
  6
CONTINUOUS
 10
168.7177230697
 20
194.9650603925
 11
114.3028608211
 21
194.9650603925
  0
LINE
  5
23B
100
AcDbEntity
  8
0
100
AcDbLine
 62
7
  6
CONTINUOUS
 10
114.3028608211
 20
194.9650603925
 11
105.1319507473
 21
192.5969072328
  0
LINE
  5
23C
100
AcDbEntity
  8
0
100
AcDbLine
 62
7
  6
CONTINUOUS
 10
56.7199584019
 20
180.0957474007
 11
54.0253086893
 21
179.3999229755
  0
LINE
  5
23D
100
AcDbEntity
  8
0
100
AcDbLine
 62
7
  6
CONTINUOUS
 10
233.4476424712
 20
178.5605757416
 11
182.6228800846
 21
193.0249274451
  0
ARC
  5
23E
100
AcDbEntity
  8
0
100
AcDbCircle
 62
7
  6
CONTINUOUS
 10
49.8332614932
 20
131.5933603057
 40
0.508
100
AcDbArc
 50
146.8283807924
 51
217.1932239214
  0
ARC
  5
23F
100
AcDbEntity
  8
0
100
AcDbCircle
 62
7
  6
CONTINUOUS
 10
50.3395745243
 20
130.9405619942
 40
0.508
100
AcDbArc
 50
218.4013788955
 51
288.8949052544
  0
ARC
  5
240
100
AcDbEntity
  8
0
100
AcDbCircle
 62
7
  6
CONTINUOUS
 10
53.1980675103
 20
127.7157462016
 40
0.508
100
AcDbArc
 50
154.3566407014
 51
224.7065046647
  0
ARC
  5
241
100
AcDbEntity
  8
0
100
AcDbCircle
 62
7
  6
CONTINUOUS
 10
53.7826638029
 20
127.1373975736
 40
0.508
100
AcDbArc
 50
225.909107243
 51
296.36728253
  0
ARC
  5
242
100
AcDbEntity
  8
0
100
AcDbCircle
 62
7
  6
CONTINUOUS
 10
57.0412602671
 20
124.3111949586
 40
0.508
100
AcDbArc
 50
161.8806726495
 51
232.2202548386
  0
ARC
  5
243
100
AcDbEntity
  8
0
100
AcDbCircle
 62
7
  6
CONTINUOUS
 10
57.6939559869
 20
123.8161178872
 40
0.508
100
AcDbArc
 50
233.4005417157
 51
303.8440218034
  0
ARC
  5
244
100
AcDbEntity
  8
0
100
AcDbCircle
 62
7
  6
CONTINUOUS
 10
53.3041018413
 20
131.360400907
 40
0.4962445641
100
AcDbArc
 50
40.8333569582
 51
130.0567347825
  0
ARC
  5
245
100
AcDbEntity
  8
0
100
AcDbCircle
 62
7
  6
CONTINUOUS
 10
53.9666683647
 20
130.6145024631
 40
0.4962445641
100
AcDbArc
 50
313.1713425996
 51
42.394720424
  0
ARC
  5
246
100
AcDbEntity
  8
0
100
AcDbCircle
 62
7
  6
CONTINUOUS
 10
56.6721841573
 20
127.9431499987
 40
0.4962445641
100
AcDbArc
 50
48.3333569582
 51
137.5567347825
  0
ARC
  5
247
100
AcDbEntity
  8
0
100
AcDbCircle
 62
7
  6
CONTINUOUS
 10
57.4264416159
 20
127.2901151048
 40
0.4962445641
100
AcDbArc
 50
320.6713425996
 51
49.894720424
  0
ARC
  5
248
100
AcDbEntity
  8
0
100
AcDbCircle
 62
7
  6
CONTINUOUS
 10
42.168808631
 20
150.4015451395
 40
0.508
100
AcDbArc
 50
116.6921575027
 51
187.1491815038
  0
ARC
  5
249
100
AcDbEntity
  8
0
100
AcDbCircle
 62
7
  6
CONTINUOUS
 10
42.2832328033
 20
149.562764866
 40
0.508
100
AcDbArc
 50
188.3871919277
 51
259.110497395
  0
ARC
  5
24A
100
AcDbEntity
  8
0
100
AcDbCircle
 62
7
  6
CONTINUOUS
 10
43.1394362043
 20
145.3629498251
 40
0.508
100
AcDbArc
 50
124.2278297257
 51
194.6584290607
  0
ARC
  5
24B
100
AcDbEntity
  8
0
100
AcDbCircle
 62
7
  6
CONTINUOUS
 10
43.3609310909
 20
144.5518134775
 40
0.508
100
AcDbArc
 50
195.8880817046
 51
266.494433039
  0
ARC
  5
24C
100
AcDbEntity
  8
0
100
AcDbCircle
 62
7
  6
CONTINUOUS
 10
44.7605498153
 20
140.4935910063
 40
0.508
100
AcDbArc
 50
131.7630071234
 51
202.16897661
  0
ARC
  5
24D
100
AcDbEntity
  8
0
100
AcDbCircle
 62
7
  6
CONTINUOUS
 10
45.0840351568
 20
139.7232925923
 40
0.508
100
AcDbArc
 50
203.3907774901
 51
273.9594510436
  0
ARC
  5
24E
100
AcDbEntity
  8
0
100
AcDbCircle
 62
7
  6
CONTINUOUS
 10
47.0046016995
 20
135.8772368168
 40
0.508
100
AcDbArc
 50
139.2968409182
 51
209.6806420824
  0
ARC
  5
24F
100
AcDbEntity
  8
0
100
AcDbCircle
 62
7
  6
CONTINUOUS
 10
47.423479367
 20
135.1600670569
 40
0.508
100
AcDbArc
 50
210.895234668
 51
281.4259557251
  0
ARC
  5
250
100
AcDbEntity
  8
0
100
AcDbCircle
 62
7
  6
CONTINUOUS
 10
44.5095965584
 20
152.2164192652
 40
0.4962445641
100
AcDbArc
 50
275.6713425996
 51
4.894720424
  0
ARC
  5
251
100
AcDbEntity
  8
0
100
AcDbCircle
 62
7
  6
CONTINUOUS
 10
45.0298102061
 20
148.4500792044
 40
0.4962445641
100
AcDbArc
 50
10.8333569581
 51
100.0567347825
  0
ARC
  5
252
100
AcDbEntity
  8
0
100
AcDbCircle
 62
7
  6
CONTINUOUS
 10
45.2306604251
 20
147.4728289417
 40
0.4962445641
100
AcDbArc
 50
283.1713425996
 51
12.394720424
  0
ARC
  5
253
100
AcDbEntity
  8
0
100
AcDbCircle
 62
7
  6
CONTINUOUS
 10
46.2380295996
 20
143.8066119487
 40
0.4962445641
100
AcDbArc
 50
18.3333569581
 51
107.5567347825
  0
ARC
  5
254
100
AcDbEntity
  8
0
100
AcDbCircle
 62
7
  6
CONTINUOUS
 10
46.5647182728
 20
142.8639384118
 40
0.4962445641
100
AcDbArc
 50
290.6713425996
 51
19.894720424
  0
ARC
  5
255
100
AcDbEntity
  8
0
100
AcDbCircle
 62
7
  6
CONTINUOUS
 10
48.0420066083
 20
139.3605744759
 40
0.4962445641
100
AcDbArc
 50
25.8333569582
 51
115.0567347825
  0
ARC
  5
256
100
AcDbEntity
  8
0
100
AcDbCircle
 62
7
  6
CONTINUOUS
 10
48.4889440019
 20
138.4686070703
 40
0.4962445641
100
AcDbArc
 50
298.1713425996
 51
27.394720424
  0
ARC
  5
257
100
AcDbEntity
  8
0
100
AcDbCircle
 62
7
  6
CONTINUOUS
 10
50.4108746854
 20
135.1880397198
 40
0.4962445641
100
AcDbArc
 50
33.3333569581
 51
122.5567347825
  0
ARC
  5
258
100
AcDbEntity
  8
0
100
AcDbCircle
 62
7
  6
CONTINUOUS
 10
50.9704135767
 20
134.3620402552
 40
0.4962445641
100
AcDbArc
 50
305.6713425996
 51
34.894720424
  0
ARC
  5
259
100
AcDbEntity
  8
0
100
AcDbCircle
 62
7
  6
CONTINUOUS
 10
61.2967836944
 20
121.4383486068
 40
0.508
100
AcDbArc
 50
169.3996357876
 51
239.7342370822
  0
ARC
  5
25A
100
AcDbEntity
  8
0
100
AcDbCircle
 62
7
  6
CONTINUOUS
 10
62.0065228914
 20
121.0340375739
 40
0.508
100
AcDbArc
 50
240.9287715792
 51
311.3259415074
  0
ARC
  5
25B
100
AcDbEntity
  8
0
100
AcDbCircle
 62
7
  6
CONTINUOUS
 10
65.8914359909
 20
119.1466606762
 40
0.508
100
AcDbArc
 50
176.9128520261
 51
247.2482104055
  0
ARC
  5
25C
100
AcDbEntity
  8
0
100
AcDbCircle
 62
7
  6
CONTINUOUS
 10
66.6464445232
 20
118.8392280531
 40
0.508
100
AcDbArc
 50
248.4403751965
 51
318.8136912439
  0
ARC
  5
25D
100
AcDbEntity
  8
0
100
AcDbCircle
 62
7
  6
CONTINUOUS
 10
70.7461489658
 20
117.4755296783
 40
0.508
100
AcDbArc
 50
184.4198447594
 51
254.7619344825
  0
ARC
  5
25E
100
AcDbEntity
  8
0
100
AcDbCircle
 62
7
  6
CONTINUOUS
 10
71.5340824489
 20
117.2696629511
 40
0.508
100
AcDbArc
 50
255.9529034942
 51
326.307715521
  0
ARC
  5
25F
100
AcDbEntity
  8
0
100
AcDbCircle
 62
7
  6
CONTINUOUS
 10
75.7773720827
 20
116.4536123638
 40
0.508
100
AcDbArc
 50
191.9203618612
 51
262.2751738879
  0
ARC
  5
260
100
AcDbEntity
  8
0
100
AcDbCircle
 62
7
  6
CONTINUOUS
 10
76.5854590614
 20
116.3525395352
 40
0.508
100
AcDbArc
 50
263.4661428984
 51
333.8082326095
  0
ARC
  5
261
100
AcDbEntity
  8
0
100
AcDbCircle
 62
7
  6
CONTINUOUS
 10
60.4574928111
 20
124.9947571055
 40
0.4962445641
100
AcDbArc
 50
55.8333569581
 51
145.0567347825
  0
ARC
  5
262
100
AcDbEntity
  8
0
100
AcDbCircle
 62
7
  6
CONTINUOUS
 10
61.2905356506
 20
124.4457593696
 40
0.4962445641
100
AcDbArc
 50
328.1713425996
 51
57.394720424
  0
ARC
  5
263
100
AcDbEntity
  8
0
100
AcDbCircle
 62
7
  6
CONTINUOUS
 10
64.5952601221
 20
122.5656700471
 40
0.4962445641
100
AcDbArc
 50
63.3333569581
 51
152.5567347825
  0
ARC
  5
264
100
AcDbEntity
  8
0
100
AcDbCircle
 62
7
  6
CONTINUOUS
 10
65.4928347486
 20
122.1301029728
 40
0.4962445641
100
AcDbArc
 50
335.6713425996
 51
64.894720424
  0
ARC
  5
265
100
AcDbEntity
  8
0
100
AcDbCircle
 62
7
  6
CONTINUOUS
 10
69.0146877445
 20
120.6974511766
 40
0.4962445641
100
AcDbArc
 50
70.8333569581
 51
160.0567347825
  0
ARC
  5
266
100
AcDbEntity
  8
0
100
AcDbCircle
 62
7
  6
CONTINUOUS
 10
69.9614364073
 20
120.3827674373
 40
0.4962445641
100
AcDbArc
 50
343.1713425996
 51
72.394720424
  0
ARC
  5
267
100
AcDbEntity
  8
0
100
AcDbCircle
 62
7
  6
CONTINUOUS
 10
73.6401580463
 20
119.4220662369
 40
0.4962445641
100
AcDbArc
 50
78.3333569581
 51
167.5567347825
  0
ARC
  5
268
100
AcDbEntity
  8
0
100
AcDbCircle
 62
7
  6
CONTINUOUS
 10
74.6198816133
 20
119.2336501585
 40
0.4962445641
100
AcDbArc
 50
350.6713425996
 51
79.8947204241
  0
ARC
  5
269
100
AcDbEntity
  8
0
100
AcDbCircle
 62
7
  6
CONTINUOUS
 10
78.3925279482
 20
118.7613374179
 40
0.4962445641
100
AcDbArc
 50
85.8333569581
 51
175.0567347825
  0
ARC
  5
26A
100
AcDbEntity
  8
RUNDUNGEN
100
AcDbCircle
 62
7
  6
CONTINUOUS
 10
50.8701310106
 20
188.9074719684
 40
2.0
100
AcDbArc
 50
91.7822999761
 51
224.4788848475
  0
ARC
  5
26B
100
AcDbEntity
  8
0
100
AcDbCircle
 62
7
  6
CONTINUOUS
 10
50.1160176412
 20
179.3298216836
 40
0.508
100
AcDbArc
 50
71.4967537807
 51
142.1280267963
  0
ARC
  5
26C
100
AcDbEntity
  8
0
100
AcDbCircle
 62
7
  6
CONTINUOUS
 10
49.5821951154
 20
178.6272180474
 40
0.508
100
AcDbArc
 50
143.4184591463
 51
214.2264964093
  0
ARC
  5
26D
100
AcDbEntity
  8
0
100
AcDbCircle
 62
7
  6
CONTINUOUS
 10
47.2414831067
 20
175.0877321283
 40
0.508
100
AcDbArc
 50
79.1090897989
 51
149.6270871541
  0
ARC
  5
26E
100
AcDbEntity
  8
0
100
AcDbCircle
 62
7
  6
CONTINUOUS
 10
46.8066663705
 20
174.3264000837
 40
0.508
100
AcDbArc
 50
150.9092671807
 51
221.6973829872
  0
ARC
  5
26F
100
AcDbEntity
  8
0
100
AcDbCircle
 62
7
  6
CONTINUOUS
 10
44.9446811441
 20
170.5056127377
 40
0.508
100
AcDbArc
 50
86.5561845566
 51
157.1279840719
  0
ARC
  5
270
100
AcDbEntity
  8
0
100
AcDbCircle
 62
7
  6
CONTINUOUS
 10
44.6151463048
 20
169.6995301567
 40
0.508
100
AcDbArc
 50
158.4015195901
 51
229.1665347853
  0
ARC
  5
271
100
AcDbEntity
  8
0
100
AcDbCircle
 62
7
  6
CONTINUOUS
 10
43.265360784
 20
165.6616734673
 40
0.508
100
AcDbArc
 50
94.0883795926
 51
164.6307031501
  0
ARC
  5
272
100
AcDbEntity
  8
0
100
AcDbCircle
 62
7
  6
CONTINUOUS
 10
43.0453811411
 20
164.8253600996
 40
0.508
100
AcDbArc
 50
165.8953477979
 51
236.6341280914
  0
ARC
  5
273
100
AcDbEntity
  8
0
100
AcDbCircle
 62
7
  6
CONTINUOUS
 10
42.2327402842
 20
160.6387272883
 40
0.508
100
AcDbArc
 50
101.6219712396
 51
172.1351984688
  0
ARC
  5
274
100
AcDbEntity
  8
0
100
AcDbCircle
 62
7
  6
CONTINUOUS
 10
42.1245774991
 20
159.786951357
 40
0.508
100
AcDbArc
 50
173.3908565853
 51
244.1003672413
  0
ARC
  5
275
100
AcDbEntity
  8
0
100
AcDbCircle
 62
7
  6
CONTINUOUS
 10
41.8649740387
 20
155.5227780787
 40
0.508
100
AcDbArc
 50
109.1566921915
 51
179.6413933254
  0
ARC
  5
276
100
AcDbEntity
  8
0
100
AcDbCircle
 62
7
  6
CONTINUOUS
 10
41.8689133874
 20
154.6702766269
 40
0.508
100
AcDbArc
 50
180.8881223634
 51
251.5655344014
  0
ARC
  5
277
100
AcDbEntity
  8
0
100
AcDbCircle
 62
7
  6
CONTINUOUS
 10
53.0015665285
 20
178.9755666986
 40
0.4962445641
100
AcDbArc
 50
230.6713425996
 51
319.894720424
  0
ARC
  5
278
100
AcDbEntity
  8
0
100
AcDbCircle
 62
7
  6
CONTINUOUS
 10
50.7062085292
 20
175.9445155034
 40
0.4962445641
100
AcDbArc
 50
325.8333569581
 51
55.0567347825
  0
ARC
  5
279
100
AcDbEntity
  8
0
100
AcDbCircle
 62
7
  6
CONTINUOUS
 10
50.1572107933
 20
175.1114726639
 40
0.4962445641
100
AcDbArc
 50
238.1713425996
 51
327.394720424
  0
ARC
  5
27A
100
AcDbEntity
  8
0
100
AcDbCircle
 62
7
  6
CONTINUOUS
 10
48.2771214708
 20
171.8067481924
 40
0.4962445641
100
AcDbArc
 50
333.3333569581
 51
62.5567347825
  0
ARC
  5
27B
100
AcDbEntity
  8
0
100
AcDbCircle
 62
7
  6
CONTINUOUS
 10
47.8415543965
 20
170.9091735658
 40
0.4962445641
100
AcDbArc
 50
245.6713425996
 51
334.9077621629
  0
ARC
  5
27C
100
AcDbEntity
  8
0
100
AcDbCircle
 62
7
  6
CONTINUOUS
 10
46.4089026003
 20
167.38732057
 40
0.4962445641
100
AcDbArc
 50
340.8333569581
 51
70.0567347825
  0
ARC
  5
27D
100
AcDbEntity
  8
0
100
AcDbCircle
 62
7
  6
CONTINUOUS
 10
46.094218861
 20
166.4405719072
 40
0.4962445641
100
AcDbArc
 50
253.1713425996
 51
342.394720424
  0
ARC
  5
27E
100
AcDbEntity
  8
0
100
AcDbCircle
 62
7
  6
CONTINUOUS
 10
45.1335176606
 20
162.7618502682
 40
0.4962445641
100
AcDbArc
 50
348.3333569581
 51
77.5567347825
  0
ARC
  5
27F
100
AcDbEntity
  8
0
100
AcDbCircle
 62
7
  6
CONTINUOUS
 10
44.9451015822
 20
161.7821267011
 40
0.4962445641
100
AcDbArc
 50
260.6713425996
 51
349.894720424
  0
ARC
  5
280
100
AcDbEntity
  8
0
100
AcDbCircle
 62
7
  6
CONTINUOUS
 10
44.4727888416
 20
158.0094803662
 40
0.4962445641
100
AcDbArc
 50
355.8333569582
 51
85.0567347825
  0
ARC
  5
281
100
AcDbEntity
  8
0
100
AcDbCircle
 62
7
  6
CONTINUOUS
 10
44.4138642755
 20
157.0135452369
 40
0.4962445641
100
AcDbArc
 50
268.1713425996
 51
357.394720424
  0
ARC
  5
282
100
AcDbEntity
  8
0
100
AcDbCircle
 62
7
  6
CONTINUOUS
 10
44.4380213966
 20
153.2115252308
 40
0.4962445641
100
AcDbArc
 50
3.318576487
 51
92.5567347825
  0
ARC
  5
283
100
AcDbEntity
  8
0
100
AcDbCircle
 62
7
  6
CONTINUOUS
 10
115.4690815398
 20
151.1534732794
 40
9.525
100
AcDbArc
 50
99.1140386911
 51
164.2693860886
  0
ARC
  5
284
100
AcDbEntity
  8
0
100
AcDbCircle
 62
7
  6
CONTINUOUS
 10
96.6334929262
 20
124.0979967072
 40
1.27
100
AcDbArc
 50
296.4960117517
 51
344.2693860886
  0
ARC
  5
285
100
AcDbEntity
  8
0
100
AcDbCircle
 62
7
  6
CONTINUOUS
 10
80.8985353382
 20
116.0983293442
 40
0.508
100
AcDbArc
 50
199.4143861514
 51
269.7877021875
  0
ARC
  5
286
100
AcDbEntity
  8
0
100
AcDbCircle
 62
7
  6
CONTINUOUS
 10
81.713718067
 20
116.103789768
 40
0.508
100
AcDbArc
 50
270.9798669747
 51
341.3152253299
  0
ARC
  5
287
100
AcDbEntity
  8
0
100
AcDbCircle
 62
7
  6
CONTINUOUS
 10
86.0215636266
 20
116.4155717647
 40
0.508
100
AcDbArc
 50
206.9021359003
 51
277.2993058067
  0
ARC
  5
288
100
AcDbEntity
  8
0
100
AcDbCircle
 62
7
  6
CONTINUOUS
 10
86.8306396258
 20
116.5277910137
 40
0.508
100
AcDbArc
 50
278.4938402977
 51
348.8284415562
  0
ARC
  5
289
100
AcDbEntity
  8
0
100
AcDbCircle
 62
7
  6
CONTINUOUS
 10
91.0584144029
 20
117.399613659
 40
0.508
100
AcDbArc
 50
214.3840556156
 51
284.8275356667
  0
ARC
  5
28A
100
AcDbEntity
  8
0
100
AcDbCircle
 62
7
  6
CONTINUOUS
 10
91.8481822507
 20
117.6172825509
 40
0.508
100
AcDbArc
 50
286.0078225416
 51
356.3474046834
  0
ARC
  5
28B
100
AcDbEntity
  8
0
100
AcDbCircle
 62
7
  6
CONTINUOUS
 10
95.9226102525
 20
119.0332305236
 40
0.508
100
AcDbArc
 50
221.8607948989
 51
292.3189701482
  0
ARC
  5
28C
100
AcDbEntity
  8
0
100
AcDbCircle
 62
7
  6
CONTINUOUS
 10
96.6800228464
 20
119.3534899681
 40
0.508
100
AcDbArc
 50
293.5215727162
 51
3.8714366221
  0
ARC
  5
28D
100
AcDbEntity
  8
0
100
AcDbCircle
 62
7
  6
CONTINUOUS
 10
79.3884630776
 20
118.7024128518
 40
0.4962445641
100
AcDbArc
 50
358.1713425996
 51
87.394720424
  0
ARC
  5
28E
100
AcDbEntity
  8
0
100
AcDbCircle
 62
7
  6
CONTINUOUS
 10
83.1904830837
 20
118.7265699728
 40
0.4962445641
100
AcDbArc
 50
93.3333569581
 51
182.5567347825
  0
ARC
  5
28F
100
AcDbEntity
  8
0
100
AcDbCircle
 62
7
  6
CONTINUOUS
 10
84.1855890492
 20
118.7981451347
 40
0.4962445641
100
AcDbArc
 50
5.6713425996
 51
94.894720424
  0
ARC
  5
290
100
AcDbEntity
  8
0
100
AcDbCircle
 62
7
  6
CONTINUOUS
 10
87.9519291101
 20
119.3183587824
 40
0.4962445641
100
AcDbArc
 50
100.8333569581
 51
190.0567347825
  0
ARC
  5
291
100
AcDbEntity
  8
0
100
AcDbCircle
 62
7
  6
CONTINUOUS
 10
88.9291793728
 20
119.5192090014
 40
0.4962445641
100
AcDbArc
 50
13.1713425996
 51
102.394720424
  0
ARC
  5
292
100
AcDbEntity
  8
0
100
AcDbCircle
 62
7
  6
CONTINUOUS
 10
92.5953963658
 20
120.5265781759
 40
0.4962445641
100
AcDbArc
 50
108.3333569582
 51
197.5567347825
  0
ARC
  5
293
100
AcDbEntity
  8
0
100
AcDbCircle
 62
7
  6
CONTINUOUS
 10
93.5380699027
 20
120.8532668491
 40
0.4962445641
100
AcDbArc
 50
20.6713425996
 51
109.894720424
  0
ARC
  5
294
100
AcDbEntity
  8
0
100
AcDbCircle
 62
7
  6
CONTINUOUS
 10
97.0414338386
 20
122.3305551846
 40
0.4962445641
100
AcDbArc
 50
115.8333569582
 51
205.0567347825
  0
ARC
  5
295
100
AcDbEntity
  8
0
100
AcDbCircle
 62
7
  6
CONTINUOUS
 10
81.0437066437
 20
155.2775603925
 40
39.6875
100
AcDbArc
 50
142.1280267963
 51
143.4184591463
  0
ARC
  5
296
100
AcDbEntity
  8
0
100
AcDbCircle
 62
7
  6
CONTINUOUS
 10
81.0437066437
 20
155.2775603925
 40
39.6875
100
AcDbArc
 50
149.6270871542
 51
150.9092671807
  0
ARC
  5
297
100
AcDbEntity
  8
0
100
AcDbCircle
 62
7
  6
CONTINUOUS
 10
81.0437066437
 20
155.2775603925
 40
39.6875
100
AcDbArc
 50
157.11739303
 51
158.4015195901
  0
ARC
  5
298
100
AcDbEntity
  8
0
100
AcDbCircle
 62
7
  6
CONTINUOUS
 10
81.0437066437
 20
155.2775603925
 40
39.6875
100
AcDbArc
 50
164.6307031501
 51
165.8953477979
  0
ARC
  5
299
100
AcDbEntity
  8
0
100
AcDbCircle
 62
7
  6
CONTINUOUS
 10
81.0437066437
 20
155.2775603925
 40
39.6875
100
AcDbArc
 50
172.1351984688
 51
173.3908565853
  0
ARC
  5
29A
100
AcDbEntity
  8
0
100
AcDbCircle
 62
7
  6
CONTINUOUS
 10
81.0437066437
 20
155.2775603925
 40
39.6875
100
AcDbArc
 50
179.6413933254
 51
180.9011935595
  0
ARC
  5
29B
100
AcDbEntity
  8
0
100
AcDbCircle
 62
7
  6
CONTINUOUS
 10
81.0437066437
 20
155.2775603925
 40
39.6875
100
AcDbArc
 50
187.1491815038
 51
188.3871919277
  0
ARC
  5
29C
100
AcDbEntity
  8
0
100
AcDbCircle
 62
7
  6
CONTINUOUS
 10
81.0437066437
 20
155.2775603925
 40
39.6875
100
AcDbArc
 50
194.6584290607
 51
195.8880817047
  0
ARC
  5
29D
100
AcDbEntity
  8
0
100
AcDbCircle
 62
7
  6
CONTINUOUS
 10
81.0437066437
 20
155.2775603925
 40
39.6875
100
AcDbArc
 50
202.16897661
 51
203.3907774902
  0
ARC
  5
29E
100
AcDbEntity
  8
0
100
AcDbCircle
 62
7
  6
CONTINUOUS
 10
81.0437066437
 20
155.2775603925
 40
39.6875
100
AcDbArc
 50
209.6806420824
 51
210.895234668
  0
ARC
  5
29F
100
AcDbEntity
  8
0
100
AcDbCircle
 62
7
  6
CONTINUOUS
 10
81.0437066437
 20
155.2775603925
 40
39.6875
100
AcDbArc
 50
217.1932239215
 51
218.4013788955
  0
ARC
  5
2A0
100
AcDbEntity
  8
0
100
AcDbCircle
 62
7
  6
CONTINUOUS
 10
81.0437066437
 20
155.2775603925
 40
39.6875
100
AcDbArc
 50
224.7065046647
 51
225.909107243
  0
ARC
  5
2A1
100
AcDbEntity
  8
0
100
AcDbCircle
 62
7
  6
CONTINUOUS
 10
81.0437066437
 20
155.2775603925
 40
39.6875
100
AcDbArc
 50
232.2358818374
 51
233.4180626018
  0
ARC
  5
2A2
100
AcDbEntity
  8
0
100
AcDbCircle
 62
7
  6
CONTINUOUS
 10
81.0437066437
 20
155.2775603925
 40
39.6875
100
AcDbArc
 50
239.7342370822
 51
240.9287715792
  0
ARC
  5
2A3
100
AcDbEntity
  8
0
100
AcDbCircle
 62
7
  6
CONTINUOUS
 10
81.0437066437
 20
155.2775603925
 40
39.6875
100
AcDbArc
 50
247.2482104055
 51
248.4403751963
  0
ARC
  5
2A4
100
AcDbEntity
  8
0
100
AcDbCircle
 62
7
  6
CONTINUOUS
 10
81.0437066437
 20
155.2775603925
 40
39.6875
100
AcDbArc
 50
254.7619344825
 51
255.9529034942
  0
ARC
  5
2A5
100
AcDbEntity
  8
0
100
AcDbCircle
 62
7
  6
CONTINUOUS
 10
81.0437066437
 20
155.2775603925
 40
39.6875
100
AcDbArc
 50
262.2751738879
 51
263.4661428984
  0
ARC
  5
2A6
100
AcDbEntity
  8
0
100
AcDbCircle
 62
7
  6
CONTINUOUS
 10
81.0437066437
 20
155.2775603925
 40
39.6875
100
AcDbArc
 50
269.7877021875
 51
270.9798669747
  0
ARC
  5
2A7
100
AcDbEntity
  8
0
100
AcDbCircle
 62
7
  6
CONTINUOUS
 10
81.0437066437
 20
155.2775603925
 40
39.6875
100
AcDbArc
 50
277.2993058067
 51
278.4938402977
  0
ARC
  5
2A8
100
AcDbEntity
  8
0
100
AcDbCircle
 62
7
  6
CONTINUOUS
 10
81.0437066437
 20
155.2775603925
 40
39.6875
100
AcDbArc
 50
284.8100147865
 51
285.9921953976
  0
ARC
  5
2A9
100
AcDbEntity
  8
0
100
AcDbCircle
 62
7
  6
CONTINUOUS
 10
81.0437066437
 20
155.2775603925
 40
39.6875
100
AcDbArc
 50
292.3189701482
 51
293.5215727162
  0
ARC
  5
2AA
100
AcDbEntity
  8
0
100
AcDbCircle
 62
7
  6
CONTINUOUS
 10
80.9890118163
 20
155.3583016707
 40
36.115625
100
AcDbArc
 50
168.3333569581
 51
169.894720424
  0
ARC
  5
2AB
100
AcDbEntity
  8
0
100
AcDbCircle
 62
7
  6
CONTINUOUS
 10
81.0437066437
 20
155.2775603925
 40
36.115625
100
AcDbArc
 50
258.3230319007
 51
259.9050454815
  0
ARC
  5
2AC
100
AcDbEntity
  8
0
100
AcDbCircle
 62
7
  6
CONTINUOUS
 10
81.0045959278
 20
155.3904159157
 40
36.1156250001
100
AcDbArc
 50
138.3333569581
 51
139.894720424
  0
ARC
  5
2AD
100
AcDbEntity
  8
0
100
AcDbCircle
 62
7
  6
CONTINUOUS
 10
80.9991503187
 20
155.3832249136
 40
36.115625
100
AcDbArc
 50
145.8333569581
 51
147.3807503679
  0
ARC
  5
2AE
100
AcDbEntity
  8
0
100
AcDbCircle
 62
7
  6
CONTINUOUS
 10
80.9946899118
 20
155.3753846368
 40
36.1156250001
100
AcDbArc
 50
153.3333569581
 51
154.8945412155
  0
ARC
  5
2AF
100
AcDbEntity
  8
0
100
AcDbCircle
 62
7
  6
CONTINUOUS
 10
80.9912910255
 20
155.3670292348
 40
36.1156249999
100
AcDbArc
 50
160.8333569581
 51
162.394720424
  0
ARC
  5
2B0
100
AcDbEntity
  8
0
100
AcDbCircle
 62
7
  6
CONTINUOUS
 10
80.9878912815
 20
155.3493512756
 40
36.115625
100
AcDbArc
 50
175.8305180519
 51
177.394720424
  0
ARC
  5
2B1
100
AcDbEntity
  8
0
100
AcDbCircle
 62
7
  6
CONTINUOUS
 10
80.9879485942
 20
155.3403311933
 40
36.1156249999
100
AcDbArc
 50
183.3335600589
 51
184.894720424
  0
ARC
  5
2B2
100
AcDbEntity
  8
0
100
AcDbCircle
 62
7
  6
CONTINUOUS
 10
80.9891827734
 20
155.3313957598
 40
36.1156249999
100
AcDbArc
 50
190.8333569581
 51
192.394720424
  0
ARC
  5
2B3
100
AcDbEntity
  8
0
100
AcDbCircle
 62
7
  6
CONTINUOUS
 10
80.9915727024
 20
155.322697863
 40
36.115625
100
AcDbArc
 50
198.3333569581
 51
199.894720424
  0
ARC
  5
2B4
100
AcDbEntity
  8
0
100
AcDbCircle
 62
7
  6
CONTINUOUS
 10
80.9950774884
 20
155.3143863261
 40
36.115625
100
AcDbArc
 50
205.8333569581
 51
207.394720424
  0
ARC
  5
2B5
100
AcDbEntity
  8
0
100
AcDbCircle
 62
7
  6
CONTINUOUS
 10
80.9996371638
 20
155.306603362
 40
36.115625
100
AcDbArc
 50
213.3333569581
 51
214.894720424
  0
ARC
  5
2B6
100
AcDbEntity
  8
0
100
AcDbCircle
 62
7
  6
CONTINUOUS
 10
81.0051737112
 20
155.2994821393
 40
36.115625
100
AcDbArc
 50
220.8333569581
 51
222.394720424
  0
ARC
  5
2B7
100
AcDbEntity
  8
0
100
AcDbCircle
 62
7
  6
CONTINUOUS
 10
81.0115923987
 20
155.293144504
 40
36.115625
100
AcDbArc
 50
228.3333569581
 51
229.894720424
  0
ARC
  5
2B8
100
AcDbEntity
  8
0
100
AcDbCircle
 62
7
  6
CONTINUOUS
 10
81.0187834009
 20
155.287698895
 40
36.115625
100
AcDbArc
 50
235.8333569581
 51
237.394720424
  0
ARC
  5
2B9
100
AcDbEntity
  8
0
100
AcDbCircle
 62
7
  6
CONTINUOUS
 10
81.0266236776
 20
155.283238488
 40
36.115625
100
AcDbArc
 50
243.3333569581
 51
244.894720424
  0
ARC
  5
2BA
100
AcDbEntity
  8
0
100
AcDbCircle
 62
7
  6
CONTINUOUS
 10
81.0349790797
 20
155.2798396019
 40
36.1156250001
100
AcDbArc
 50
250.8333569581
 51
252.394720424
  0
ARC
  5
2BB
100
AcDbEntity
  8
0
100
AcDbCircle
 62
7
  6
CONTINUOUS
 10
81.0526570388
 20
155.2764398578
 40
36.115625
100
AcDbArc
 50
265.8333569581
 51
267.394720424
  0
ARC
  5
2BC
100
AcDbEntity
  8
0
100
AcDbCircle
 62
7
  6
CONTINUOUS
 10
81.0616771212
 20
155.2764971705
 40
36.115625
100
AcDbArc
 50
273.3333569581
 51
274.894720424
  0
ARC
  5
2BD
100
AcDbEntity
  8
0
100
AcDbCircle
 62
7
  6
CONTINUOUS
 10
81.0706125546
 20
155.2777313498
 40
36.115625
100
AcDbArc
 50
280.8333569581
 51
282.394720424
  0
ARC
  5
2BE
100
AcDbEntity
  8
0
100
AcDbCircle
 62
7
  6
CONTINUOUS
 10
81.0793104515
 20
155.2801212787
 40
36.1156250001
100
AcDbArc
 50
288.3333569581
 51
289.894720424
  0
ARC
  5
2BF
100
AcDbEntity
  8
0
100
AcDbCircle
 62
7
  6
CONTINUOUS
 10
81.0876219886
 20
155.2836260643
 40
36.1156249996
100
AcDbArc
 50
295.8333569581
 51
296.4960117517
  0
ARC
  5
2C0
100
AcDbEntity
  8
0
100
AcDbCircle
 62
7
  6
CONTINUOUS
 10
81.0437066437
 20
155.2775603925
 40
4.826
100
AcDbArc
 50
154.3715619815
 51
123.8565154006
  0
CIRCLE
  5
2C1
100
AcDbEntity
  8
0
100
AcDbCircle
 62
7
  6
CONTINUOUS
 10
113.6626595866
 20
174.9654731542
 40
3.302
  0
ARC
  5
2C2
100
AcDbEntity
  8
0
100
AcDbCircle
 62
7
  6
CONTINUOUS
 10
164.0694129119
 20
117.1474404546
 40
50.8
100
AcDbArc
 50
68.2590921162
 51
99.1140386911
  0
ARC
  5
2C3
100
AcDbEntity
  8
0
100
AcDbCircle
 62
7
  6
CONTINUOUS
 10
168.7177230697
 20
144.1650603925
 40
50.8
100
AcDbArc
 50
74.1140386911
 51
90.0
  0
ARC
  5
2C4
100
AcDbEntity
  8
0
100
AcDbCircle
 62
7
  6
CONTINUOUS
 10
212.953712899
 20
168.7073872614
 40
12.7
100
AcDbArc
 50
259.1140386911
 51
297.0234916421
  0
ARC
  5
2C5
100
AcDbEntity
  8
0
100
AcDbCircle
 62
7
  6
CONTINUOUS
 10
231.7094978443
 20
172.45309236
 40
6.35
100
AcDbArc
 50
304.2650119731
 51
74.1140386911
  0
CIRCLE
  5
2C6
100
AcDbEntity
  8
0
100
AcDbCircle
 62
7
  6
CONTINUOUS
 10
213.4061462318
 20
171.0599444447
 40
3.571875
  0
CIRCLE
  5
2C7
100
AcDbEntity
  8
0
100
AcDbCircle
 62
7
  6
CONTINUOUS
 10
188.9570947214
 20
177.9449920292
 40
3.302
  0
ARC
  5
2C8
100
AcDbEntity
  8
0
100
AcDbCircle
 62
7
  6
CONTINUOUS
 10
239.3367335491
 20
305.8934879472
 40
152.4
100
AcDbArc
 50
248.2590921162
 51
259.1140386911
  0
ARC
  5
2C9
100
AcDbEntity
  8
0
100
AcDbCircle
 62
7
  6
CONTINUOUS
 10
149.4802104278
 20
293.1549846027
 40
152.4
100
AcDbArc
 50
297.0234916421
 51
304.2650119731
  0
SPLINE
  5
2CA
100
AcDbEntity
  8
0
100
AcDbSpline
 62
7
  6
CONTINUOUS
 70
0
 71
3
 72
11
 73
7
 74
0
 42
0.0000001
 43
0.0000001
 44
0.0000000001
 40
0.0
 40
0.0
 40
0.0
 40
0.0
 40
0.2526295194
 40
0.5052590389
 40
0.7526295194
 40
1.0
 40
1.0
 40
1.0
 40
1.0
 10
52.4720860196
 20
178.7678459474
 30
0.0
 10
52.3751224551
 20
178.845938894
 30
0.0
 10
52.0980867712
 20
179.0302229651
 30
0.0
 10
51.4229505745
 20
179.3741298997
 30
0.0
 10
50.7240601975
 20
179.6601147644
 30
0.0
 10
50.4030623938
 20
179.769452017
 30
0.0
 10
50.2772357009
 20
179.811560967
 30
0.0
  0
SPLINE
  5
2CB
100
AcDbEntity
  8
0
100
AcDbSpline
 62
7
  6
CONTINUOUS
 70
0
 71
3
 72
11
 73
7
 74
0
 42
0.0000001
 43
0.0000001
 44
0.0000000001
 40
0.0
 40
0.0
 40
0.0
 40
0.0
 40
0.2473184307
 40
0.4946368613
 40
0.7473184307
 40
1.0
 40
1.0
 40
1.0
 40
1.0
 10
49.1621702757
 20
178.3414854206
 30
0.0
 10
49.2371677344
 20
178.2312397135
 30
0.0
 10
49.4295804225
 20
177.95162977
 30
0.0
 10
49.8941681156
 20
177.3565609335
 30
0.0
 10
50.4084777475
 20
176.7995317957
 30
0.0
 10
50.661104646
 20
176.5826908631
 30
0.0
 10
50.7626245805
 20
176.5104790614
 30
0.0
  0
SPLINE
  5
2CC
100
AcDbEntity
  8
0
100
AcDbSpline
 62
7
  6
CONTINUOUS
 70
0
 71
3
 72
11
 73
7
 74
0
 42
0.0000001
 43
0.0000001
 44
0.0000000001
 40
0.0
 40
0.0
 40
0.0
 40
0.0
 40
0.2524318982
 40
0.5048637963
 40
0.7521906752
 40
1.0
 40
1.0
 40
1.0
 40
1.0
 10
49.6593730622
 20
174.8364179178
 30
0.0
 10
49.5526215344
 20
174.9014449587
 30
0.0
 10
49.252198852
 20
175.0486056455
 30
0.0
 10
48.5371994645
 20
175.3017133527
 30
0.0
 10
47.7961787071
 20
175.4958684334
 30
0.0
 10
47.4618325411
 20
175.5624693258
 30
0.0
 10
47.3374645398
 20
175.5865829101
 30
0.0
  0
SPLINE
  5
2CD
100
AcDbEntity
  8
0
100
AcDbSpline
 62
7
  6
CONTINUOUS
 70
0
 71
3
 72
11
 73
7
 74
0
 42
0.0000001
 43
0.0000001
 44
0.0000000001
 40
0.0
 40
0.0
 40
0.0
 40
0.0
 40
0.2475169138
 40
0.4950338275
 40
0.7475169138
 40
1.0
 40
1.0
 40
1.0
 40
1.0
 10
46.4273587389
 20
173.9884803883
 30
0.0
 10
46.5115004248
 20
173.8940331455
 30
0.0
 10
46.739513127
 20
173.6407094683
 30
0.0
 10
47.285099339
 20
173.1027402412
 30
0.0
 10
47.8684608743
 20
172.6170053992
 30
0.0
 10
48.1486588522
 20
172.4338130274
 30
0.0
 10
48.2591818068
 20
172.3752336261
 30
0.0
  0
SPLINE
  5
2CE
100
AcDbEntity
  8
0
100
AcDbSpline
 62
7
  6
CONTINUOUS
 70
0
 71
3
 72
9
 73
5
 74
0
 42
0.0000001
 43
0.0000001
 44
0.0000000001
 40
0.0
 40
0.0
 40
0.0
 40
0.0
 40
0.4722157508
 40
1.0
 40
1.0
 40
1.0
 40
1.0
 10
47.3838775848
 20
170.5714910878
 30
0.0
 10
47.1271355918
 20
170.6849817595
 30
0.0
 10
46.117092883
 20
170.9316514221
 30
0.0
 10
45.2134596596
 20
170.9983570896
 30
0.0
 10
44.9751965689
 20
171.0126953827
 30
0.0
  0
SPLINE
  5
2CF
100
AcDbEntity
  8
0
100
AcDbSpline
 62
7
  6
CONTINUOUS
 70
0
 71
3
 72
9
 73
5
 74
0
 42
0.0000001
 43
0.0000001
 44
0.0000000001
 40
0.0
 40
0.0
 40
0.0
 40
0.0
 40
0.5278728586
 40
1.0
 40
1.0
 40
1.0
 40
1.0
 10
44.2829840853
 20
169.3151706116
 30
0.0
 10
44.4635770102
 20
169.1591028169
 30
0.0
 10
45.157468689
 20
168.5756384609
 30
0.0
 10
46.0536334405
 20
168.0466423049
 30
0.0
 10
46.3169141737
 20
167.948600936
 30
0.0
  0
SPLINE
  5
2D0
100
AcDbEntity
  8
0
100
AcDbSpline
 62
7
  6
CONTINUOUS
 70
0
 71
3
 72
11
 73
7
 74
0
 42
0.0000001
 43
0.0000001
 44
0.0000000001
 40
0.0
 40
0.0
 40
0.0
 40
0.0
 40
0.2653762164
 40
0.5307524328
 40
0.7653762164
 40
1.0
 40
1.0
 40
1.0
 40
1.0
 10
45.6845339459
 20
166.0460395381
 30
0.0
 10
45.5954078872
 20
166.0721819262
 30
0.0
 10
45.3040111127
 20
166.135435582
 30
0.0
 10
44.5089224049
 20
166.206626485
 30
0.0
 10
43.6719492801
 20
166.1993573033
 30
0.0
 10
43.3375505074
 20
166.1761293991
 30
0.0
 10
43.229142849
 20
166.1683807409
 30
0.0
  0
SPLINE
  5
2D1
100
AcDbEntity
  8
0
100
AcDbSpline
 62
7
  6
CONTINUOUS
 70
0
 71
3
 72
11
 73
7
 74
0
 42
0.0000001
 43
0.0000001
 44
0.0000000001
 40
0.0
 40
0.0
 40
0.0
 40
0.0
 40
0.2345698895
 40
0.469139779
 40
0.7345698895
 40
1.0
 40
1.0
 40
1.0
 40
1.0
 10
42.7659895905
 20
164.4010908909
 30
0.0
 10
42.8570028046
 20
164.3411564851
 30
0.0
 10
43.137661604
 20
164.1571547616
 30
0.0
 10
43.8644033004
 20
163.7413774844
 30
0.0
 10
44.5930719336
 20
163.4145170907
 30
0.0
 10
44.8784417156
 20
163.3271157568
 30
0.0
 10
44.9690544188
 20
163.3063219038
 30
0.0
  0
SPLINE
  5
2D2
100
AcDbEntity
  8
0
100
AcDbSpline
 62
7
  6
CONTINUOUS
 70
0
 71
3
 72
11
 73
7
 74
0
 42
0.0000001
 43
0.0000001
 44
0.0000000001
 40
0.0
 40
0.0
 40
0.0
 40
0.0
 40
0.2658498909
 40
0.5316997818
 40
0.7658498909
 40
1.0
 40
1.0
 40
1.0
 40
1.0
 10
44.5904183863
 20
161.3374949992
 30
0.0
 10
44.498129442
 20
161.3518603183
 30
0.0
 10
44.1993338094
 20
161.3765533084
 30
0.0
 10
43.4000345188
 20
161.3429318279
 30
0.0
 10
42.5701670295
 20
161.2259595725
 30
0.0
 10
42.2390416253
 20
161.1586562631
 30
0.0
 10
42.1304018835
 20
161.1363123079
 30
0.0
  0
SPLINE
  5
2D3
100
AcDbEntity
  8
0
100
AcDbSpline
 62
7
  6
CONTINUOUS
 70
0
 71
3
 72
11
 73
7
 74
0
 42
0.0000001
 43
0.0000001
 44
0.0000000001
 40
0.0
 40
0.0
 40
0.0
 40
0.0
 40
0.2340348448
 40
0.4680696896
 40
0.7340348448
 40
1.0
 40
1.0
 40
1.0
 40
1.0
 10
41.9026851196
 20
159.3299745831
 30
0.0
 10
42.0029002894
 20
159.2813135052
 30
0.0
 10
42.3076908766
 20
159.1342192664
 30
0.0
 10
43.0831412708
 20
158.8162063077
 30
0.0
 10
43.8496651682
 20
158.5864607484
 30
0.0
 10
44.1455959973
 20
158.5366649473
 30
0.0
 10
44.2386647962
 20
158.5278272108
 30
0.0
  0
SPLINE
  5
2D4
100
AcDbEntity
  8
0
100
AcDbSpline
 62
7
  6
CONTINUOUS
 70
0
 71
3
 72
11
 73
7
 74
0
 42
0.0000001
 43
0.0000001
 44
0.0000000001
 40
0.0
 40
0.0
 40
0.0
 40
0.0
 40
0.2666851579
 40
0.5333703159
 40
0.7666851579
 40
1.0
 40
1.0
 40
1.0
 40
1.0
 10
44.1202515265
 20
156.5264219737
 30
0.0
 10
44.0263582881
 20
156.5286304737
 30
0.0
 10
43.7252430336
 20
156.5139055298
 30
0.0
 10
42.9363475719
 20
156.3757505852
 30
0.0
 10
42.1290882786
 20
156.1512590187
 30
0.0
 10
41.806266653
 20
156.0401634718
 30
0.0
 10
41.6982724504
 20
156.0026474155
 30
0.0
  0
SPLINE
  5
2D5
100
AcDbEntity
  8
0
100
AcDbSpline
 62
7
  6
CONTINUOUS
 70
0
 71
3
 72
11
 73
7
 74
0
 42
0.0000001
 43
0.0000001
 44
0.0000000001
 40
0.0
 40
0.0
 40
0.0
 40
0.0
 40
0.2331438496
 40
0.4662876992
 40
0.7331438496
 40
1.0
 40
1.0
 40
1.0
 40
1.0
 10
41.7082737468
 20
154.1883441567
 30
0.0
 10
41.8173692651
 20
154.1519800064
 30
0.0
 10
42.142197846
 20
154.0447973927
 30
0.0
 10
42.9520978988
 20
153.8305879215
 30
0.0
 10
43.7427467921
 20
153.7024022114
 30
0.0
 10
44.0442996989
 20
153.6914737154
 30
0.0
 10
44.138242475
 20
153.6948782261
 30
0.0
  0
SPLINE
  5
2D6
100
AcDbEntity
  8
0
100
AcDbSpline
 62
7
  6
CONTINUOUS
 70
0
 71
3
 72
11
 73
7
 74
0
 42
0.0000001
 43
0.0000001
 44
0.0000000001
 40
0.0
 40
0.0
 40
0.0
 40
0.0
 40
0.2678321292
 40
0.5356642585
 40
0.7678321292
 40
1.0
 40
1.0
 40
1.0
 40
1.0
 10
44.2820780518
 20
151.695139255
 30
0.0
 10
44.1881970806
 20
151.6850191406
 30
0.0
 10
43.8899807715
 20
151.6306974787
 30
0.0
 10
43.1258328902
 20
151.3903969197
 30
0.0
 10
42.3560248203
 20
151.0628284138
 30
0.0
 10
42.0467080622
 20
150.9087492455
 30
0.0
 10
41.9406167013
 20
150.8554090434
 30
0.0
  0
SPLINE
  5
2D7
100
AcDbEntity
  8
0
100
AcDbSpline
 62
7
  6
CONTINUOUS
 70
0
 71
3
 72
11
 73
7
 74
0
 42
0.0000001
 43
0.0000001
 44
0.0000000001
 40
0.0
 40
0.0
 40
0.0
 40
0.0
 40
0.2316008831
 40
0.4636629465
 40
0.7318314732
 40
1.0
 40
1.0
 40
1.0
 40
1.0
 10
42.1872636107
 20
149.0639117665
 30
0.0
 10
42.3046050973
 20
149.0411694593
 30
0.0
 10
42.6446761634
 20
148.9766472821
 30
0.0
 10
43.4736347206
 20
148.8701080452
 30
0.0
 10
44.2742722238
 20
148.8458921374
 30
0.0
 10
44.5763163581
 20
148.8744472237
 30
0.0
 10
44.6695057088
 20
148.8901680466
 30
0.0
  0
SPLINE
  5
2D8
100
AcDbEntity
  8
0
100
AcDbSpline
 62
7
  6
CONTINUOUS
 70
0
 71
3
 72
11
 73
7
 74
0
 42
0.0000001
 43
0.0000001
 44
0.0000000001
 40
0.0
 40
0.0
 40
0.0
 40
0.0
 40
0.2691906518
 40
0.5383813036
 40
0.7691906518
 40
1.0
 40
1.0
 40
1.0
 40
1.0
 10
45.0731290657
 20
146.9263114299
 30
0.0
 10
44.9809057036
 20
146.9039106584
 30
0.0
 10
44.690853433
 20
146.8105253308
 30
0.0
 10
43.9651179415
 20
146.4724312862
 30
0.0
 10
43.246477312
 20
146.0482016663
 30
0.0
 10
42.9560780791
 20
145.8526210197
 30
0.0
 10
42.8536938033
 20
145.7829680155
 30
0.0
  0
SPLINE
  5
2D9
100
AcDbEntity
  8
0
100
AcDbSpline
 62
7
  6
CONTINUOUS
 70
0
 71
3
 72
11
 73
7
 74
0
 42
0.0000001
 43
0.0000001
 44
0.0000000001
 40
0.0
 40
0.0
 40
0.0
 40
0.0
 40
0.2312801721
 40
0.4625603443
 40
0.7312801721
 40
1.0
 40
1.0
 40
1.0
 40
1.0
 10
43.3298691669
 20
144.0447640155
 30
0.0
 10
43.4587459787
 20
144.0368690034
 30
0.0
 10
43.8069288227
 20
144.0170685227
 30
0.0
 10
44.6352459265
 20
144.0198867181
 30
0.0
 10
45.4359348378
 20
144.1000129288
 30
0.0
 10
45.7325709904
 20
144.1680173675
 30
0.0
 10
45.8233644364
 20
144.1959065958
 30
0.0
  0
SPLINE
  5
2DA
100
AcDbEntity
  8
0
100
AcDbSpline
 62
7
  6
CONTINUOUS
 70
0
 71
3
 72
11
 73
7
 74
0
 42
0.0000001
 43
0.0000001
 44
0.0000000001
 40
0.0
 40
0.0
 40
0.0
 40
0.0
 40
0.2684648348
 40
0.5369296697
 40
0.7684648348
 40
1.0
 40
1.0
 40
1.0
 40
1.0
 10
46.4798694658
 20
142.3015344646
 30
0.0
 10
46.3909452201
 20
142.2671276795
 30
0.0
 10
46.1145670189
 20
142.1361884534
 30
0.0
 10
45.435095255
 20
141.7030838147
 30
0.0
 10
44.776682355
 20
141.1870545359
 30
0.0
 10
44.5149355029
 20
140.9553224444
 30
0.0
 10
44.4221958989
 20
140.8725113504
 30
0.0
  0
SPLINE
  5
2DB
100
AcDbEntity
  8
0
100
AcDbSpline
 62
7
  6
CONTINUOUS
 70
0
 71
3
 72
11
 73
7
 74
0
 42
0.0000001
 43
0.0000001
 44
0.0000000001
 40
0.0
 40
0.0
 40
0.0
 40
0.0
 40
0.2320719407
 40
0.4641438814
 40
0.7320719407
 40
1.0
 40
1.0
 40
1.0
 40
1.0
 10
45.1191127943
 20
139.216505103
 30
0.0
 10
45.2396944863
 20
139.2248512461
 30
0.0
 10
45.5874476207
 20
139.2502829425
 30
0.0
 10
46.4209189007
 20
139.3617156767
 30
0.0
 10
47.2063010269
 20
139.5461741058
 30
0.0
 10
47.4933025695
 20
139.6527309582
 30
0.0
 10
47.5800758151
 20
139.6924139886
 30
0.0
  0
SPLINE
  5
2DC
100
AcDbEntity
  8
0
100
AcDbSpline
 62
7
  6
CONTINUOUS
 70
0
 71
3
 72
11
 73
7
 74
0
 42
0.0000001
 43
0.0000001
 44
0.0000000001
 40
0.0
 40
0.0
 40
0.0
 40
0.0
 40
0.2708141754
 40
0.5416283509
 40
0.7708141754
 40
1.0
 40
1.0
 40
1.0
 40
1.0
 10
48.4782295339
 20
137.8999395751
 30
0.0
 10
48.3942072563
 20
137.8540290802
 30
0.0
 10
48.1360121948
 20
137.6871087129
 30
0.0
 10
47.5218893785
 20
137.1714016287
 30
0.0
 10
46.9384444659
 20
136.5760919614
 30
0.0
 10
46.7044841774
 20
136.3073305158
 30
0.0
 10
46.6194877221
 20
136.2085240402
 30
0.0
  0
SPLINE
  5
2DD
100
AcDbEntity
  8
0
100
AcDbSpline
 62
7
  6
CONTINUOUS
 70
0
 71
3
 72
11
 73
7
 74
0
 42
0.0000001
 43
0.0000001
 44
0.0000000001
 40
0.0
 40
0.0
 40
0.0
 40
0.0
 40
0.2286032782
 40
0.4572065565
 40
0.7286032782
 40
1.0
 40
1.0
 40
1.0
 40
1.0
 10
47.5241148759
 20
134.6621348383
 30
0.0
 10
47.6537218219
 20
134.6883292891
 30
0.0
 10
48.0040165346
 20
134.7614139405
 30
0.0
 10
48.8071096906
 20
134.9789967611
 30
0.0
 10
49.5563221019
 20
135.2621664934
 30
0.0
 10
49.8284001374
 20
135.405869279
 30
0.0
 10
49.9095820262
 20
135.456746232
 30
0.0
  0
SPLINE
  5
2DE
100
AcDbEntity
  8
0
100
AcDbSpline
 62
7
  6
CONTINUOUS
 70
0
 71
3
 72
11
 73
7
 74
0
 42
0.0000001
 43
0.0000001
 44
0.0000000001
 40
0.0
 40
0.0
 40
0.0
 40
0.0
 40
0.2712436274
 40
0.5424872548
 40
0.7712436274
 40
1.0
 40
1.0
 40
1.0
 40
1.0
 10
51.0340167752
 20
133.7968392706
 30
0.0
 10
50.9564254191
 20
133.7401495561
 30
0.0
 10
50.7214541904
 20
133.5402276771
 30
0.0
 10
50.1791279897
 20
132.9474835379
 30
0.0
 10
49.6786579086
 20
132.2812099164
 30
0.0
 10
49.4807490965
 20
131.9825317336
 30
0.0
 10
49.4080474897
 20
131.8713118326
 30
0.0
  0
SPLINE
  5
2DF
100
AcDbEntity
  8
0
100
AcDbSpline
 62
7
  6
CONTINUOUS
 70
0
 71
3
 72
11
 73
7
 74
0
 42
0.0000001
 43
0.0000001
 44
0.0000000001
 40
0.0
 40
0.0
 40
0.0
 40
0.0
 40
0.2279433292
 40
0.4558866584
 40
0.7279433292
 40
1.0
 40
1.0
 40
1.0
 40
1.0
 10
50.5040818361
 20
130.4599360021
 30
0.0
 10
50.632182915
 20
130.5037820788
 30
0.0
 10
50.9722783352
 20
130.622767167
 30
0.0
 10
51.7392866201
 20
130.942874099
 30
0.0
 10
52.4460233077
 20
131.3215695781
 30
0.0
 10
52.6979172211
 20
131.5001231876
 30
0.0
 10
52.7720245724
 20
131.5613767757
 30
0.0
  0
SPLINE
  5
2E0
100
AcDbEntity
  8
0
100
AcDbSpline
 62
7
  6
CONTINUOUS
 70
0
 71
3
 72
11
 73
7
 74
0
 42
0.0000001
 43
0.0000001
 44
0.0000000001
 40
0.0
 40
0.0
 40
0.0
 40
0.0
 40
0.2721256814
 40
0.5442513628
 40
0.7721256814
 40
1.0
 40
1.0
 40
1.0
 40
1.0
 10
54.1035009614
 20
130.0624387346
 30
0.0
 10
54.033774068
 20
129.9959166083
 30
0.0
 10
53.8263025314
 20
129.7662636525
 30
0.0
 10
53.3662398891
 20
129.1078411762
 30
0.0
 10
52.9573933325
 20
128.3824986926
 30
0.0
 10
52.798854897
 20
128.0579796545
 30
0.0
 10
52.7401028271
 20
127.9355923954
 30
0.0
  0
SPLINE
  5
2E1
100
AcDbEntity
  8
0
100
AcDbSpline
 62
7
  6
CONTINUOUS
 70
0
 71
3
 72
11
 73
7
 74
0
 42
0.0000001
 43
0.0000001
 44
0.0000000001
 40
0.0
 40
0.0
 40
0.0
 40
0.0
 40
0.227874575
 40
0.45574915
 40
0.727874575
 40
1.0
 40
1.0
 40
1.0
 40
1.0
 10
54.0082786072
 20
126.6822470929
 30
0.0
 10
54.1299352019
 20
126.7425513878
 30
0.0
 10
54.4525318563
 20
126.9052353148
 30
0.0
 10
55.1729068053
 20
127.3233790246
 30
0.0
 10
55.8256757599
 20
127.7919091295
 30
0.0
 10
56.052769488
 20
128.0023619067
 30
0.0
 10
56.1184262683
 20
128.0729564711
 30
0.0
  0
SPLINE
  5
2E2
100
AcDbEntity
  8
0
100
AcDbSpline
 62
7
  6
CONTINUOUS
 70
0
 71
3
 72
11
 73
7
 74
0
 42
0.0000001
 43
0.0000001
 44
0.0000000001
 40
0.0
 40
0.0
 40
0.0
 40
0.0
 40
0.2721382669
 40
0.5442765337
 40
0.7721382669
 40
1.0
 40
1.0
 40
1.0
 40
1.0
 10
57.6341623671
 20
126.7606345959
 30
0.0
 10
57.5735792472
 20
126.6854119861
 30
0.0
 10
57.3974870442
 20
126.4300407995
 30
0.0
 10
57.0267323903
 20
125.7157198562
 30
0.0
 10
56.7156602579
 20
124.9415334703
 30
0.0
 10
56.6007263301
 20
124.5983737444
 30
0.0
 10
56.5584515409
 20
124.4691814577
 30
0.0
  0
SPLINE
  5
2E3
100
AcDbEntity
  8
0
100
AcDbSpline
 62
7
  6
CONTINUOUS
 70
0
 71
3
 72
11
 73
7
 74
0
 42
0.0000001
 43
0.0000001
 44
0.0000000001
 40
0.0
 40
0.0
 40
0.0
 40
0.0
 40
0.227857684
 40
0.4557153681
 40
0.727857684
 40
1.0
 40
1.0
 40
1.0
 40
1.0
 10
57.9768784171
 20
123.3941950288
 30
0.0
 10
58.0898037051
 20
123.4699176313
 30
0.0
 10
58.3890556205
 20
123.6736140021
 30
0.0
 10
59.0501383989
 20
124.1830140415
 30
0.0
 10
59.6373865302
 20
124.7336488465
 30
0.0
 10
59.8355283599
 20
124.9724435465
 30
0.0
 10
59.891529253
 20
125.0511731568
 30
0.0
  0
SPLINE
  5
2E4
100
AcDbEntity
  8
0
100
AcDbSpline
 62
7
  6
CONTINUOUS
 70
0
 71
3
 72
10
 73
6
 74
0
 42
0.0000001
 43
0.0000001
 44
0.0000000001
 40
0.0
 40
0.0
 40
0.0
 40
0.0
 40
0.3005203536
 40
0.6010407072
 40
1.0
 40
1.0
 40
1.0
 40
1.0
 10
61.5655903967
 20
123.9479216385
 30
0.0
 10
61.5152334318
 20
123.8652532153
 30
0.0
 10
61.3730046276
 20
123.5860279658
 30
0.0
 10
61.0545574288
 20
122.7096177787
 30
0.0
 10
60.8748644837
 20
121.9454284298
 30
0.0
 10
60.7974531311
 20
121.531799067
 30
0.0
  0
SPLINE
  5
2E5
100
AcDbEntity
  8
0
100
AcDbSpline
 62
7
  6
CONTINUOUS
 70
0
 71
3
 72
10
 73
6
 74
0
 42
0.0000001
 43
0.0000001
 44
0.0000000001
 40
0.0
 40
0.0
 40
0.0
 40
0.0
 40
0.4001489182
 40
0.7000744591
 40
1.0
 40
1.0
 40
1.0
 40
1.0
 10
62.3374283885
 20
120.6485498713
 30
0.0
 10
62.6543826644
 20
120.9269909654
 30
0.0
 10
63.2222453776
 20
121.4742123795
 30
0.0
 10
63.8140016074
 20
122.19715395
 30
0.0
 10
63.9814326855
 20
122.4621826988
 30
0.0
 10
64.0267746884
 20
122.5477303831
 30
0.0
  0
SPLINE
  5
2E6
100
AcDbEntity
  8
0
100
AcDbSpline
 62
7
  6
CONTINUOUS
 70
0
 71
3
 72
10
 73
6
 74
0
 42
0.0000001
 43
0.0000001
 44
0.0000000001
 40
0.0
 40
0.0
 40
0.0
 40
0.0
 40
0.3004168589
 40
0.6008337178
 40
1.0
 40
1.0
 40
1.0
 40
1.0
 10
65.8305172267
 20
121.6724261611
 30
0.0
 10
65.7913333304
 20
121.5837831787
 30
0.0
 10
65.6866457544
 20
121.2877406036
 30
0.0
 10
65.4852096091
 20
120.3773249043
 30
0.0
 10
65.4066478516
 20
119.590732214
 30
0.0
 10
65.3841732129
 20
119.1740189297
 30
0.0
  0
SPLINE
  5
2E7
100
AcDbEntity
  8
0
100
AcDbSpline
 62
7
  6
CONTINUOUS
 70
0
 71
3
 72
10
 73
6
 74
0
 42
0.0000001
 43
0.0000001
 44
0.0000000001
 40
0.0
 40
0.0
 40
0.0
 40
0.0
 40
0.3991900359
 40
0.6995950179
 40
1.0
 40
1.0
 40
1.0
 40
1.0
 10
67.0287512445
 20
118.5047051528
 30
0.0
 10
67.3032992654
 20
118.8184700807
 30
0.0
 10
67.7965614629
 20
119.4369971378
 30
0.0
 10
68.2878433407
 20
120.2295081703
 30
0.0
 10
68.4195811516
 20
120.5146256482
 30
0.0
 10
68.4534073785
 20
120.60546275
 30
0.0
  0
SPLINE
  5
2E8
100
AcDbEntity
  8
0
100
AcDbSpline
 62
7
  6
CONTINUOUS
 70
0
 71
3
 72
10
 73
6
 74
0
 42
0.0000001
 43
0.0000001
 44
0.0000000001
 40
0.0
 40
0.0
 40
0.0
 40
0.0
 40
0.3003629761
 40
0.6007259522
 40
1.0
 40
1.0
 40
1.0
 40
1.0
 10
70.3559687764
 20
119.9730825222
 30
0.0
 10
70.3286729872
 20
119.8800242255
 30
0.0
 10
70.2635027651
 20
119.5725143003
 30
0.0
 10
70.182563983
 20
118.6435979833
 30
0.0
 10
70.2076369609
 20
117.8506776096
 30
0.0
 10
70.2396596967
 20
117.4363809839
 30
0.0
  0
SPLINE
  5
2E9
100
AcDbEntity
  8
0
100
AcDbSpline
 62
7
  6
CONTINUOUS
 70
0
 71
3
 72
10
 73
6
 74
0
 42
0.0000001
 43
0.0000001
 44
0.0000000001
 40
0.0
 40
0.0
 40
0.0
 40
0.0
 40
0.3992819638
 40
0.6996409819
 40
1.0
 40
1.0
 40
1.0
 40
1.0
 10
71.9567530948
 20
116.9878588967
 30
0.0
 10
72.1871900163
 20
117.3334853026
 30
0.0
 10
72.5968826394
 20
118.0130655856
 30
0.0
 10
72.9804737353
 20
118.8629454762
 30
0.0
 10
73.0739944384
 20
119.1630765865
 30
0.0
 10
73.0956864107
 20
119.2576029951
 30
0.0
  0
SPLINE
  5
2EA
100
AcDbEntity
  8
0
100
AcDbSpline
 62
7
  6
CONTINUOUS
 70
0
 71
3
 72
10
 73
6
 74
0
 42
0.0000001
 43
0.0000001
 44
0.0000000001
 40
0.0
 40
0.0
 40
0.0
 40
0.0
 40
0.3003590181
 40
0.6007180362
 40
1.0
 40
1.0
 40
1.0
 40
1.0
 10
75.0645133153
 20
118.8789669626
 30
0.0
 10
75.0495968951
 20
118.7831375099
 30
0.0
 10
75.0251240831
 20
118.4697274164
 30
0.0
 10
75.0661214202
 20
117.538192567
 30
0.0
 10
75.1945247059
 20
116.7551280724
 30
0.0
 10
75.2803267765
 20
116.3486839902
 30
0.0
  0
SPLINE
  5
2EB
100
AcDbEntity
  8
0
100
AcDbSpline
 62
7
  6
CONTINUOUS
 70
0
 71
3
 72
10
 73
6
 74
0
 42
0.0000001
 43
0.0000001
 44
0.0000000001
 40
0.0
 40
0.0
 40
0.0
 40
0.0
 40
0.399274048
 40
0.699637024
 40
1.0
 40
1.0
 40
1.0
 40
1.0
 10
77.0412985351
 20
116.1283200575
 30
0.0
 10
77.2247049328
 20
116.5011863072
 30
0.0
 10
77.5420937107
 20
117.2282459646
 30
0.0
 10
77.8114754236
 20
118.1209217754
 30
0.0
 10
77.8650133088
 20
118.4306687805
 30
0.0
 10
77.8741811037
 20
118.5272133725
 30
0.0
  0
SPLINE
  5
2EC
100
AcDbEntity
  8
0
100
AcDbSpline
 62
7
  6
CONTINUOUS
 70
0
 71
3
 72
10
 73
6
 74
0
 42
0.0000001
 43
0.0000001
 44
0.0000000001
 40
0.0
 40
0.0
 40
0.0
 40
0.0
 40
0.300404982
 40
0.6008099639
 40
1.0
 40
1.0
 40
1.0
 40
1.0
 10
79.8755863407
 20
118.4088001028
 30
0.0
 10
79.8733070219
 20
118.3118960398
 30
0.0
 10
79.889893952
 20
117.9982534069
 30
0.0
 10
80.0521790834
 20
117.0800512744
 30
0.0
 10
80.2808361581
 20
116.3226879095
 30
0.0
 10
80.4194206108
 20
115.929471185
 30
0.0
  0
SPLINE
  5
2ED
100
AcDbEntity
  8
0
100
AcDbSpline
 62
7
  6
CONTINUOUS
 70
0
 71
3
 72
10
 73
6
 74
0
 42
0.0000001
 43
0.0000001
 44
0.0000000001
 40
0.0
 40
0.0
 40
0.0
 40
0.0
 40
0.3991662826
 40
0.6995831413
 40
1.0
 40
1.0
 40
1.0
 40
1.0
 10
82.1949441512
 20
115.9410462403
 30
0.0
 10
82.3286369665
 20
116.3363705328
 30
0.0
 10
82.5474364952
 20
117.0959933294
 30
0.0
 10
82.698054083
 20
118.0161822276
 30
0.0
 10
82.7106400911
 20
118.3299373679
 30
0.0
 10
82.7071300884
 20
118.4267910513
 30
0.0
  0
SPLINE
  5
2EE
100
AcDbEntity
  8
0
100
AcDbSpline
 62
7
  6
CONTINUOUS
 70
0
 71
3
 72
10
 73
6
 74
0
 42
0.0000001
 43
0.0000001
 44
0.0000000001
 40
0.0
 40
0.0
 40
0.0
 40
0.0
 40
0.2999255383
 40
0.5998510767
 40
1.0
 40
1.0
 40
1.0
 40
1.0
 10
84.7068690594
 20
118.5706266281
 30
0.0
 10
84.7172459825
 20
118.4743633275
 30
0.0
 10
84.7744312639
 20
118.1661373585
 30
0.0
 10
85.0558278865
 20
117.2752749088
 30
0.0
 10
85.3802122342
 20
116.556460492
 30
0.0
 10
85.5712800701
 20
116.1803188456
 30
0.0
  0
SPLINE
  5
2EF
100
AcDbEntity
  8
0
100
AcDbSpline
 62
7
  6
CONTINUOUS
 70
0
 71
3
 72
10
 73
6
 74
0
 42
0.0000001
 43
0.0000001
 44
0.0000000001
 40
0.0
 40
0.0
 40
0.0
 40
0.0
 40
0.3989592934
 40
0.6994796467
 40
1.0
 40
1.0
 40
1.0
 40
1.0
 10
87.3290137635
 20
116.4293673435
 30
0.0
 10
87.4105447612
 20
116.842204424
 30
0.0
 10
87.5271173364
 20
117.6185328181
 30
0.0
 10
87.5564574583
 20
118.550542792
 30
0.0
 10
87.527942379
 20
118.8626047476
 30
0.0
 10
87.5118402678
 20
118.9580542851
 30
0.0
  0
SPLINE
  5
2F0
100
AcDbEntity
  8
0
100
AcDbSpline
 62
7
  6
CONTINUOUS
 70
0
 71
3
 72
11
 73
7
 74
0
 42
0.0000001
 43
0.0000001
 44
0.0000000001
 40
0.0
 40
0.0
 40
0.0
 40
0.0
 40
0.272142316
 40
0.544284632
 40
0.772142316
 40
1.0
 40
1.0
 40
1.0
 40
1.0
 10
89.4756968846
 20
119.3616776419
 30
0.0
 10
89.4985012857
 20
119.2677925476
 30
0.0
 10
89.5939371945
 20
118.972538282
 30
0.0
 10
89.9350580745
 20
118.2433636766
 30
0.0
 10
90.3600413089
 20
117.525096251
 30
0.0
 10
90.5623933083
 20
117.2249336459
 30
0.0
 10
90.6391768942
 20
117.1127270764
 30
0.0
  0
SPLINE
  5
2F1
100
AcDbEntity
  8
0
100
AcDbSpline
 62
7
  6
CONTINUOUS
 70
0
 71
3
 72
11
 73
7
 74
0
 42
0.0000001
 43
0.0000001
 44
0.0000000001
 40
0.0
 40
0.0
 40
0.0
 40
0.0
 40
0.2278617331
 40
0.4557234662
 40
0.7278617331
 40
1.0
 40
1.0
 40
1.0
 40
1.0
 10
92.3551503344
 20
117.5849195763
 30
0.0
 10
92.3638101752
 20
117.7205765407
 30
0.0
 10
92.3843570814
 20
118.0818883603
 30
0.0
 10
92.3826300746
 20
118.9162308887
 30
0.0
 10
92.3032729787
 20
119.7171153248
 30
0.0
 10
92.2344622772
 20
120.01958515
 30
0.0
 10
92.2061017186
 20
120.1119130127
 30
0.0
  0
SPLINE
  5
2F2
100
AcDbEntity
  8
0
100
AcDbSpline
 62
7
  6
CONTINUOUS
 70
0
 71
3
 72
11
 73
7
 74
0
 42
0.0000001
 43
0.0000001
 44
0.0000000001
 40
0.0
 40
0.0
 40
0.0
 40
0.0
 40
0.272125425
 40
0.54425085
 40
0.772125425
 40
1.0
 40
1.0
 40
1.0
 40
1.0
 10
94.1004738499
 20
120.768418042
 30
0.0
 10
94.1352627543
 20
120.67850621
 30
0.0
 10
94.268097738
 20
120.3988335429
 30
0.0
 10
94.7005193748
 20
119.7216044085
 30
0.0
 10
95.214413474
 20
119.0660915638
 30
0.0
 10
95.4536570189
 20
118.7953570282
 30
0.0
 10
95.5442679349
 20
118.6942303898
 30
0.0
  0
SPLINE
  5
2F3
100
AcDbEntity
  8
0
100
AcDbSpline
 62
7
  6
CONTINUOUS
 70
0
 71
3
 72
11
 73
7
 74
0
 42
0.0000001
 43
0.0000001
 44
0.0000000001
 40
0.0
 40
0.0
 40
0.0
 40
0.0
 40
0.2278743186
 40
0.4557486372
 40
0.7278743186
 40
1.0
 40
1.0
 40
1.0
 40
1.0
 10
97.186863622
 20
119.3877890672
 30
0.0
 10
97.1776974725
 20
119.5232380565
 30
0.0
 10
97.1508362111
 20
119.8834123415
 30
0.0
 10
97.0401924258
 20
120.7086609012
 30
0.0
 10
96.8571644285
 20
121.4907597125
 30
0.0
 10
96.7496735323
 20
121.7809848439
 30
0.0
 10
96.7095943259
 20
121.8686243914
 30
0.0
  0
ENDSEC
  0
SECTION
  2
OBJECTS
  0
DICTIONARY
  5
C
100
AcDbDictionary
280
0
281
1
  3
ACAD_GROUP
350
D
  3
ACAD_MLINESTYLE
350
17
  3
ACAD_LAYOUT
350
1A
  3
ACAD_PLOTSETTINGS
350
19
  3
ACAD_PLOTSTYLENAME
350
E
  0
DICTIONARY
  5
D
102
{ACAD_REACTORS
330
C
102
}
100
AcDbDictionary
280
0
281
1
  0
ACDBDICTIONARYWDFLT
  5
E
102
{ACAD_REACTORS
330
C
102
}
100
AcDbDictionary
281
1
  3
Normal
350
F
100
AcDbDictionaryWithDefault
340
F
  0
DICTIONARY
  5
17
102
{ACAD_REACTORS
330
C
102
}
100
AcDbDictionary
280
0
281
1
  3
Standard
350
18
  0
DICTIONARY
  5
19
102
{ACAD_REACTORS
330
C
102
}
100
AcDbDictionary
281
1
  0
DICTIONARY
  5
1A
102
{ACAD_REACTORS
330
C
102
}
100
AcDbDictionary
281
1
  3
Model
350
2F4
  3
Layout1
350
2F5
  0
ACDBPLACEHOLDER
  5
F
102
{ACAD_REACTORS
330
E
102
}
  0
MLINESTYLE
  5
18
102
{ACAD_REACTORS
330
17
102
}
100
AcDbMlineStyle
  2
STANDARD
 70
0
  3

 62
256
 51
90.0
 52
90.0
 71
2
 49
0.5
 62
256
  6
BYLAYER
 49
-0.5
 62
256
  6
BYLAYER
  0
LAYOUT
  5
2F4
102
{ACAD_REACTORS
330
1A
102
}
100
AcDbPlotSettings
  1

  2
none_device
  4
ISO_A3_(420.00_x_297.00_MM)
  6

 40
0.0
 41
0.0
 42
0.0
 43
0.0
 44
420.0
 45
297.0
 46
0.0
 47
0.0
 48
0.0
 49
0.0
140
0.0
141
0.0
142
1.0
143
1.0
 70
1024
 72
1
 73
0
 74
0
  7

 75
0
147
1.0
148
0.0
149
0.0
100
AcDbLayout
  1
Model
 70
0
 71
0
 10
0.0
 20
0.0
 11
420.0
 21
297.0
 12
0.0
 22
0.0
 32
0.0
 14
0.0
 24
0.0
 34
0.0
 15
0.0
 25
0.0
 35
0.0
146
0.0
 13
0.0
 23
0.0
 33
0.0
 16
1.0
 26
0.0
 36
0.0
 17
0.0
 27
1.0
 37
0.0
 76
0
330
202
345
0
346
0
  0
LAYOUT
  5
2F5
102
{ACAD_REACTORS
330
1A
102
}
100
AcDbPlotSettings
  1

  2
none_device
  4
ISO_A3_(420.00_x_297.00_MM)
  6

 40
0.0
 41
0.0
 42
0.0
 43
0.0
 44
420.0
 45
297.0
 46
0.0
 47
0.0
 48
0.0
 49
0.0
140
0.0
141
0.0
142
1.0
143
1.0
 70
0
 72
1
 73
0
 74
0
  7

 75
0
147
1.0
148
0.0
149
0.0
100
AcDbLayout
  1
Layout1
 70
0
 71
1
 10
0.0
 20
0.0
 11
420.0
 21
297.0
 12
0.0
 22
0.0
 32
0.0
 14
0.0
 24
0.0
 34
0.0
 15
0.0
 25
0.0
 35
0.0
146
0.0
 13
0.0
 23
0.0
 33
0.0
 16
1.0
 26
0.0
 36
0.0
 17
0.0
 27
1.0
 37
0.0
 76
0
330
203
345
0
346
0
  0
ENDSEC
  0
EOF
